<svg width="688" height="688" viewBox="0 0 688 688" fill="none" xmlns="http://www.w3.org/2000/svg">
<path d="M601.862 433.344C601.862 433.344 672.162 354.334 649.816 216.858C627.47 79.3814 512.67 28.7309 436.536 55.1914C360.402 81.6518 343.229 127.707 281.048 154.043C218.867 180.38 100.709 162.299 41.624 250.762C-17.4615 339.225 57.9708 485.811 154.002 577.727C250.033 669.644 495.085 612.1 601.862 433.344Z" fill="#5200D9"/>
<path opacity="0.7" d="M601.862 433.344C601.862 433.344 672.162 354.334 649.816 216.858C627.47 79.3814 512.67 28.7309 436.536 55.1914C360.402 81.6518 343.229 127.707 281.048 154.043C218.867 180.38 100.709 162.299 41.624 250.762C-17.4615 339.225 57.9708 485.811 154.002 577.727C250.033 669.644 495.085 612.1 601.862 433.344Z" fill="white"/>
<path opacity="0.5" d="M631.763 189.888H189.943V484.916H631.763V189.888Z" stroke="black" stroke-linecap="round" stroke-linejoin="round"/>
<path opacity="0.5" d="M625.832 193.851H195.874V480.967H625.832V193.851Z" stroke="black" stroke-linecap="round" stroke-linejoin="round"/>
<path opacity="0.3" d="M247.928 236.851C247.928 236.851 252.634 262.266 252.634 269.792V296.143C252.634 296.143 271.457 297.078 286.511 296.143C301.564 295.207 319.452 285.795 319.452 285.795C319.452 285.795 312.861 260.38 312.861 253.789C312.861 247.198 309.105 231.168 309.105 231.168L247.928 236.851Z" fill="white" stroke="black" stroke-linecap="round" stroke-linejoin="round"/>
<path opacity="0.3" d="M249.799 394.912C249.799 394.912 247.047 416.556 247.047 425.968C247.047 435.38 242.341 450.434 242.341 450.434C242.341 450.434 264.935 458.91 270.576 458.91C276.218 458.91 300.697 457.025 300.697 457.025L304.467 401.503C304.467 401.503 257.312 396.852 249.799 394.912Z" fill="white" stroke="black" stroke-linecap="round" stroke-linejoin="round"/>
<path opacity="0.3" d="M354.278 278.255L365.562 330.02C365.562 330.02 379.679 330.969 394.746 330.969C409.814 330.969 435.215 316.851 435.215 316.851C435.215 316.851 422.982 292.372 422.982 285.795C422.982 279.218 419.212 260.38 419.212 260.38C419.212 260.38 380.684 272.613 374.973 273.549C369.263 274.484 354.278 278.255 354.278 278.255Z" fill="white" stroke="black" stroke-linecap="round" stroke-linejoin="round"/>
<path opacity="0.3" d="M438.944 264.192C438.944 264.192 436.192 298.069 436.192 301.826C436.192 305.582 435.256 320.649 435.256 320.649C435.256 320.649 454.08 323.484 464.428 323.484C474.775 323.484 492.663 322.534 492.663 322.534C492.663 322.534 491.727 289.593 493.599 286.758C495.47 283.924 496.433 268.87 496.433 268.87C496.433 268.87 442.742 265.086 438.944 264.192Z" fill="white" stroke="black" stroke-linecap="round" stroke-linejoin="round"/>
<path opacity="0.3" d="M459.68 339.432V362.026C459.68 365.782 457.795 393.082 457.795 393.082C457.795 393.082 482.274 394.018 491.686 393.082C501.098 392.146 519.921 386.491 519.921 386.491L517.087 356.384L515.215 335.744C515.215 335.744 470.041 342.266 459.68 339.432Z" fill="white" stroke="black" stroke-linecap="round" stroke-linejoin="round"/>
<path opacity="0.3" d="M601.794 212.386L580.149 213.321H568.852V229.324C568.852 234.03 567.917 249.084 567.917 251.904C567.917 254.725 582.97 256.61 589.561 256.61H613.091L614.026 210.5L601.794 212.386Z" fill="white" stroke="black" stroke-linecap="round" stroke-linejoin="round"/>
<g opacity="0.5">
<path d="M547.208 314.031H587.676" stroke="black" stroke-linecap="round" stroke-linejoin="round"/>
<path d="M547.208 323.443H587.676" stroke="black" stroke-linecap="round" stroke-linejoin="round"/>
<path d="M547.208 332.854H587.676" stroke="black" stroke-linecap="round" stroke-linejoin="round"/>
<path d="M547.208 342.266H587.676" stroke="black" stroke-linecap="round" stroke-linejoin="round"/>
</g>
<g opacity="0.5">
<path d="M338.276 206.73H471.913" stroke="black" stroke-linecap="round" stroke-linejoin="round"/>
<path d="M338.276 216.142H471.913" stroke="black" stroke-linecap="round" stroke-linejoin="round"/>
</g>
<g opacity="0.5">
<path d="M474.733 411.906H515.215" stroke="black" stroke-linecap="round" stroke-linejoin="round"/>
<path d="M474.733 421.318H515.215" stroke="black" stroke-linecap="round" stroke-linejoin="round"/>
<path d="M474.733 430.729H515.215" stroke="black" stroke-linecap="round" stroke-linejoin="round"/>
<path d="M474.733 440.141H515.215" stroke="black" stroke-linecap="round" stroke-linejoin="round"/>
</g>
<g opacity="0.5">
<path d="M223.448 349.793H263.916" stroke="black" stroke-linecap="round" stroke-linejoin="round"/>
<path d="M223.448 359.205H263.916" stroke="black" stroke-linecap="round" stroke-linejoin="round"/>
<path d="M223.448 368.617H263.916" stroke="black" stroke-linecap="round" stroke-linejoin="round"/>
<path d="M223.448 378.028H263.916" stroke="black" stroke-linecap="round" stroke-linejoin="round"/>
</g>
<g opacity="0.5">
<path d="M508.625 231.209H549.093" stroke="black" stroke-linecap="round" stroke-linejoin="round"/>
<path d="M508.625 240.621H549.093" stroke="black" stroke-linecap="round" stroke-linejoin="round"/>
<path d="M508.625 250.033H549.093" stroke="black" stroke-linecap="round" stroke-linejoin="round"/>
<path d="M508.625 259.445H549.093" stroke="black" stroke-linecap="round" stroke-linejoin="round"/>
</g>
<path opacity="0.5" d="M360.512 321.076L337.312 327.708L343.284 332.882C332.428 340.023 309.435 352.256 294.395 339.831C274.223 323.167 279.658 308.761 279.892 308.183L278.103 307.467L276.328 306.738C276.039 307.44 269.448 324.254 291.946 342.83C297.068 347.033 303.526 349.264 310.15 349.119C324.185 349.119 338.675 340.753 346.325 335.551L353.879 342.087L360.512 321.076Z" fill="black"/>
<path opacity="0.5" d="M594.721 281.461L588.02 259.115L575.732 276.989L582.557 278.599L575.471 304.096L579.186 305.128L586.314 279.479L594.721 281.461Z" fill="black"/>
<path opacity="0.3" d="M286.51 239.672C286.51 238.553 286.178 237.459 285.556 236.528C284.934 235.598 284.05 234.873 283.016 234.446C281.982 234.018 280.844 233.907 279.747 234.126C278.649 234.345 277.642 234.885 276.851 235.678C276.061 236.47 275.523 237.479 275.307 238.577C275.09 239.675 275.204 240.812 275.634 241.845C276.064 242.879 276.791 243.761 277.723 244.381C278.655 245 279.75 245.33 280.869 245.327C282.366 245.323 283.801 244.726 284.859 243.666C285.916 242.606 286.51 241.169 286.51 239.672Z" fill="white" stroke="black" stroke-linecap="round" stroke-linejoin="round"/>
<path opacity="0.3" d="M390.041 275.434C390.041 274.315 389.709 273.222 389.088 272.292C388.466 271.362 387.583 270.637 386.55 270.209C385.516 269.781 384.379 269.669 383.282 269.887C382.185 270.105 381.177 270.644 380.386 271.435C379.595 272.226 379.057 273.234 378.839 274.331C378.62 275.428 378.732 276.565 379.16 277.598C379.589 278.632 380.313 279.515 381.243 280.136C382.173 280.758 383.267 281.089 384.385 281.089C385.128 281.089 385.863 280.943 386.55 280.659C387.236 280.375 387.859 279.958 388.384 279.433C388.909 278.908 389.326 278.284 389.61 277.598C389.894 276.912 390.041 276.177 390.041 275.434Z" fill="#5200D9" stroke="black" stroke-linecap="round" stroke-linejoin="round"/>
<path opacity="0.3" d="M470.042 272.613C473.157 272.613 475.683 270.087 475.683 266.972C475.683 263.856 473.157 261.33 470.042 261.33C466.926 261.33 464.4 263.856 464.4 266.972C464.4 270.087 466.926 272.613 470.042 272.613Z" fill="white" stroke="black" stroke-linecap="round" stroke-linejoin="round"/>
<path opacity="0.3" d="M494.507 345.087C494.509 343.968 494.18 342.873 493.56 341.941C492.94 341.01 492.058 340.283 491.025 339.852C489.992 339.422 488.854 339.308 487.756 339.525C486.658 339.742 485.649 340.279 484.857 341.07C484.065 341.86 483.525 342.868 483.305 343.965C483.086 345.062 483.197 346.2 483.625 347.234C484.053 348.269 484.777 349.153 485.708 349.775C486.638 350.397 487.732 350.729 488.851 350.729C490.349 350.729 491.785 350.135 492.845 349.077C493.905 348.02 494.503 346.585 494.507 345.087Z" fill="white" stroke="black" stroke-linecap="round" stroke-linejoin="round"/>
<path opacity="0.3" d="M286.51 405.315C286.51 404.195 286.178 403.101 285.556 402.171C284.934 401.241 284.05 400.516 283.016 400.088C281.982 399.661 280.844 399.55 279.747 399.769C278.649 399.988 277.642 400.528 276.851 401.32C276.061 402.113 275.523 403.122 275.307 404.22C275.09 405.318 275.204 406.455 275.634 407.488C276.064 408.521 276.791 409.404 277.723 410.023C278.655 410.643 279.75 410.973 280.869 410.97C282.366 410.966 283.801 410.369 284.859 409.309C285.916 408.248 286.51 406.812 286.51 405.315Z" fill="#5200D9" stroke="black" stroke-linecap="round" stroke-linejoin="round"/>
<path opacity="0.3" d="M591.446 218.027C594.562 218.027 597.087 215.501 597.087 212.386C597.087 209.27 594.562 206.744 591.446 206.744C588.33 206.744 585.804 209.27 585.804 212.386C585.804 215.501 588.33 218.027 591.446 218.027Z" fill="#5200D9" stroke="black" stroke-linecap="round" stroke-linejoin="round"/>
<path d="M646.72 462.336H450.172V606.169H646.72V462.336Z" fill="#263238" stroke="#263238" stroke-linecap="round" stroke-linejoin="round"/>
<path opacity="0.25" d="M637.239 469.271H459.653V599.234H637.239V469.271Z" fill="white" stroke="#263238" stroke-linecap="round" stroke-linejoin="round"/>
<path d="M567.655 600.638H532.402V628.832H567.655V600.638Z" fill="#263238" stroke="#263238" stroke-linecap="round" stroke-linejoin="round"/>
<path d="M464.923 488.838H631.102" stroke="white" stroke-linecap="round" stroke-linejoin="round"/>
<path d="M466.946 520.059H506.616" stroke="white" stroke-linecap="round" stroke-linejoin="round"/>
<path d="M491.741 531.136H514.28" stroke="white" stroke-linecap="round" stroke-linejoin="round"/>
<path d="M466.946 531.136H488.59" stroke="white" stroke-linecap="round" stroke-linejoin="round"/>
<path d="M503.919 542.213H542.241" stroke="white" stroke-linecap="round" stroke-linejoin="round"/>
<path d="M466.946 542.213H498.952" stroke="white" stroke-linecap="round" stroke-linejoin="round"/>
<path d="M466.946 553.29H489.939" stroke="white" stroke-linecap="round" stroke-linejoin="round"/>
<path d="M489.044 564.38H514.28" stroke="white" stroke-linecap="round" stroke-linejoin="round"/>
<path d="M466.946 564.38H482.729" stroke="white" stroke-linecap="round" stroke-linejoin="round"/>
<path d="M553.95 575.457H565.22" stroke="white" stroke-linecap="round" stroke-linejoin="round"/>
<path d="M483.637 575.457H547.194" stroke="white" stroke-linecap="round" stroke-linejoin="round"/>
<path d="M466.946 575.457H478.669" stroke="white" stroke-linecap="round" stroke-linejoin="round"/>
<path d="M63.5986 414.713L85.9311 628.694" stroke="#263238" stroke-linecap="round" stroke-linejoin="round"/>
<path d="M85.4772 624.745L74.0977 612.788" stroke="#263238" stroke-linecap="round" stroke-linejoin="round"/>
<path d="M77.8539 616.696C77.8299 614.698 77.3778 612.728 76.5281 610.919C75.6783 609.11 74.4506 607.505 72.9279 606.211C69.7493 603.39 53.0722 596.358 51.476 602.234C49.7698 608.632 66.8597 621.182 77.8539 616.696Z" fill="#5200D9" stroke="#263238" stroke-linecap="round" stroke-linejoin="round"/>
<path d="M77.8542 616.696L61.9614 606.788" stroke="#263238" stroke-linecap="round" stroke-linejoin="round"/>
<path d="M77.7579 550.427L66.5435 540.328" stroke="#263238" stroke-linecap="round" stroke-linejoin="round"/>
<path d="M70.2859 544.235C70.2625 542.24 69.812 540.274 68.9646 538.467C68.1173 536.661 66.8928 535.057 65.3736 533.764C62.2088 530.93 45.5179 523.912 43.9355 529.787C42.2155 536.172 59.2916 548.735 70.2859 544.235Z" fill="#5200D9" stroke="#263238" stroke-linecap="round" stroke-linejoin="round"/>
<path d="M70.2863 544.235L54.4072 534.342" stroke="#263238" stroke-linecap="round" stroke-linejoin="round"/>
<path d="M80.8811 581.993L69.6392 570.022" stroke="#263238" stroke-linecap="round" stroke-linejoin="round"/>
<path d="M73.3958 573.93C73.3681 571.934 72.9142 569.967 72.0647 568.161C71.2151 566.355 69.9894 564.752 68.4698 563.458C65.305 560.624 48.6141 553.606 47.0317 559.482C45.3117 565.866 62.3878 578.429 73.3958 573.93Z" fill="#5200D9" stroke="#263238" stroke-linecap="round" stroke-linejoin="round"/>
<path d="M73.3957 573.93L57.5029 564.036" stroke="#263238" stroke-linecap="round" stroke-linejoin="round"/>
<path d="M72.763 503.561L61.5073 492.099" stroke="#263238" stroke-linecap="round" stroke-linejoin="round"/>
<path d="M65.2637 496.007C65.2352 494.009 64.7811 492.041 63.9317 490.233C63.0822 488.425 61.8569 486.819 60.3376 485.522C57.1728 482.701 40.4819 475.683 38.8995 481.559C37.152 487.943 54.2557 500.493 65.2637 496.007Z" fill="#5200D9" stroke="#263238" stroke-linecap="round" stroke-linejoin="round"/>
<path d="M65.2634 496.007L49.3706 486.113" stroke="#263238" stroke-linecap="round" stroke-linejoin="round"/>
<path d="M67.3413 451.988L56.4434 443.65" stroke="#263238" stroke-linecap="round" stroke-linejoin="round"/>
<path d="M60.1999 447.558C60.1766 445.563 59.7261 443.596 58.8787 441.79C58.0314 439.983 56.8069 438.38 55.2876 437.086C52.1091 434.252 35.4319 427.234 33.8495 433.11C32.1295 439.508 49.2057 452.057 60.1999 447.558Z" fill="#5200D9" stroke="#263238" stroke-linecap="round" stroke-linejoin="round"/>
<path d="M60.1998 447.558L44.3208 437.664" stroke="#263238" stroke-linecap="round" stroke-linejoin="round"/>
<path d="M84.3765 608.261L93.7745 592.946" stroke="#263238" stroke-linecap="round" stroke-linejoin="round"/>
<path d="M90.8986 597.542C90.5155 595.584 90.5555 593.566 91.0159 591.625C91.4763 589.684 92.3465 587.863 93.5681 586.286C96.0862 582.86 110.961 572.526 113.726 577.961C116.712 583.864 102.595 599.675 90.8986 597.542Z" fill="#5200D9" stroke="#263238" stroke-linecap="round" stroke-linejoin="round"/>
<path d="M90.8984 597.542L102.085 587.057" stroke="#263238" stroke-linecap="round" stroke-linejoin="round"/>
<path d="M76.2168 530.131L85.6149 514.817" stroke="#263238" stroke-linecap="round" stroke-linejoin="round"/>
<path d="M82.7526 519.413C82.3627 517.454 82.3967 515.435 82.8524 513.492C83.3081 511.548 84.1749 509.724 85.3945 508.143C87.9126 504.717 99.5535 496.144 102.319 501.566C105.319 507.455 94.4348 521.504 82.7526 519.413Z" fill="#5200D9" stroke="#263238" stroke-linecap="round" stroke-linejoin="round"/>
<path d="M82.7524 519.413L97.0491 505.735" stroke="#263238" stroke-linecap="round" stroke-linejoin="round"/>
<path d="M72.6392 495.787L82.0235 480.472" stroke="#263238" stroke-linecap="round" stroke-linejoin="round"/>
<path d="M79.1612 485.067C78.7761 483.11 78.8139 481.094 79.2719 479.152C79.7299 477.211 80.5976 475.39 81.8169 473.812C84.3349 470.386 99.2095 460.052 101.975 465.556C104.975 471.39 90.8159 487.2 79.1612 485.067Z" fill="#5200D9" stroke="#263238" stroke-linecap="round" stroke-linejoin="round"/>
<path d="M79.1611 485.067L93.4715 471.404" stroke="#263238" stroke-linecap="round" stroke-linejoin="round"/>
<path d="M67.3828 445.452L76.7809 430.138" stroke="#263238" stroke-linecap="round" stroke-linejoin="round"/>
<path d="M73.9051 434.733C73.5198 432.774 73.5574 430.755 74.0154 428.812C74.4734 426.868 75.3412 425.045 76.5608 423.464C79.0789 420.038 93.9534 409.704 96.7192 415.208C99.7189 421.056 85.6011 436.853 73.9051 434.733Z" fill="#5200D9" stroke="#263238" stroke-linecap="round" stroke-linejoin="round"/>
<path d="M73.9048 434.733L88.2152 421.056" stroke="#263238" stroke-linecap="round" stroke-linejoin="round"/>
<path d="M63.3648 413.268C62.9797 411.307 63.0199 409.286 63.4828 407.342C63.9457 405.398 64.8205 403.576 66.048 401.998C68.566 398.572 83.4406 388.238 86.1926 393.742C89.1785 399.577 75.0608 415.387 63.3648 413.268Z" fill="#5200D9" stroke="#263238" stroke-linecap="round" stroke-linejoin="round"/>
<path d="M63.3647 413.268L77.6751 399.59" stroke="#263238" stroke-linecap="round" stroke-linejoin="round"/>
<path d="M64.1906 413.86C62.2032 414.037 60.2007 413.789 58.3168 413.132C56.4328 412.475 54.7106 411.423 53.2651 410.048C50.1278 407.172 41.4315 391.307 47.1144 389.119C53.2926 386.752 67.5343 402.453 64.1906 413.86Z" fill="#5200D9" stroke="#263238" stroke-linecap="round" stroke-linejoin="round"/>
<path d="M64.1903 413.86L52.0952 398.201" stroke="#263238" stroke-linecap="round" stroke-linejoin="round"/>
<path d="M104.411 344.358V629.245" stroke="#263238" stroke-linecap="round" stroke-linejoin="round"/>
<path d="M135.467 450.667L116.781 628.35" stroke="#263238" stroke-linecap="round" stroke-linejoin="round"/>
<path d="M121.749 583.878L112.447 576.104" stroke="#263238" stroke-linecap="round" stroke-linejoin="round"/>
<path d="M115.336 578.801C115.726 576.842 115.692 574.823 115.236 572.88C114.78 570.936 113.914 569.112 112.694 567.531C110.176 564.105 95.2877 553.771 92.5219 559.275C89.5223 565.123 103.654 580.933 115.336 578.801Z" fill="#5200D9" stroke="#263238" stroke-linecap="round" stroke-linejoin="round"/>
<path d="M115.336 578.801L101.838 565.839" stroke="#263238" stroke-linecap="round" stroke-linejoin="round"/>
<path d="M118.281 616.682L109.392 603.899" stroke="#263238" stroke-linecap="round" stroke-linejoin="round"/>
<path d="M112.268 608.495C112.659 606.529 112.625 604.502 112.167 602.551C111.708 600.6 110.837 598.77 109.612 597.184C107.094 593.758 92.2057 583.424 89.4399 588.928C86.4402 594.817 100.572 610.628 112.268 608.495Z" fill="#5200D9" stroke="#263238" stroke-linecap="round" stroke-linejoin="round"/>
<path d="M112.268 608.495L98.7554 595.533" stroke="#263238" stroke-linecap="round" stroke-linejoin="round"/>
<path d="M126.454 536.31L117.483 525.962" stroke="#263238" stroke-linecap="round" stroke-linejoin="round"/>
<path d="M120.345 530.558C120.734 528.599 120.698 526.579 120.24 524.635C119.782 522.691 118.912 520.868 117.689 519.289C115.171 515.876 100.297 505.529 97.5307 511.033C94.5311 516.894 108.704 532.691 120.345 530.558Z" fill="#5200D9" stroke="#263238" stroke-linecap="round" stroke-linejoin="round"/>
<path d="M120.345 530.558L106.846 517.61" stroke="#263238" stroke-linecap="round" stroke-linejoin="round"/>
<path d="M131.16 490.971L122.505 477.513" stroke="#263238" stroke-linecap="round" stroke-linejoin="round"/>
<path d="M125.381 482.109C125.766 480.152 125.728 478.135 125.27 476.194C124.812 474.253 123.945 472.432 122.725 470.853C120.207 467.427 105.319 457.093 102.553 462.597C99.5535 468.445 113.685 484.242 125.381 482.109Z" fill="#5200D9" stroke="#263238" stroke-linecap="round" stroke-linejoin="round"/>
<path d="M125.381 482.109L111.869 469.161" stroke="#263238" stroke-linecap="round" stroke-linejoin="round"/>
<path d="M124.046 566.21L136.389 553.152" stroke="#263238" stroke-linecap="round" stroke-linejoin="round"/>
<path d="M132.646 557.06C132.67 555.065 133.12 553.098 133.968 551.292C134.815 549.486 136.04 547.882 137.559 546.589C140.724 543.754 157.401 536.723 158.997 542.598C160.717 549.024 143.641 561.546 132.646 557.06Z" fill="#5200D9" stroke="#263238" stroke-linecap="round" stroke-linejoin="round"/>
<path d="M132.646 557.06L149.461 546.63" stroke="#263238" stroke-linecap="round" stroke-linejoin="round"/>
<path d="M127.61 531.865L139.953 518.821" stroke="#263238" stroke-linecap="round" stroke-linejoin="round"/>
<path d="M136.224 522.729C136.246 520.731 136.696 518.762 137.544 516.954C138.391 515.145 139.616 513.539 141.136 512.244C144.301 509.409 160.978 502.378 162.575 508.253C164.281 514.624 147.232 527.214 136.224 522.729Z" fill="#5200D9" stroke="#263238" stroke-linecap="round" stroke-linejoin="round"/>
<path d="M136.21 522.729L153.025 512.299" stroke="#263238" stroke-linecap="round" stroke-linejoin="round"/>
<path d="M132.701 478.958L145.181 468.473" stroke="#263238" stroke-linecap="round" stroke-linejoin="round"/>
<path d="M141.439 472.381C141.462 470.387 141.91 468.421 142.755 466.615C143.6 464.809 144.822 463.205 146.338 461.909C149.516 459.075 166.193 452.043 167.776 457.919C169.509 464.304 152.433 476.867 141.439 472.381Z" fill="#5200D9" stroke="#263238" stroke-linecap="round" stroke-linejoin="round"/>
<path d="M141.439 472.381L158.24 461.951" stroke="#263238" stroke-linecap="round" stroke-linejoin="round"/>
<path d="M135.536 449.209C135.558 447.212 136.008 445.243 136.856 443.434C137.703 441.625 138.928 440.019 140.448 438.724C143.613 435.889 160.29 428.858 161.887 434.733C163.607 441.132 146.53 453.695 135.536 449.209Z" fill="#5200D9" stroke="#263238" stroke-linecap="round" stroke-linejoin="round"/>
<path d="M135.536 449.209L152.351 438.765" stroke="#263238" stroke-linecap="round" stroke-linejoin="round"/>
<path d="M136.224 449.952C134.241 449.72 132.33 449.066 130.621 448.034C128.912 447.001 127.444 445.614 126.317 443.966C123.826 440.526 118.584 423.189 124.597 422.226C131.133 421.18 141.838 439.481 136.224 449.952Z" fill="#5200D9" stroke="#263238" stroke-linecap="round" stroke-linejoin="round"/>
<path d="M136.224 449.952L127.61 432.133" stroke="#263238" stroke-linecap="round" stroke-linejoin="round"/>
<path d="M103.957 624.277L93.7466 610.627" stroke="#263238" stroke-linecap="round" stroke-linejoin="round"/>
<path d="M97.0766 614.893C97.2589 612.905 97.013 610.902 96.3555 609.017C95.698 607.132 94.6442 605.411 93.2651 603.968C90.403 600.817 74.5377 592.107 72.3636 597.789C69.9832 603.968 85.6696 618.223 97.0766 614.893Z" fill="#5200D9" stroke="#263238" stroke-linecap="round" stroke-linejoin="round"/>
<path d="M97.0766 614.893L82.2983 603.404" stroke="#263238" stroke-linecap="round" stroke-linejoin="round"/>
<path d="M104.314 558.422L93.7466 548.57" stroke="#263238" stroke-linecap="round" stroke-linejoin="round"/>
<path d="M97.0766 552.849C97.2589 550.862 97.013 548.858 96.3555 546.973C95.698 545.089 94.6442 543.367 93.2651 541.924C90.403 538.773 74.5377 530.063 72.3636 535.746C69.9832 541.924 85.6696 556.179 97.0766 552.849Z" fill="#5200D9" stroke="#263238" stroke-linecap="round" stroke-linejoin="round"/>
<path d="M97.0766 552.849L82.2983 541.36" stroke="#263238" stroke-linecap="round" stroke-linejoin="round"/>
<path d="M104.672 489.98L93.7466 475.724" stroke="#263238" stroke-linecap="round" stroke-linejoin="round"/>
<path d="M97.0766 480.004C97.2591 478.014 97.0134 476.008 96.3559 474.121C95.6985 472.234 94.6446 470.51 93.2651 469.065C90.403 465.927 74.5377 457.217 72.3636 462.886C69.9832 469.065 85.6696 483.334 97.0766 480.004Z" fill="#5200D9" stroke="#263238" stroke-linecap="round" stroke-linejoin="round"/>
<path d="M97.0766 480.004L82.2983 468.514" stroke="#263238" stroke-linecap="round" stroke-linejoin="round"/>
<path d="M103.957 436.44L93.7466 427.234" stroke="#263238" stroke-linecap="round" stroke-linejoin="round"/>
<path d="M97.0766 431.514C97.2692 429.513 97.0284 427.494 96.3707 425.594C95.713 423.695 94.6538 421.959 93.2651 420.506C90.403 417.368 74.5377 408.644 72.3636 414.327C69.9832 420.574 85.6696 434.816 97.0766 431.514Z" fill="#5200D9" stroke="#263238" stroke-linecap="round" stroke-linejoin="round"/>
<path d="M97.0766 431.514L82.2983 420.01" stroke="#263238" stroke-linecap="round" stroke-linejoin="round"/>
<path d="M104.548 387.922L93.9531 380.147" stroke="#263238" stroke-linecap="round" stroke-linejoin="round"/>
<path d="M97.0766 382.803C97.2591 380.813 97.0134 378.808 96.3559 376.921C95.6985 375.034 94.6446 373.31 93.2651 371.864C90.403 368.727 74.5377 360.017 72.3636 365.686C69.9832 371.864 85.6696 386.133 97.0766 382.803Z" fill="#5200D9" stroke="#263238" stroke-linecap="round" stroke-linejoin="round"/>
<path d="M97.0766 382.803L82.2983 371.314" stroke="#263238" stroke-linecap="round" stroke-linejoin="round"/>
<path d="M104.438 545.144L115.364 530.888" stroke="#263238" stroke-linecap="round" stroke-linejoin="round"/>
<path d="M112.034 535.168C111.855 533.182 112.103 531.182 112.76 529.3C113.418 527.418 114.469 525.698 115.845 524.256C118.694 521.119 134.573 512.395 136.747 518.078C139.127 524.256 123.441 538.484 112.034 535.168Z" fill="#5200D9" stroke="#263238" stroke-linecap="round" stroke-linejoin="round"/>
<path d="M112.034 535.168L127.679 523.045" stroke="#263238" stroke-linecap="round" stroke-linejoin="round"/>
<path d="M104.438 496.433L115.364 482.178" stroke="#263238" stroke-linecap="round" stroke-linejoin="round"/>
<path d="M112.034 486.457C111.852 484.467 112.097 482.462 112.755 480.575C113.412 478.688 114.466 476.964 115.846 475.518C118.694 472.381 134.573 463.671 136.747 469.34C139.128 475.518 123.441 489.856 112.034 486.457Z" fill="#5200D9" stroke="#263238" stroke-linecap="round" stroke-linejoin="round"/>
<path d="M112.034 486.457L127.679 474.349" stroke="#263238" stroke-linecap="round" stroke-linejoin="round"/>
<path d="M104.438 432.064L115.364 417.795" stroke="#263238" stroke-linecap="round" stroke-linejoin="round"/>
<path d="M112.034 422.074C111.852 420.087 112.098 418.083 112.755 416.198C113.413 414.314 114.466 412.592 115.845 411.149C118.694 407.998 134.573 399.288 136.747 404.971C139.127 411.149 123.441 425.404 112.034 422.074Z" fill="#5200D9" stroke="#263238" stroke-linecap="round" stroke-linejoin="round"/>
<path d="M112.034 422.074L127.679 409.965" stroke="#263238" stroke-linecap="round" stroke-linejoin="round"/>
<path d="M104.906 376.501L115.625 368.135" stroke="#263238" stroke-linecap="round" stroke-linejoin="round"/>
<path d="M112.034 371.52C111.839 369.519 112.079 367.5 112.737 365.6C113.395 363.7 114.455 361.964 115.845 360.512C118.694 357.361 134.573 348.651 136.747 354.334C139.127 360.512 123.441 374.795 112.034 371.52Z" fill="#5200D9" stroke="#263238" stroke-linecap="round" stroke-linejoin="round"/>
<path d="M112.034 371.465L127.679 359.356" stroke="#263238" stroke-linecap="round" stroke-linejoin="round"/>
<path d="M103.778 349.022C103.585 347.022 103.824 345.004 104.479 343.105C105.134 341.206 106.19 339.469 107.576 338.014C110.438 334.877 126.303 326.153 128.491 331.836C130.871 338.083 115.185 352.352 103.778 349.022Z" fill="#5200D9" stroke="#263238" stroke-linecap="round" stroke-linejoin="round"/>
<path d="M103.778 349.022L119.423 336.9" stroke="#263238" stroke-linecap="round" stroke-linejoin="round"/>
<path d="M104.576 349.697C102.579 349.669 100.611 349.214 98.8049 348.362C96.9987 347.51 95.3959 346.28 94.1047 344.757C91.2701 341.592 84.2663 324.901 90.1418 323.319C96.5127 321.599 109.048 338.702 104.576 349.697Z" fill="#5200D9" stroke="#263238" stroke-linecap="round" stroke-linejoin="round"/>
<path d="M104.549 349.697L94.1323 332.854" stroke="#263238" stroke-linecap="round" stroke-linejoin="round"/>
<path d="M609.568 629.754H648.096" stroke="#263238" stroke-linecap="round" stroke-linejoin="round"/>
<path d="M44.4858 629.754H594.432" stroke="#263238" stroke-linecap="round" stroke-linejoin="round"/>
<path d="M371.038 87.8301C371.04 81.1847 369.442 74.6366 366.377 68.7398C363.313 62.8429 358.874 57.7709 353.435 53.9528C347.996 50.1346 341.717 47.6827 335.13 46.8045C328.543 45.9263 321.841 46.6476 315.592 48.9074C309.342 51.1672 303.729 54.8989 299.227 59.787C294.725 64.6751 291.467 70.5756 289.728 76.9894C287.989 83.4032 287.82 90.1415 289.236 96.6343C290.652 103.127 293.611 109.183 297.863 114.291C303.96 121.605 307.296 130.829 307.288 140.352V146.021H352.022V140.352C352.015 130.848 355.346 121.644 361.434 114.346C367.649 106.909 371.049 97.522 371.038 87.8301Z" fill="white" stroke="#263238" stroke-width="2" stroke-linecap="round" stroke-linejoin="round"/>
<path d="M352.022 146.007H307.288V157.07H352.022V146.007Z" fill="white" stroke="#263238" stroke-width="2" stroke-linecap="round" stroke-linejoin="round"/>
<path d="M307.288 157.098H352.022V161.666C352.022 163.392 351.336 165.048 350.115 166.268C348.895 167.489 347.239 168.175 345.513 168.175H313.728C312.002 168.175 310.346 167.489 309.126 166.268C307.905 165.048 307.219 163.392 307.219 161.666V157.098H307.288Z" fill="white" stroke="#263238" stroke-width="2" stroke-linecap="round" stroke-linejoin="round"/>
<path d="M312.93 168.147H346.366V170.39C346.366 171.548 346.138 172.695 345.695 173.765C345.252 174.836 344.602 175.808 343.783 176.627C342.964 177.446 341.992 178.096 340.922 178.539C339.852 178.982 338.705 179.21 337.546 179.21H321.75C319.411 179.21 317.167 178.281 315.513 176.627C313.859 174.973 312.93 172.729 312.93 170.39V168.147Z" fill="white" stroke="#263238" stroke-width="2" stroke-linecap="round" stroke-linejoin="round"/>
<path d="M376.9 88.0365H395.861" stroke="#263238" stroke-width="2" stroke-linecap="round" stroke-linejoin="round"/>
<path d="M261.674 88.0365H280.869" stroke="#263238" stroke-width="2" stroke-linecap="round" stroke-linejoin="round"/>
<path d="M328.768 39.959V20.9565" stroke="#263238" stroke-width="2" stroke-linecap="round" stroke-linejoin="round"/>
<path d="M363.126 53.6778L376.212 40.6058" stroke="#263238" stroke-width="2" stroke-linecap="round" stroke-linejoin="round"/>
<path d="M281.323 135.481L294.602 122.203" stroke="#263238" stroke-width="2" stroke-linecap="round" stroke-linejoin="round"/>
<path d="M294.037 53.3063L281.323 40.6058" stroke="#263238" stroke-width="2" stroke-linecap="round" stroke-linejoin="round"/>
<path d="M376.212 135.481L363.553 122.836" stroke="#263238" stroke-width="2" stroke-linecap="round" stroke-linejoin="round"/>
<path d="M478.573 266.738C478.573 266.738 469.244 246.579 468.115 244.722C466.987 242.864 465.872 231.65 466.629 228.292C467.386 224.935 476.702 213.363 476.702 213.363C476.702 213.363 477.816 189.489 479.316 183.091C480.816 176.692 480.059 171.147 483.788 170.019C487.517 168.89 488.645 169.276 489.017 174.147C489.388 179.018 488.274 190.562 488.274 191.677C488.274 192.791 490.131 209.964 490.131 209.964C490.131 209.964 507.675 227.852 509.547 229.751C511.418 231.65 514.39 235.723 511.404 245.423C509.598 251.273 506.683 256.72 502.818 261.468L504.318 268.939L478.573 270.797V266.738Z" fill="white" stroke="#263238" stroke-linecap="round" stroke-linejoin="round"/>
<path d="M476.701 257.037C476.701 257.037 467.744 247.336 465.129 241.736C462.515 236.135 463.272 222.706 464.386 220.834C465.501 218.963 474.459 214.491 476.701 213.363C478.944 212.234 494.245 211.133 497.603 209.235C500.96 207.336 504.689 212.964 499.846 217.821C495.002 222.678 480.43 226.779 480.43 226.779C480.43 226.779 491.259 234.236 488.686 245.066" fill="white"/>
<path d="M476.701 257.037C476.701 257.037 467.744 247.336 465.129 241.736C462.515 236.135 463.272 222.706 464.386 220.834C465.501 218.963 474.459 214.491 476.701 213.363C478.944 212.234 494.245 211.133 497.603 209.235C500.96 207.336 504.689 212.964 499.846 217.821C495.002 222.678 480.43 226.779 480.43 226.779C480.43 226.779 491.259 234.236 488.686 245.066" stroke="#263238" stroke-linecap="round" stroke-linejoin="round"/>
<path d="M504.552 211.422C504.552 211.422 496.929 232.062 500.561 234.677C504.194 237.291 508.556 236.493 509.643 232.503C510.73 228.512 516.523 218.743 515.821 213.596C515.119 208.45 508.556 206.4 504.552 211.422Z" fill="white" stroke="#263238" stroke-linecap="round" stroke-linejoin="round"/>
<path d="M514.349 218.33C514.349 218.33 508.171 235.103 511.115 237.167C514.06 239.231 517.596 238.64 518.477 235.406C519.358 232.172 524.063 224.219 523.486 220.091C522.908 215.963 517.596 214.202 514.349 218.33Z" fill="white" stroke="#263238" stroke-linecap="round" stroke-linejoin="round"/>
<path d="M495.731 205.533C495.731 205.533 487.902 226.806 491.603 229.421C495.305 232.035 499.859 231.278 500.933 227.178C502.006 223.077 508.019 212.991 507.276 207.776C506.533 202.561 499.845 200.304 495.731 205.533Z" fill="white" stroke="#263238" stroke-linecap="round" stroke-linejoin="round"/>
<path d="M477.073 278.681L474.458 262.637L506.561 259.637L512.147 278.681H477.073Z" fill="#5200D9" stroke="#263238" stroke-linecap="round" stroke-linejoin="round"/>
<path d="M219.568 629.754L242.864 513.936L251.808 629.754H417.63C417.822 622.296 420.382 522.894 419.68 505.68C418.992 487.792 427.936 457.52 427.936 457.52C427.936 457.52 538.704 434.128 553.152 424.496C567.6 414.864 559.344 402.48 557.968 395.6C556.592 388.72 516 281.392 514.624 276.576C513.248 271.76 507.056 272.448 500.864 272.448C494.672 272.448 473.344 273.824 473.344 277.952C473.344 282.08 485.04 382.528 485.04 382.528H479.536L477.472 387.344L447.888 381.152C447.888 381.152 425.872 364.64 418.304 363.952L366.016 359.136H289.648C289.648 359.136 204.336 399.04 198.144 406.608C191.952 414.176 191.952 439.632 191.952 439.632L172.688 629.754H219.568Z" fill="#5200D9" stroke="#263238" stroke-linecap="round" stroke-linejoin="round"/>
<path d="M372.965 573.985L379.776 564.848" stroke="#263238" stroke-linecap="round" stroke-linejoin="round"/>
<path d="M333.941 626.41C345.376 609.568 357.76 594.432 369.786 578.264" stroke="#263238" stroke-linecap="round" stroke-linejoin="round"/>
<path d="M384.606 567.27C378.483 578.498 368.424 595.313 357.086 607.504" stroke="#263238" stroke-linecap="round" stroke-linejoin="round"/>
<path d="M390.784 555.216C390.784 555.216 389.518 557.968 387.261 562.275" stroke="#263238" stroke-linecap="round" stroke-linejoin="round"/>
<path d="M438.353 417.52L442.618 401.104" stroke="#263238" stroke-linecap="round" stroke-linejoin="round"/>
<path d="M427.936 457.52L436.853 423.299" stroke="#263238" stroke-linecap="round" stroke-linejoin="round"/>
<path d="M432.408 440.141L450.282 406.938" stroke="#263238" stroke-linecap="round" stroke-linejoin="round"/>
<path d="M502.735 405.26C503.451 406.36 504.084 407.406 504.634 408.397" stroke="#263238" stroke-linecap="round" stroke-linejoin="round"/>
<path d="M491.136 406.938C486.956 399.493 484.851 391.064 485.04 382.528C485.04 382.528 493.035 391.596 499.323 400.278" stroke="#263238" stroke-linecap="round" stroke-linejoin="round"/>
<path d="M224.563 436.068C222.788 432.284 221.371 429.45 221.371 429.45" stroke="#263238" stroke-linecap="round" stroke-linejoin="round"/>
<path d="M242.864 513.936C242.864 513.936 233.136 457.864 230.673 450.516C229.792 447.847 228.32 444.338 226.806 440.884" stroke="#263238" stroke-linecap="round" stroke-linejoin="round"/>
<path d="M227.04 463.836C225.047 459.777 222.847 455.823 220.449 451.988L208.203 434.348" stroke="#263238" stroke-linecap="round" stroke-linejoin="round"/>
<path d="M238.048 486.278C238.048 486.278 233.494 476.646 228.843 467.441" stroke="#263238" stroke-linecap="round" stroke-linejoin="round"/>
<path d="M310.522 395.834L325.19 417.382L304.55 579.75L331.616 606.362L352.256 575.168L334.822 415.552L349.504 393.536L327.942 376.102L310.522 395.834Z" fill="#263238" stroke="#263238" stroke-linecap="round" stroke-linejoin="round"/>
<path d="M324.282 387.11L297.67 416.928L283.91 365.094L294.464 348.128L303.174 347.206L357.306 348.128L375.194 364.64L363.264 415.098L333.446 385.28L324.282 387.11Z" fill="#5200D9" stroke="#263238" stroke-linecap="round" stroke-linejoin="round"/>
<path d="M295.84 329.318L297.67 356.384C297.67 356.384 324.282 391.238 327.942 391.238C331.602 391.238 357.306 354.086 357.306 354.086L357.76 330.694L295.84 329.318Z" fill="white" stroke="#263238" stroke-linecap="round" stroke-linejoin="round"/>
<path d="M283.002 292.166C283.002 292.166 277.952 276.576 271.526 286.662C265.1 296.748 279.328 312.352 282.08 314.182L284.832 316.026L283.002 292.166Z" fill="white" stroke="#263238" stroke-linecap="round" stroke-linejoin="round"/>
<path d="M372.442 292.166C372.442 292.166 377.478 276.576 383.904 286.662C390.33 296.748 376.102 312.352 373.35 314.182L370.598 316.026L372.442 292.166Z" fill="white" stroke="#263238" stroke-linecap="round" stroke-linejoin="round"/>
<path d="M282.08 290.336C282.08 290.336 283.456 321.984 288.272 328.864C293.088 335.744 309.6 352.944 321.984 355.696C334.368 358.448 339.184 355.696 348.816 349.504C358.448 343.312 371.52 330.928 372.896 323.36C374.272 315.792 374.272 284.144 374.272 284.144L371.52 251.12C371.52 251.12 370.144 231.856 346.752 223.6C323.36 215.344 304.784 209.84 297.216 223.6C289.648 237.36 280.016 252.496 280.016 252.496L282.08 290.336Z" fill="white" stroke="#263238" stroke-linecap="round" stroke-linejoin="round"/>
<path d="M321.296 314.113C326.064 315.267 331.019 315.415 335.848 314.548C340.676 313.681 345.27 311.818 349.339 309.077" stroke="#263238" stroke-linecap="round" stroke-linejoin="round"/>
<path d="M300.45 282.479L313.398 285.355" stroke="#263238" stroke-linecap="round" stroke-linejoin="round"/>
<path d="M346.463 286.07L361.558 281.764" stroke="#263238" stroke-linecap="round" stroke-linejoin="round"/>
<path d="M308.224 233.92C308.224 233.92 306.848 249.056 298.592 255.248L284.832 265.568L286.208 291.024L282.08 290.336L280.016 273.824C280.016 273.824 271.76 251.808 271.76 235.984C271.76 220.16 284.144 210.528 288.96 209.84C293.079 209.464 297.224 209.464 301.344 209.84C301.344 209.84 310.976 196.08 336.432 194.704C361.888 193.328 381.84 220.16 379.088 224.976L376.336 229.792C379.738 236.155 381.621 243.22 381.84 250.432C381.84 261.44 374.96 271.76 374.96 271.76V293.088L369.456 269.696C369.456 269.696 364.64 255.248 363.264 252.496C361.888 249.744 347.44 251.12 339.184 247.68C330.928 244.24 324.736 234.608 324.736 234.608C324.736 234.608 331.616 247.68 326.112 247.68C320.608 247.68 308.224 233.92 308.224 233.92Z" fill="#263238" stroke="#263238" stroke-linecap="round" stroke-linejoin="round"/>
<path d="M359.136 301.344C353.632 298.592 330.694 292.634 330.694 292.634C330.694 292.634 303.642 299.968 299.514 304.55C295.386 309.132 299.046 332.07 303.642 340.794C308.238 349.518 313.274 356.838 327.488 357.306C341.702 357.774 356.384 349.504 358.682 341.248C360.98 332.992 364.64 304.096 359.136 301.344ZM350.426 334.368C346.752 340.794 338.496 340.326 338.042 336.666C337.588 333.006 337.574 328.864 332.992 328.864C328.41 328.864 329.786 330.694 330.24 335.744C330.694 340.794 324.282 344.454 317.402 340.326C310.522 336.198 307.302 319.232 307.302 313.728C307.302 308.224 331.162 300.422 331.162 300.422C331.162 300.422 351.334 301.344 354.086 306.848C356.838 312.352 354.086 327.942 350.426 334.368Z" fill="#263238" stroke="#263238" stroke-linecap="round" stroke-linejoin="round"/>
<path d="M310.742 279.782C311.882 279.782 312.806 277.731 312.806 275.2C312.806 272.669 311.882 270.618 310.742 270.618C309.602 270.618 308.678 272.669 308.678 275.2C308.678 277.731 309.602 279.782 310.742 279.782Z" fill="#263238"/>
<path d="M347.44 279.782C348.58 279.782 349.504 277.731 349.504 275.2C349.504 272.669 348.58 270.618 347.44 270.618C346.3 270.618 345.376 272.669 345.376 275.2C345.376 277.731 346.3 279.782 347.44 279.782Z" fill="#263238"/>
<path d="M301.344 262.362C301.344 262.362 306.394 252.73 321.53 255.936" stroke="#263238" stroke-width="4" stroke-linecap="round" stroke-linejoin="round"/>
<path d="M340.326 255.014C340.326 255.014 351.802 249.978 361.434 260.986" stroke="#263238" stroke-width="4" stroke-linecap="round" stroke-linejoin="round"/>
<path d="M336.666 259.142L337.574 295.386L320.154 290.79" fill="white"/>
<path d="M336.666 259.142L337.574 295.386L320.154 290.79" stroke="#263238" stroke-linecap="round" stroke-linejoin="round"/>
</svg>
