<svg width="200" height="200" viewBox="0 0 200 200" fill="none" xmlns="http://www.w3.org/2000/svg">
<path d="M200 152.96H0V153.06H200V152.96Z" fill="#EBEBEB"/>
<path d="M179.96 159.396H166.712V159.496H179.96V159.396Z" fill="#EBEBEB"/>
<path d="M132.488 160.484H129.012V160.584H132.488V160.484Z" fill="#EBEBEB"/>
<path d="M166.312 155.684H158.636V155.784H166.312V155.684Z" fill="#EBEBEB"/>
<path d="M38.2599 156.356H20.9839V156.456H38.2599V156.356Z" fill="#EBEBEB"/>
<path d="M44.3562 156.356H41.8242V156.456H44.3562V156.356Z" fill="#EBEBEB"/>
<path d="M90.0599 158.044H52.5879V158.144H90.0599V158.044Z" fill="#EBEBEB"/>
<path d="M94.8002 135.12H17.5642C16.9591 135.119 16.3792 134.878 15.9517 134.45C15.5243 134.021 15.2842 133.441 15.2842 132.836V24.264C15.2894 23.6624 15.5319 23.0872 15.9588 22.6633C16.3857 22.2394 16.9626 22.001 17.5642 22H94.8002C95.4059 22 95.9869 22.2406 96.4152 22.669C96.8435 23.0973 97.0842 23.6782 97.0842 24.284V132.836C97.0842 133.442 96.8435 134.023 96.4152 134.451C95.9869 134.879 95.4059 135.12 94.8002 135.12ZM17.5642 22.08C16.9856 22.0811 16.4312 22.3116 16.0224 22.7211C15.6137 23.1306 15.3842 23.6855 15.3842 24.264V132.836C15.3842 133.415 15.6137 133.969 16.0224 134.379C16.4312 134.788 16.9856 135.019 17.5642 135.02H94.8002C95.3791 135.019 95.934 134.788 96.3433 134.379C96.7527 133.97 96.9831 133.415 96.9842 132.836V24.264C96.9831 23.6851 96.7527 23.1302 96.3433 22.7208C95.934 22.3115 95.3791 22.0811 94.8002 22.08H17.5642Z" fill="#EBEBEB"/>
<path d="M181.324 135.12H104.084C103.478 135.119 102.898 134.878 102.47 134.45C102.042 134.022 101.801 133.441 101.8 132.836V24.264C101.806 23.662 102.049 23.0868 102.477 22.663C102.904 22.2392 103.482 22.001 104.084 22H181.324C181.925 22.0021 182.501 22.2409 182.927 22.6647C183.353 23.0885 183.595 23.6631 183.6 24.264V132.836C183.6 133.44 183.36 134.02 182.934 134.448C182.507 134.876 181.928 135.118 181.324 135.12ZM104.084 22.08C103.505 22.0811 102.95 22.3115 102.541 22.7208C102.131 23.1302 101.901 23.6851 101.9 24.264V132.836C101.901 133.415 102.131 133.97 102.541 134.379C102.95 134.788 103.505 135.019 104.084 135.02H181.324C181.903 135.019 182.458 134.788 182.867 134.379C183.276 133.97 183.507 133.415 183.508 132.836V24.264C183.507 23.6851 183.276 23.1302 182.867 22.7208C182.458 22.3115 181.903 22.0811 181.324 22.08H104.084Z" fill="#EBEBEB"/>
<path d="M76.5032 45.0403C81.5666 43.8452 84.7025 38.7717 83.5074 33.7083C82.3123 28.6449 77.2388 25.509 72.1754 26.7041C67.112 27.8992 63.9761 32.9727 65.1712 38.0361C66.3663 43.0995 71.4398 46.2354 76.5032 45.0403Z" fill="#E0E0E0"/>
<path d="M75.6263 43.7739C79.9941 43.0649 82.9601 38.9494 82.2511 34.5817C81.5421 30.214 77.4266 27.2479 73.0589 27.9569C68.6911 28.6659 65.7251 32.7814 66.4341 37.1491C67.1431 41.5169 71.2586 44.4829 75.6263 43.7739Z" fill="#F0F0F0"/>
<path d="M74.7158 30.372V35.972L78.4278 33.872" fill="#F0F0F0"/>
<path d="M74.7158 30.372V35.972L78.4278 33.872" stroke="#E0E0E0" stroke-width="2" stroke-linecap="round" stroke-linejoin="round"/>
<path d="M29.5121 138.112C29.5121 137.952 30.0521 122.24 32.6081 119.756C35.0921 117.356 37.9441 119.668 38.0641 119.756L38.3201 119.448C38.2881 119.42 35.0681 116.792 32.3201 119.448C29.6481 122.048 29.1201 137.424 29.1201 138.08L29.5121 138.112Z" fill="#E0E0E0"/>
<path d="M29.2959 141.2C29.2959 141.012 31.0399 122.336 24.2199 114.512L23.9199 114.772C30.6279 122.472 28.9159 140.976 28.8959 141.172L29.2959 141.2Z" fill="#E0E0E0"/>
<path d="M29.5482 139.224L29.9482 139.196C29.9482 138.988 28.6162 117.968 33.6162 113.368L33.3482 113.072C28.2002 117.804 29.4882 138.352 29.5482 139.224Z" fill="#E0E0E0"/>
<path d="M28.8959 139.2H29.2959C29.2959 138.624 29.1319 125.004 25.2639 122.8C24.8964 122.562 24.4772 122.416 24.0416 122.374C23.6059 122.331 23.1664 122.394 22.7599 122.556C20.4199 123.524 19.2599 127.684 19.2119 127.864L19.6119 127.968C19.6119 127.928 20.7679 123.816 22.9239 122.924C23.2746 122.787 23.6527 122.736 24.027 122.775C24.4013 122.814 24.7609 122.942 25.0759 123.148C28.7359 125.244 28.8959 139.072 28.8959 139.2Z" fill="#E0E0E0"/>
<path d="M30.3999 139.224L30.7999 139.2C30.7999 139.092 30.2159 128.44 33.0919 124.684C33.7879 123.776 34.5439 123.34 35.3439 123.396C37.2279 123.528 38.8079 126.284 38.8239 126.312L39.1719 126.116C39.1039 125.996 37.4719 123.144 35.3719 123C34.4359 122.932 33.5599 123.4 32.7759 124.44C29.8079 128.312 30.3759 138.8 30.3999 139.224Z" fill="#E0E0E0"/>
<path d="M29.7722 140.672C29.8482 139.64 31.6522 115.312 28.4802 111.024L28.1602 111.26C31.2442 115.428 29.3922 140.388 29.3602 140.64L29.7722 140.672Z" fill="#E0E0E0"/>
<path d="M21.8961 125.016C21.8961 125.016 23.8001 125.716 23.2321 127.372C22.6641 129.028 16.6561 131.752 16.6561 131.752C16.6561 131.752 14.1361 129.444 16.4521 125.688C18.7681 121.932 21.8441 123.832 21.8961 125.016Z" fill="#EBEBEB"/>
<path d="M30.1642 121.868C30.1642 121.868 28.1402 121.78 28.0242 123.528C27.9082 125.276 32.4242 130.1 32.4242 130.1C32.4242 130.1 35.6242 128.94 34.9482 124.584C34.2722 120.228 30.6682 120.8 30.1642 121.868Z" fill="#EBEBEB"/>
<path d="M31.876 113.512C31.876 113.512 30.528 113.368 30.636 112.548C30.744 111.728 35.884 109.608 38.916 113.028C38.916 113.028 36.976 116.364 34.168 116.408C31.36 116.452 31.876 113.512 31.876 113.512Z" fill="#EBEBEB"/>
<path d="M29.36 111.516C29.36 111.516 30.584 112.108 30.928 111.352C31.272 110.596 28.028 106.084 23.644 107.384C23.644 107.384 23.528 111.24 25.888 112.764C28.248 114.288 29.36 111.516 29.36 111.516Z" fill="#EBEBEB"/>
<path d="M35.7519 124.352C35.7519 124.352 34.8199 123.6 35.8279 123.232C36.8359 122.864 41.7639 122.968 41.8279 127.856C41.8279 127.856 36.0839 128.812 35.3719 126.948C34.6599 125.084 35.7519 124.352 35.7519 124.352Z" fill="#EBEBEB"/>
<path d="M24.0359 113.392C24.0359 113.392 24.9679 112.64 23.9639 112.272C22.9599 111.904 18.0239 112.008 17.9639 116.896C17.9639 116.896 23.7119 117.852 24.4199 115.988C25.1279 114.124 24.0359 113.392 24.0359 113.392Z" fill="#EBEBEB"/>
<path d="M27.0762 117.328C27.0762 117.328 27.1562 116.412 26.4162 116.772C25.6762 117.132 23.1082 119.904 25.7722 122.536C25.7722 122.536 29.3722 119.88 28.7162 118.496C28.0602 117.112 27.0762 117.328 27.0762 117.328Z" fill="#EBEBEB"/>
<path d="M36.5878 118.632C36.5878 118.632 36.0278 117.9 36.8438 117.812C37.6598 117.724 41.3158 118.696 40.4438 122.344C40.4438 122.344 35.9918 122.008 35.7998 120.496C35.6078 118.984 36.5878 118.632 36.5878 118.632Z" fill="#EBEBEB"/>
<path d="M21.5401 152.756H36.8201L38.4681 136.028H19.8921L21.5401 152.756Z" fill="#F0F0F0"/>
<path d="M19.0801 137.872H39.2881V134.18H19.0801V137.872Z" fill="#E6E6E6"/>
<path d="M54.532 57.712H18.272V59.576H54.532V57.712Z" fill="#E0E0E0"/>
<path d="M21.5359 50.844H19.9399V57.712H21.5359V50.844Z" fill="#EBEBEB"/>
<path d="M29.2601 50.844H27.6641V57.712H29.2601V50.844Z" fill="#EBEBEB"/>
<path d="M38.0333 50.6734L36.4604 50.9445L37.6271 57.7127L39.1999 57.4416L38.0333 50.6734Z" fill="#EBEBEB"/>
<path d="M23.5159 51.748H21.9199V57.712H23.5159V51.748Z" fill="#EBEBEB"/>
<path d="M27.1878 51.748H25.5918V57.712H27.1878V51.748Z" fill="#EBEBEB"/>
<path d="M36.4559 51.748H34.8599V57.712H36.4559V51.748Z" fill="#EBEBEB"/>
<path d="M31.3622 51.5422L29.8042 51.8885L31.0981 57.7104L32.6561 57.3642L31.3622 51.5422Z" fill="#EBEBEB"/>
<path d="M24.9001 50.504H24.1001V57.712H24.9001V50.504Z" fill="#EBEBEB"/>
<path d="M34.4001 50.504H33.6001V57.712H34.4001V50.504Z" fill="#EBEBEB"/>
<path d="M51.0521 52.276H43.2681V57.648H51.0521V52.276Z" fill="#EBEBEB"/>
<path d="M18.2722 73.48H54.5322V71.616H18.2722V73.48Z" fill="#E0E0E0"/>
<path d="M51.2678 71.616H52.8638V64.748H51.2678V71.616Z" fill="#EBEBEB"/>
<path d="M43.5441 71.616H45.1401V64.748H43.5441V71.616Z" fill="#EBEBEB"/>
<path d="M33.6123 71.3473L35.1851 71.6184L36.3517 64.8502L34.7789 64.5791L33.6123 71.3473Z" fill="#EBEBEB"/>
<path d="M49.2878 71.62H50.8838V65.656H49.2878V71.62Z" fill="#EBEBEB"/>
<path d="M45.6159 71.62H47.2119V65.656H45.6159V71.62Z" fill="#EBEBEB"/>
<path d="M36.3439 71.62H37.9399V65.656H36.3439V71.62Z" fill="#EBEBEB"/>
<path d="M40.1554 71.2687L41.7134 71.615L43.0073 65.793L41.4493 65.4468L40.1554 71.2687Z" fill="#EBEBEB"/>
<path d="M47.9041 71.616H48.7041V64.408H47.9041V71.616Z" fill="#EBEBEB"/>
<path d="M38.4002 71.616H39.2002V64.408H38.4002V71.616Z" fill="#EBEBEB"/>
<path d="M21.7521 71.556H29.5361V66.184H21.7521V71.556Z" fill="#EBEBEB"/>
<path d="M171.768 44.692H105.988V103.06H171.768V44.692Z" fill="#E6E6E6"/>
<path d="M170.036 46.292H107.636V101.492H170.036V46.292Z" fill="#F0F0F0"/>
<path d="M122.28 46.292L107.636 101.372V75.492L115.368 46.292H122.28Z" fill="white"/>
<path d="M127.468 46.292L112.696 101.492H110.336L125.112 46.292H127.468Z" fill="white"/>
<path d="M170.036 81.124V89.944L167.048 101.492H164.692L170.036 81.124Z" fill="white"/>
<path d="M129.404 45.3H128.352V102.724H129.404V45.3Z" fill="#E6E6E6"/>
<path d="M149.772 45.3H148.72V102.724H149.772V45.3Z" fill="#E6E6E6"/>
<path d="M177.104 142.84C177.186 142.667 177.226 142.477 177.22 142.286C177.214 142.095 177.162 141.908 177.069 141.741C176.975 141.573 176.844 141.431 176.684 141.325C176.525 141.219 176.342 141.153 176.152 141.132C176.32 140.639 176.334 140.107 176.191 139.607C176.048 139.106 175.755 138.661 175.352 138.332C175.255 138.243 175.131 138.188 175 138.176C174.861 138.191 174.73 138.248 174.624 138.34L172.392 139.94C172.214 140.049 172.063 140.198 171.952 140.376C171.496 141.26 173.152 142.376 172.464 143.12C172.268 143.328 171.956 143.372 171.716 143.52C171.184 143.852 171.12 144.58 170.872 145.156C170.624 145.732 169.764 146.176 169.432 145.644C169.676 145.092 168.94 144.62 168.34 144.548C167.74 144.476 167.116 144.444 166.784 143.884C165.936 144.624 164.032 142.556 164.076 141.72C163.38 141.772 162.904 142.428 162.752 143.08C162.654 143.769 162.63 144.466 162.68 145.16C162.656 146.516 162.22 147.84 162.244 149.192C162.264 150.244 162.672 151.412 163.632 151.836C164.111 152.007 164.621 152.075 165.128 152.036L176.1 151.968C176.364 151.985 176.628 151.941 176.872 151.84C177.368 151.58 177.472 150.928 177.516 150.372C177.713 147.988 177.911 145.605 178.108 143.224L177.104 142.84Z" fill="#E0E0E0"/>
<path d="M177.744 131.244H160.72L160.86 132.964L160.96 134.192L161.22 137.392L161.368 139.228L161.564 141.672L161.648 142.72L161.676 143.032L161.776 144.264L161.912 145.952L161.996 147L162.084 148.064L162.184 149.296L162.26 150.228L162.344 151.276L162.38 151.732H178L178.036 151.276L178.12 150.232L178.196 149.292L178.296 148.06L178.384 147L178.468 145.952L178.604 144.26L178.704 143.032L178.728 142.72L178.812 141.672L179.012 139.228L179.16 137.396L179.416 134.196L179.516 132.968L179.656 131.248L177.744 131.244ZM178.768 132.372L178.44 132.044H178.8L178.768 132.372ZM178.684 133.416L178.652 133.816L177.128 135.34L175.38 133.6L176.944 132.036H177.312L178.684 133.416ZM178.244 138.864L177.128 140L175.38 138.252L177.128 136.508L178.328 137.708L178.244 138.864ZM162.044 137.696L163.244 136.496L164.992 138.24L163.252 140L162.14 138.884L162.044 137.696ZM176.564 135.92L174.8 137.668L173.052 135.92L174.8 134.172L176.564 135.92ZM173.816 132.044H175.816L174.816 133.044L173.816 132.044ZM174.248 138.232L172.504 140L170.756 138.252L172.504 136.508L174.248 138.232ZM168.444 140.544L170.192 138.8L171.936 140.544L170.192 142.292L168.444 140.544ZM169.624 142.856L167.876 144.604L166.132 142.86L167.88 141.112L169.624 142.856ZM172.504 141.112L174.248 142.86L172.504 144.604L170.756 142.856L172.504 141.112ZM170.192 137.668L168.444 135.92L170.192 134.172L171.936 135.92L170.192 137.668ZM169.624 138.232L167.88 140L166.132 138.252L167.88 136.508L169.624 138.232ZM165.564 137.668L163.82 135.92L165.564 134.172L167.312 135.92L165.564 137.668ZM165.564 138.8L167.312 140.544L165.564 142.292L163.82 140.544L165.564 138.8ZM167.312 145.172L165.564 146.916L163.82 145.172L165.564 143.424L167.312 145.172ZM167.876 145.736L169.624 147.484L167.88 149.232L166.132 147.484L167.876 145.736ZM168.444 145.172L170.192 143.424L171.936 145.172L170.192 146.916L168.444 145.172ZM172.504 145.736L174.248 147.484L172.504 149.232L170.756 147.484L172.504 145.736ZM174.816 148.048L176.564 149.796L175.432 150.928H174.2L173.068 149.796L174.816 148.048ZM173.068 145.172L174.816 143.424L176.564 145.172L174.8 146.916L173.068 145.172ZM173.068 140.544L174.8 138.8L176.548 140.544L174.8 142.292L173.068 140.544ZM174.248 133.6L172.504 135.348L170.756 133.6L172.32 132.036H172.688L174.248 133.6ZM170.192 133.036L169.192 132.036H171.192L170.192 133.036ZM169.624 133.6L167.88 135.348L166.132 133.6L167.696 132.036H168.064L169.624 133.6ZM166.564 132.036L165.564 133.036L164.568 132.036H166.564ZM163.436 132.036L165 133.6L163.252 135.348L161.732 133.824L161.7 133.424L163.068 132.052L163.436 132.036ZM161.94 132.036L161.616 132.36L161.588 132.036H161.94ZM161.832 135.056L162.688 135.912L161.96 136.64L161.832 135.056ZM162.308 140.916L162.24 140.088L162.688 140.536L162.288 140.916H162.308ZM162.392 141.968L163.252 141.104L165 142.852L163.252 144.596L162.548 143.892L162.392 141.968ZM162.652 145.2V145.124L162.692 145.164L162.656 145.2H162.652ZM162.956 148.924L162.736 146.244L163.252 145.728L165 147.476L163.252 149.22L162.956 148.924ZM163.116 150.924L163.084 150.524L163.252 150.356L163.82 150.924H163.116ZM163.82 149.792L165.564 148.044L167.312 149.792L166.18 150.924H164.948L163.82 149.792ZM167.312 150.924L167.88 150.356L168.448 150.924H167.312ZM169.576 150.924L168.444 149.792L170.192 148.044L171.936 149.792L170.8 150.928L169.576 150.924ZM171.936 150.924L172.504 150.356L173.072 150.924H171.936ZM177.264 150.924H176.56L177.128 150.356L177.296 150.524L177.264 150.924ZM177.428 148.924L177.128 149.22L175.38 147.476L177.128 145.728L177.644 146.244L177.428 148.924ZM177.736 145.12V145.2L177.7 145.164L177.744 145.12H177.736ZM177.836 143.892L177.128 144.596L175.38 142.852L177.128 141.104L177.992 141.968L177.836 143.892ZM178.076 140.92L177.676 140.52L178.128 140.072L178.076 140.92ZM178.552 135.052L178.424 136.652L177.692 135.92L178.552 135.06V135.052Z" fill="#E6E6E6"/>
<path d="M160.288 132.756H180.096C180.458 132.756 180.752 132.462 180.752 132.1V131.184C180.752 130.822 180.458 130.528 180.096 130.528H160.288C159.926 130.528 159.632 130.822 159.632 131.184V132.1C159.632 132.462 159.926 132.756 160.288 132.756Z" fill="#F0F0F0"/>
<path d="M178.576 150.532H161.812C161.45 150.532 161.156 150.826 161.156 151.188V152.104C161.156 152.466 161.45 152.76 161.812 152.76H178.576C178.939 152.76 179.232 152.466 179.232 152.104V151.188C179.232 150.826 178.939 150.532 178.576 150.532Z" fill="#F0F0F0"/>
<path d="M99.9998 171.024C142.833 171.024 177.556 168.997 177.556 166.496C177.556 163.995 142.833 161.968 99.9998 161.968C57.1669 161.968 22.4438 163.995 22.4438 166.496C22.4438 168.997 57.1669 171.024 99.9998 171.024Z" fill="#F5F5F5"/>
<path d="M78.2721 52.336H70.7521C62.7285 52.336 56.2241 58.8404 56.2241 66.864V84.828C56.2241 92.8516 62.7285 99.356 70.7521 99.356H78.2721C86.2957 99.356 92.8001 92.8516 92.8001 84.828V66.864C92.8001 58.8404 86.2957 52.336 78.2721 52.336Z" fill="#5200D9"/>
<path opacity="0.8" d="M78.2721 52.336H70.7521C62.7285 52.336 56.2241 58.8404 56.2241 66.864V84.828C56.2241 92.8516 62.7285 99.356 70.7521 99.356H78.2721C86.2957 99.356 92.8001 92.8516 92.8001 84.828V66.864C92.8001 58.8404 86.2957 52.336 78.2721 52.336Z" fill="white"/>
<path d="M79.7161 55.024H71.0881C64.5248 55.024 59.2041 60.3446 59.2041 66.908V84.784C59.2041 91.3473 64.5248 96.668 71.0881 96.668H79.7161C86.2795 96.668 91.6001 91.3473 91.6001 84.784V66.908C91.6001 60.3446 86.2795 55.024 79.7161 55.024Z" fill="#5200D9"/>
<path opacity="0.3" d="M91.6002 66.908V84.8C91.6002 87.9518 90.3481 90.9746 88.1195 93.2032C85.8908 95.4319 82.868 96.684 79.7162 96.684H71.0882C67.936 96.684 64.9128 95.432 62.6835 93.2035C60.4542 90.9749 59.2013 87.9522 59.2002 84.8V66.908C59.2002 63.7562 60.4523 60.7334 62.6809 58.5047C64.9096 56.276 67.9324 55.024 71.0842 55.024H79.7122C81.2732 55.0235 82.8189 55.3305 84.2612 55.9275C85.7035 56.5244 87.0141 57.3997 88.118 58.5033C89.222 59.6069 90.0977 60.9172 90.6952 62.3593C91.2927 63.8013 91.6002 65.347 91.6002 66.908Z" fill="white"/>
<path d="M91.6002 69.292V73.744H78.0403C77.5253 73.7606 77.0122 73.6735 76.5316 73.4879C76.0509 73.3023 75.6125 73.022 75.2423 72.6636C74.8722 72.3052 74.5779 71.876 74.3769 71.4016C74.1759 70.9272 74.0723 70.4172 74.0723 69.902C74.0723 69.3868 74.1759 68.8768 74.3769 68.4024C74.5779 67.9279 74.8722 67.4988 75.2423 67.1404C75.6125 66.782 76.0509 66.5016 76.5316 66.316C77.0122 66.1304 77.5253 66.0434 78.0403 66.06H78.1083C78.121 65.1558 78.4275 64.2804 78.9814 63.5657C79.5353 62.851 80.3066 62.3358 81.179 62.0978C82.0513 61.8599 82.9774 61.9121 83.8175 62.2465C84.6576 62.581 85.3661 63.1796 85.8362 63.952C86.1266 63.8989 86.4211 63.8721 86.7162 63.872C87.9808 63.872 89.1936 64.3743 90.0877 65.2685C90.9819 66.1627 91.4843 67.3754 91.4843 68.64C91.4831 68.8716 91.4658 69.1028 91.4322 69.332L91.6002 69.292Z" fill="#F0F0F0"/>
<path d="M73.7362 87.156C73.7354 87.741 73.5071 88.3027 73.0994 88.7223C72.6918 89.1418 72.1369 89.3863 71.5522 89.404H60.1402C59.5205 87.9481 59.2008 86.3822 59.2002 84.8V78.436C59.6662 78.0917 60.1989 77.8485 60.7643 77.7221C61.3297 77.5956 61.9152 77.5886 62.4835 77.7016C63.0517 77.8146 63.5901 78.045 64.0641 78.3781C64.5381 78.7112 64.9374 79.1396 65.2362 79.636C65.5264 79.5817 65.8209 79.5536 66.1162 79.552C67.3811 79.553 68.5939 80.0563 69.4879 80.9511C70.382 81.8459 70.8842 83.0591 70.8842 84.324C70.8844 84.5542 70.8684 84.7841 70.8362 85.012C71.0454 84.9507 71.2622 84.9197 71.4802 84.92C72.0754 84.9189 72.6468 85.1535 73.0696 85.5725C73.4923 85.9915 73.732 86.5608 73.7362 87.156Z" fill="#F0F0F0"/>
<path d="M116.668 143.424H170.196C172.35 143.424 174.096 141.678 174.096 139.524V37.016C174.096 34.8621 172.35 33.116 170.196 33.116H116.668C114.514 33.116 112.768 34.8621 112.768 37.016L112.768 139.524C112.768 141.678 114.514 143.424 116.668 143.424Z" fill="#5200D9"/>
<path opacity="0.2" d="M116.668 143.424H170.196C172.35 143.424 174.096 141.678 174.096 139.524V37.016C174.096 34.8621 172.35 33.116 170.196 33.116H116.668C114.514 33.116 112.768 34.8621 112.768 37.016L112.768 139.524C112.768 141.678 114.514 143.424 116.668 143.424Z" fill="black"/>
<path d="M114.064 143.424H167.592C169.746 143.424 171.492 141.678 171.492 139.524V37.016C171.492 34.8621 169.746 33.116 167.592 33.116H114.064C111.91 33.116 110.164 34.8621 110.164 37.016L110.164 139.524C110.164 141.678 111.91 143.424 114.064 143.424Z" fill="#5200D9"/>
<path d="M112.352 36.8V139.52C112.339 139.705 112.366 139.891 112.431 140.064C112.496 140.238 112.597 140.395 112.729 140.526C112.86 140.657 113.018 140.758 113.192 140.823C113.366 140.887 113.551 140.914 113.736 140.9H168.04C168.82 140.9 169.2 140.42 169.2 139.644V36.688C169.2 36.016 168.908 35.536 168.236 35.536H154.66C154.475 35.5278 154.292 35.5767 154.136 35.6762C153.98 35.7757 153.859 35.9209 153.788 36.092L153.224 37.42C153.151 37.5885 153.029 37.7308 152.873 37.828C152.717 37.9251 152.536 37.9726 152.352 37.964H129.236C129.051 37.9699 128.868 37.919 128.712 37.8182C128.556 37.7174 128.435 37.5715 128.364 37.4L127.8 36.08C127.729 35.9104 127.606 35.7672 127.45 35.6698C127.294 35.5724 127.112 35.5257 126.928 35.536H113.548C113.384 35.5315 113.221 35.5617 113.069 35.6245C112.917 35.6874 112.781 35.7815 112.668 35.9008C112.555 36.0201 112.468 36.1618 112.414 36.3167C112.36 36.4717 112.339 36.6363 112.352 36.8Z" fill="#263238"/>
<path opacity="0.6" d="M142.104 36.348C142.537 36.348 142.888 35.997 142.888 35.564C142.888 35.131 142.537 34.78 142.104 34.78C141.671 34.78 141.32 35.131 141.32 35.564C141.32 35.997 141.671 36.348 142.104 36.348Z" fill="white"/>
<path opacity="0.6" d="M139.732 35.564C139.732 35.6638 139.762 35.7614 139.817 35.8444C139.873 35.9274 139.952 35.992 140.044 36.03C140.136 36.068 140.238 36.0778 140.336 36.058C140.434 36.0382 140.523 35.9898 140.594 35.9189C140.664 35.848 140.712 35.7579 140.731 35.6598C140.75 35.5618 140.739 35.4603 140.7 35.3683C140.662 35.2763 140.596 35.1979 140.513 35.143C140.43 35.0881 140.332 35.0592 140.232 35.06C140.166 35.06 140.101 35.073 140.04 35.0984C139.979 35.1238 139.923 35.161 139.877 35.2078C139.83 35.2547 139.794 35.3103 139.769 35.3714C139.744 35.4325 139.731 35.498 139.732 35.564Z" fill="white"/>
<path opacity="0.6" d="M142.164 136.44V138.344H139.16V136.44H142.164ZM142.204 135.748H139.12C138.947 135.748 138.782 135.817 138.659 135.939C138.537 136.061 138.468 136.227 138.468 136.4V138.4C138.468 138.573 138.537 138.739 138.659 138.861C138.782 138.983 138.947 139.052 139.12 139.052H142.204C142.377 139.052 142.543 138.983 142.665 138.861C142.788 138.739 142.856 138.573 142.856 138.4V136.4C142.856 136.227 142.788 136.061 142.665 135.939C142.543 135.817 142.377 135.748 142.204 135.748Z" fill="white"/>
<path opacity="0.6" d="M162.956 38.624H162.248V39.564H162.956V38.624Z" fill="white"/>
<path opacity="0.6" d="M164.108 38.312H163.4V39.568H164.108V38.312Z" fill="white"/>
<path opacity="0.6" d="M165.256 37.996H164.548V39.568H165.256V37.996Z" fill="white"/>
<path opacity="0.6" d="M166.408 37.684H165.7V39.568H166.408V37.684Z" fill="white"/>
<path opacity="0.6" d="M118.536 39.224H118.956V38.284H118.536V39.224Z" fill="white"/>
<path opacity="0.6" d="M118.252 37.94H114.916V39.568H118.252V37.94Z" fill="white"/>
<path d="M169.2 42.42H112.352V133.332H169.2V42.42Z" fill="#5200D9"/>
<path opacity="0.4" d="M169.2 42.42H112.352V133.332H169.2V42.42Z" fill="white"/>
<path d="M119.66 54.316C122.298 54.316 124.436 52.1777 124.436 49.54C124.436 46.9023 122.298 44.764 119.66 44.764C117.023 44.764 114.884 46.9023 114.884 49.54C114.884 52.1777 117.023 54.316 119.66 54.316Z" fill="#5200D9"/>
<path opacity="0.6" d="M134.336 47.824H127.536C127.404 47.824 127.273 47.7979 127.151 47.7472C127.029 47.6965 126.918 47.6222 126.825 47.5285C126.732 47.4348 126.658 47.3237 126.608 47.2014C126.557 47.0792 126.532 46.9482 126.532 46.816C126.532 46.5497 126.638 46.2943 126.826 46.106C127.015 45.9178 127.27 45.812 127.536 45.812H134.336C134.603 45.812 134.858 45.9178 135.046 46.106C135.234 46.2943 135.34 46.5497 135.34 46.816C135.341 46.9482 135.315 47.0792 135.265 47.2014C135.215 47.3237 135.141 47.4348 135.048 47.5285C134.954 47.6222 134.843 47.6965 134.721 47.7472C134.599 47.7979 134.468 47.824 134.336 47.824Z" fill="white"/>
<path opacity="0.6" d="M147.556 50.84H126.98C126.862 50.84 126.749 50.7932 126.666 50.71C126.583 50.6267 126.536 50.5138 126.536 50.396C126.536 50.2779 126.583 50.1645 126.666 50.0806C126.749 49.9967 126.862 49.9491 126.98 49.948H147.556C147.615 49.9485 147.673 49.9606 147.727 49.9836C147.781 50.0066 147.831 50.0401 147.872 50.082C147.913 50.124 147.946 50.1737 147.968 50.2282C147.99 50.2828 148.001 50.3412 148 50.4C147.999 50.5171 147.952 50.629 147.869 50.7114C147.786 50.7938 147.673 50.84 147.556 50.84Z" fill="white"/>
<path opacity="0.6" d="M141.384 53.268H126.984C126.866 53.267 126.753 53.2193 126.67 53.1354C126.587 53.0515 126.54 52.9381 126.54 52.82C126.54 52.7617 126.552 52.704 126.574 52.6501C126.596 52.5962 126.629 52.5473 126.67 52.506C126.711 52.4648 126.76 52.4321 126.814 52.4098C126.868 52.3875 126.926 52.376 126.984 52.376H141.384C141.442 52.376 141.5 52.3875 141.554 52.4098C141.608 52.4321 141.657 52.4648 141.698 52.506C141.739 52.5473 141.772 52.5962 141.794 52.6501C141.817 52.704 141.828 52.7617 141.828 52.82C141.829 52.8787 141.817 52.9368 141.795 52.9911C141.773 53.0455 141.741 53.0949 141.699 53.1365C141.658 53.1782 141.609 53.2113 141.555 53.2338C141.501 53.2564 141.443 53.268 141.384 53.268Z" fill="white"/>
<path opacity="0.6" d="M169.2 57.6H112.352V105.768H169.2V57.6Z" fill="white"/>
<path d="M148.828 94.884C148.829 94.3666 149.035 93.8707 149.401 93.5049C149.767 93.1391 150.263 92.9331 150.78 92.932C150.97 92.933 151.158 92.9613 151.34 93.016C151.311 92.8173 151.297 92.6168 151.296 92.416C151.297 91.3205 151.733 90.2701 152.508 89.4954C153.282 88.7207 154.333 88.2851 155.428 88.284C155.685 88.2836 155.94 88.3077 156.192 88.356C156.594 87.6786 157.207 87.1517 157.937 86.8561C158.667 86.5605 159.474 86.5126 160.234 86.7196C160.994 86.9266 161.665 87.3772 162.145 88.0022C162.624 88.6273 162.885 89.3923 162.888 90.18H162.948C163.831 90.18 164.677 90.5306 165.301 91.1548C165.926 91.7789 166.276 92.6254 166.276 93.508C166.276 94.3906 165.926 95.2371 165.301 95.8613C164.677 96.4854 163.831 96.836 162.948 96.836H150.724C150.216 96.8224 149.733 96.6107 149.379 96.246C149.025 95.8812 148.827 95.3925 148.828 94.884Z" fill="#F0F0F0"/>
<path d="M116.988 85.676C116.987 85.447 117.039 85.2208 117.141 85.0159C117.244 84.811 117.393 84.633 117.577 84.4963C117.76 84.3596 117.974 84.2681 118.199 84.2291C118.425 84.1902 118.657 84.2049 118.876 84.272C118.855 84.1222 118.844 83.9712 118.844 83.82C118.844 82.9968 119.171 82.2073 119.753 81.6251C120.335 81.043 121.125 80.716 121.948 80.716C122.14 80.7164 122.331 80.7352 122.52 80.772C122.826 80.2698 123.286 79.8807 123.833 79.6631C124.379 79.4455 124.981 79.4113 125.548 79.5656C126.115 79.72 126.617 80.0545 126.978 80.5189C127.339 80.9832 127.539 81.5521 127.548 82.14H127.6C128.263 82.14 128.899 82.4034 129.368 82.8722C129.836 83.3411 130.1 83.977 130.1 84.64C130.1 85.3031 129.836 85.9389 129.368 86.4078C128.899 86.8766 128.263 87.14 127.6 87.14H118.4C118.021 87.1255 117.662 86.9651 117.399 86.6922C117.136 86.4193 116.989 86.0551 116.988 85.676Z" fill="#F0F0F0"/>
<path d="M141.668 72.184C141.668 71.9718 141.752 71.7683 141.902 71.6183C142.052 71.4683 142.256 71.384 142.468 71.384C142.545 71.3843 142.622 71.395 142.696 71.416C142.692 71.3347 142.692 71.2533 142.696 71.172C142.696 70.7222 142.875 70.2908 143.193 69.9728C143.511 69.6547 143.942 69.476 144.392 69.476C144.497 69.4751 144.601 69.4845 144.704 69.504C144.87 69.2279 145.122 69.0136 145.421 68.8936C145.72 68.7736 146.05 68.7545 146.361 68.8391C146.672 68.9237 146.946 69.1075 147.143 69.3625C147.34 69.6175 147.449 69.9298 147.452 70.252H147.48C147.829 70.2709 148.158 70.4231 148.399 70.6772C148.64 70.9313 148.774 71.268 148.774 71.618C148.774 71.968 148.64 72.3047 148.399 72.5588C148.158 72.8129 147.829 72.9651 147.48 72.984H142.444C142.236 72.9778 142.039 72.8907 141.894 72.7414C141.749 72.592 141.668 72.3921 141.668 72.184Z" fill="#F0F0F0"/>
<path d="M130.096 100.456C130.096 100.32 130.122 100.184 130.174 100.058C130.226 99.9321 130.302 99.8174 130.398 99.7208C130.494 99.6242 130.609 99.5475 130.735 99.4952C130.861 99.4429 130.996 99.416 131.132 99.416C131.234 99.4163 131.335 99.4311 131.432 99.46C131.416 99.3541 131.408 99.2471 131.408 99.14C131.408 98.8513 131.465 98.5654 131.576 98.2987C131.686 98.032 131.848 97.7897 132.053 97.5858C132.257 97.3818 132.5 97.2201 132.767 97.11C133.033 96.9999 133.319 96.9434 133.608 96.944C133.742 96.9441 133.876 96.9561 134.008 96.98C134.224 96.6222 134.551 96.3446 134.939 96.1892C135.326 96.0339 135.754 96.0093 136.157 96.1193C136.561 96.2292 136.917 96.4676 137.172 96.7984C137.427 97.1291 137.568 97.5342 137.572 97.952H137.6C138.07 97.952 138.521 98.1387 138.853 98.471C139.186 98.8033 139.372 99.254 139.372 99.724C139.372 100.194 139.186 100.645 138.853 100.977C138.521 101.309 138.07 101.496 137.6 101.496H131.104C130.834 101.489 130.577 101.376 130.388 101.181C130.2 100.987 130.095 100.727 130.096 100.456Z" fill="#F0F0F0"/>
<path d="M157.672 77.504L122.56 90.624L123.36 92.768C123.36 92.768 130.12 93.464 135.76 91.348L162.208 81.468C163.008 81.172 164.848 79.812 164.532 79.032C164.068 77.88 161.272 78.18 161.272 78.18C161.272 78.18 159.544 76.8 157.672 77.504Z" fill="#5200D9"/>
<path d="M125.02 91.864L119.456 87.836C119.314 87.734 119.148 87.6686 118.975 87.6455C118.801 87.6225 118.624 87.6426 118.46 87.704L117.804 87.948C117.772 87.9598 117.742 87.979 117.719 88.0041C117.695 88.0293 117.678 88.0596 117.668 88.0927C117.658 88.1258 117.657 88.1607 117.663 88.1946C117.669 88.2286 117.683 88.2605 117.704 88.288L121.2 92.852L120.244 93.212C120.191 93.2291 120.142 93.2572 120.1 93.2944C120.059 93.3316 120.025 93.3771 120.002 93.4279C119.979 93.4788 119.967 93.5339 119.967 93.5897C119.967 93.6455 119.978 93.7008 120 93.752C120.017 93.8051 120.045 93.854 120.082 93.8956C120.12 93.9373 120.165 93.9706 120.216 93.9936C120.267 94.0166 120.322 94.0287 120.378 94.0291C120.434 94.0295 120.489 94.0182 120.54 93.996L124.964 92.344L125.02 91.864Z" fill="#5200D9"/>
<path d="M148.828 83.08L128.996 71.708C128.861 71.629 128.709 71.5811 128.553 71.568C128.396 71.5548 128.239 71.5767 128.092 71.632L126.516 72.22C126.464 72.2394 126.417 72.2711 126.38 72.3124C126.343 72.3537 126.316 72.4035 126.303 72.4573C126.289 72.5112 126.288 72.5676 126.301 72.6217C126.314 72.6758 126.34 72.726 126.376 72.768L138.424 86.4L148.828 83.08Z" fill="#5200D9"/>
<path d="M142.52 89.524L150.568 86.516L150.064 96.728C150.05 96.9997 149.957 97.2614 149.797 97.481C149.636 97.7006 149.415 97.8685 149.16 97.964L148.228 98.312C148.142 98.3433 148.048 98.3441 147.961 98.3143C147.874 98.2844 147.801 98.2257 147.752 98.148L142.52 89.524Z" fill="#5200D9"/>
<path opacity="0.6" d="M123.36 113.248H116.56C116.428 113.248 116.297 113.222 116.175 113.171C116.053 113.12 115.942 113.046 115.849 112.953C115.756 112.859 115.682 112.748 115.631 112.625C115.581 112.503 115.556 112.372 115.556 112.24C115.556 111.974 115.662 111.718 115.85 111.53C116.039 111.342 116.294 111.236 116.56 111.236H123.36C123.492 111.235 123.623 111.261 123.746 111.311C123.868 111.362 123.979 111.435 124.073 111.529C124.166 111.622 124.241 111.733 124.291 111.855C124.342 111.977 124.368 112.108 124.368 112.24C124.368 112.507 124.262 112.764 124.073 112.953C123.884 113.142 123.627 113.248 123.36 113.248Z" fill="white"/>
<path opacity="0.6" d="M163.964 116.264H116C115.882 116.264 115.769 116.217 115.686 116.134C115.603 116.051 115.556 115.938 115.556 115.82C115.556 115.702 115.603 115.589 115.686 115.505C115.769 115.421 115.882 115.373 116 115.372H163.96C164.078 115.373 164.191 115.421 164.274 115.505C164.358 115.589 164.404 115.702 164.404 115.82C164.404 115.937 164.358 116.049 164.276 116.133C164.193 116.216 164.081 116.263 163.964 116.264Z" fill="white"/>
<path opacity="0.6" d="M157.792 118.952H116C115.882 118.951 115.769 118.903 115.686 118.819C115.603 118.735 115.556 118.622 115.556 118.504C115.556 118.386 115.603 118.273 115.686 118.19C115.769 118.107 115.882 118.06 116 118.06H157.792C157.91 118.06 158.024 118.107 158.108 118.19C158.191 118.273 158.239 118.386 158.24 118.504C158.24 118.623 158.193 118.737 158.109 118.821C158.025 118.905 157.911 118.952 157.792 118.952Z" fill="white"/>
<path opacity="0.6" d="M119.6 121.636H116C115.884 121.635 115.774 121.589 115.691 121.507C115.609 121.426 115.562 121.316 115.56 121.2C115.56 121.082 115.607 120.968 115.69 120.885C115.773 120.801 115.886 120.753 116.004 120.752H119.604C119.721 120.755 119.832 120.804 119.913 120.887C119.995 120.971 120.04 121.083 120.04 121.2C120.037 121.315 119.99 121.425 119.908 121.506C119.826 121.587 119.715 121.634 119.6 121.636Z" fill="white"/>
<path opacity="0.6" d="M161.26 124.324H116C115.882 124.323 115.769 124.275 115.686 124.191C115.603 124.107 115.556 123.994 115.556 123.876C115.556 123.758 115.603 123.645 115.686 123.562C115.769 123.479 115.882 123.432 116 123.432H161.26C161.378 123.432 161.491 123.479 161.574 123.562C161.657 123.645 161.704 123.758 161.704 123.876C161.704 123.994 161.658 124.107 161.574 124.191C161.491 124.275 161.378 124.323 161.26 124.324Z" fill="white"/>
<path opacity="0.6" d="M136.232 127.008H116C115.882 127.008 115.769 126.961 115.686 126.878C115.603 126.795 115.556 126.682 115.556 126.564C115.556 126.446 115.603 126.333 115.686 126.25C115.769 126.167 115.882 126.12 116 126.12H136.228C136.346 126.12 136.459 126.167 136.542 126.25C136.625 126.333 136.672 126.446 136.672 126.564C136.672 126.681 136.626 126.793 136.544 126.877C136.461 126.96 136.349 127.007 136.232 127.008Z" fill="white"/>
<path d="M148.776 66.524H132.872C132.525 66.524 132.182 66.4557 131.862 66.323C131.541 66.1904 131.25 65.9959 131.005 65.7508C130.76 65.5056 130.566 65.2146 130.433 64.8943C130.3 64.574 130.232 64.2307 130.232 63.884C130.233 63.1841 130.511 62.5133 131.006 62.0184C131.501 61.5235 132.172 61.245 132.872 61.244H148.776C149.476 61.245 150.147 61.5235 150.642 62.0184C151.136 62.5133 151.415 63.1841 151.416 63.884C151.416 64.5842 151.138 65.2557 150.643 65.7508C150.148 66.2458 149.476 66.524 148.776 66.524Z" fill="#5200D9"/>
<path d="M135.536 64.536C135.539 64.6358 135.517 64.7348 135.472 64.824C135.428 64.9078 135.365 64.9803 135.288 65.036C135.208 65.0928 135.118 65.136 135.024 65.164C134.917 65.1931 134.807 65.2079 134.696 65.208H133.44V62.604H134.832C134.918 62.6029 135.004 62.6235 135.08 62.664C135.151 62.7011 135.214 62.7529 135.264 62.816C135.317 62.8784 135.358 62.9504 135.384 63.028C135.412 63.1049 135.427 63.1861 135.428 63.268C135.429 63.3932 135.396 63.5163 135.332 63.624C135.269 63.7359 135.171 63.8233 135.052 63.872C135.193 63.9101 135.318 63.9929 135.408 64.108C135.496 64.233 135.541 64.3832 135.536 64.536ZM133.936 63.036V63.692H134.608C134.649 63.6933 134.689 63.6861 134.727 63.671C134.765 63.6558 134.799 63.633 134.828 63.604C134.859 63.5723 134.882 63.5346 134.897 63.4933C134.912 63.452 134.919 63.4079 134.916 63.364C134.92 63.2769 134.891 63.1915 134.836 63.124C134.81 63.0962 134.778 63.074 134.743 63.0589C134.708 63.0437 134.67 63.036 134.632 63.036H133.936ZM135.016 64.44C135.016 64.3949 135.008 64.3501 134.992 64.308C134.978 64.2669 134.956 64.2289 134.928 64.196C134.901 64.1652 134.868 64.1395 134.832 64.12C134.795 64.1004 134.754 64.0907 134.712 64.092H133.936V64.776H134.684C134.729 64.7765 134.774 64.7684 134.816 64.752C134.856 64.7365 134.891 64.7118 134.92 64.68C134.949 64.6487 134.972 64.612 134.988 64.572C135.012 64.5319 135.025 64.4866 135.028 64.44H135.016Z" fill="white"/>
<path d="M137.044 65.224C136.864 65.2271 136.686 65.1888 136.524 65.112C136.372 65.0416 136.236 64.9409 136.124 64.816C136.012 64.6922 135.925 64.5483 135.868 64.392C135.806 64.2369 135.774 64.0711 135.776 63.904C135.775 63.734 135.808 63.5655 135.872 63.408C135.935 63.2518 136.026 63.1082 136.14 62.984C136.253 62.863 136.389 62.7652 136.54 62.696C136.699 62.6233 136.873 62.5865 137.048 62.588C137.226 62.5851 137.403 62.6235 137.564 62.7C137.715 62.7759 137.85 62.879 137.964 63.004C138.072 63.1304 138.158 63.2736 138.22 63.428C138.28 63.5824 138.311 63.7464 138.312 63.912C138.313 64.082 138.28 64.2506 138.216 64.408C138.153 64.5561 138.063 64.6916 137.952 64.808C137.839 64.929 137.703 65.0268 137.552 65.096C137.394 65.1755 137.221 65.2192 137.044 65.224ZM136.288 63.904C136.287 64.0154 136.305 64.1263 136.34 64.232C136.371 64.3325 136.422 64.4261 136.488 64.508C136.551 64.59 136.632 64.657 136.724 64.704C136.825 64.7515 136.936 64.7761 137.048 64.7761C137.16 64.7761 137.271 64.7515 137.372 64.704C137.463 64.6533 137.543 64.5854 137.608 64.504C137.673 64.4202 137.724 64.3254 137.756 64.224C137.788 64.1203 137.804 64.0124 137.804 63.904C137.805 63.7938 137.787 63.6843 137.752 63.58C137.719 63.478 137.668 63.3831 137.6 63.3C137.535 63.2202 137.455 63.1548 137.364 63.108C137.266 63.0593 137.157 63.0346 137.048 63.036C136.934 63.035 136.822 63.0611 136.72 63.112C136.628 63.1594 136.547 63.2263 136.484 63.308C136.42 63.3927 136.37 63.4873 136.336 63.588C136.304 63.6904 136.288 63.7968 136.288 63.904Z" fill="white"/>
<path d="M139.812 65.224C139.634 65.2272 139.457 65.1889 139.296 65.112C139.144 65.0416 139.008 64.9409 138.896 64.816C138.783 64.6925 138.695 64.5485 138.636 64.392C138.576 64.2364 138.544 64.0709 138.544 63.904C138.543 63.7335 138.577 63.5646 138.644 63.408C138.706 63.252 138.795 63.1084 138.908 62.984C139.022 62.8642 139.158 62.7666 139.308 62.696C139.467 62.6233 139.641 62.5865 139.816 62.588C139.994 62.5851 140.171 62.6235 140.332 62.7C140.553 62.8141 140.739 62.986 140.87 63.1973C141.001 63.4086 141.072 63.6514 141.076 63.9C141.077 64.07 141.044 64.2386 140.98 64.396C140.917 64.5441 140.827 64.6796 140.716 64.796C140.603 64.9173 140.467 65.0152 140.316 65.084C140.16 65.1664 139.988 65.2142 139.812 65.224ZM139.06 63.904C139.06 64.0151 139.076 64.1256 139.108 64.232C139.141 64.3327 139.192 64.4263 139.26 64.508C139.322 64.5909 139.403 64.6581 139.496 64.704C139.597 64.7514 139.707 64.776 139.818 64.776C139.929 64.776 140.039 64.7514 140.14 64.704C140.232 64.6537 140.314 64.5858 140.38 64.504C140.444 64.42 140.493 64.3252 140.524 64.224C140.559 64.121 140.577 64.0128 140.576 63.904C140.575 63.794 140.557 63.6848 140.524 63.58C140.49 63.4787 140.438 63.384 140.372 63.3C140.307 63.2192 140.225 63.1536 140.132 63.108C140.034 63.0584 139.926 63.0337 139.816 63.036C139.703 63.035 139.592 63.0611 139.492 63.112C139.4 63.1604 139.318 63.2271 139.252 63.308C139.188 63.3919 139.139 63.4868 139.108 63.588C139.076 63.6904 139.06 63.7968 139.06 63.904Z" fill="white"/>
<path d="M141.472 65.2V62.6H142V63.836L143.092 62.596H143.648L142.652 63.752L143.708 65.2H143.12L142.32 64.072L141.988 64.42V65.22L141.472 65.2Z" fill="white"/>
<path d="M145.732 64.764V65.2H143.924V62.596H145.696V63.04H144.428V63.668H145.524V64.068H144.428V64.748L145.732 64.764Z" fill="white"/>
<path d="M146.128 65.2V62.596H147.072C147.264 62.5927 147.454 62.6281 147.632 62.7C147.783 62.7625 147.92 62.8566 148.032 62.976C148.139 63.0913 148.22 63.2275 148.272 63.376C148.329 63.5366 148.357 63.7057 148.356 63.876C148.358 64.0601 148.327 64.243 148.264 64.416C148.209 64.5696 148.121 64.7094 148.006 64.8254C147.892 64.9415 147.753 65.0311 147.6 65.088C147.432 65.1542 147.253 65.1869 147.072 65.184L146.128 65.2ZM147.844 63.892C147.846 63.7753 147.828 63.6591 147.792 63.548C147.762 63.4492 147.712 63.3578 147.644 63.28C147.577 63.2036 147.494 63.1435 147.4 63.104C147.296 63.0598 147.185 63.038 147.072 63.04H146.632V64.756H147.072C147.186 64.7573 147.299 64.7341 147.404 64.688C147.496 64.6467 147.578 64.5852 147.644 64.508C147.711 64.4282 147.761 64.3357 147.792 64.236C147.827 64.1275 147.845 64.0141 147.844 63.9V63.892Z" fill="white"/>
<path d="M39.5999 157.884L51.1239 156.752V140.556H55.6919V156.748L67.2639 157.884C67.8184 157.94 68.3325 158.199 68.7065 158.612C69.0805 159.025 69.2877 159.563 69.2879 160.12V161.848H37.5679V160.12C37.5683 159.561 37.7766 159.023 38.1522 158.61C38.5279 158.196 39.0439 157.938 39.5999 157.884Z" fill="#263238"/>
<path opacity="0.2" d="M39.5999 157.884L51.1239 156.752V140.556H55.6919V156.748L67.2639 157.884C67.8184 157.94 68.3325 158.199 68.7065 158.612C69.0805 159.025 69.2877 159.563 69.2879 160.12V161.848H37.5679V160.12C37.5683 159.561 37.7766 159.023 38.1522 158.61C38.5279 158.196 39.0439 157.938 39.5999 157.884Z" fill="white"/>
<path d="M68.0598 166.984C69.71 166.984 71.0478 165.646 71.0478 163.996C71.0478 162.346 69.71 161.008 68.0598 161.008C66.4096 161.008 65.0718 162.346 65.0718 163.996C65.0718 165.646 66.4096 166.984 68.0598 166.984Z" fill="#263238"/>
<path d="M38.7878 166.984C40.438 166.984 41.7758 165.646 41.7758 163.996C41.7758 162.346 40.438 161.008 38.7878 161.008C37.1376 161.008 35.7998 162.346 35.7998 163.996C35.7998 165.646 37.1376 166.984 38.7878 166.984Z" fill="#263238"/>
<path d="M54.8001 144.048H52.0001C51.562 144.048 51.1418 143.874 50.832 143.564C50.5222 143.254 50.3481 142.834 50.3481 142.396V129.624H56.4721V142.384C56.4737 142.604 56.4315 142.821 56.348 143.025C56.2644 143.228 56.1412 143.412 55.9855 143.567C55.8298 143.722 55.6448 143.844 55.4413 143.927C55.2377 144.01 55.0198 144.051 54.8001 144.048Z" fill="#263238"/>
<path opacity="0.3" d="M54.8001 144.048H52.0001C51.562 144.048 51.1418 143.874 50.832 143.564C50.5222 143.254 50.3481 142.834 50.3481 142.396V129.624H56.4721V142.384C56.4737 142.604 56.4315 142.821 56.348 143.025C56.2644 143.228 56.1412 143.412 55.9855 143.567C55.8298 143.722 55.6448 143.844 55.4413 143.927C55.2377 144.01 55.0198 144.051 54.8001 144.048Z" fill="white"/>
<path d="M50.0601 91C50.128 102.064 51.2601 124.692 59.2201 129.612H37.116C36.7261 129.612 36.3431 129.508 36.0065 129.311C35.6698 129.115 35.3915 128.832 35.2 128.492C33.244 125.024 27.864 113.324 28.776 90.792C28.8421 89.1999 29.5215 87.695 30.6719 86.5923C31.8222 85.4896 33.3545 84.8746 34.948 84.876H43.884C45.5134 84.8749 47.077 85.5181 48.234 86.6653C49.391 87.8126 50.0474 89.3707 50.0601 91Z" fill="#263238"/>
<path d="M52.4601 91C52.5281 102.064 53.6602 124.692 61.6202 129.612H38.2882C38.2882 129.612 30.0642 118.236 31.1762 90.812C31.2422 89.2199 31.9216 87.715 33.072 86.6123C34.2224 85.5096 35.7546 84.8946 37.3482 84.896H46.2842C47.91 84.8948 49.4707 85.5353 50.6271 86.6782C51.7835 87.8211 52.4422 89.3742 52.4601 91Z" fill="#263238"/>
<path opacity="0.3" d="M52.4601 91C52.5281 102.064 53.6602 124.692 61.6202 129.612H38.2882C38.2882 129.612 30.0642 118.236 31.1762 90.812C31.2422 89.2199 31.9216 87.715 33.072 86.6123C34.2224 85.5096 35.7546 84.8946 37.3482 84.896H46.2842C47.91 84.8948 49.4707 85.5353 50.6271 86.6782C51.7835 87.8211 52.4422 89.3742 52.4601 91Z" fill="white"/>
<path d="M40.3999 126.592H67.1999C67.7303 126.592 68.239 126.803 68.6141 127.178C68.9892 127.553 69.1999 128.062 69.1999 128.592V131.268H38.3999V128.592C38.3999 128.062 38.6106 127.553 38.9857 127.178C39.3608 126.803 39.8695 126.592 40.3999 126.592Z" fill="#263238"/>
<path d="M69.6642 128.928H37.9402C37.4962 128.928 37.1362 129.288 37.1362 129.732V130.46C37.1362 130.904 37.4962 131.264 37.9402 131.264H69.6642C70.1083 131.264 70.4682 130.904 70.4682 130.46V129.732C70.4682 129.288 70.1083 128.928 69.6642 128.928Z" fill="#263238"/>
<path opacity="0.6" d="M69.6642 128.928H37.9402C37.4962 128.928 37.1362 129.288 37.1362 129.732V130.46C37.1362 130.904 37.4962 131.264 37.9402 131.264H69.6642C70.1083 131.264 70.4682 130.904 70.4682 130.46V129.732C70.4682 129.288 70.1083 128.928 69.6642 128.928Z" fill="white"/>
<path d="M80.356 166.98H82.804L87.208 105.684H83.956L80.356 166.98Z" fill="#263238"/>
<path opacity="0.4" d="M80.3521 166.98H82.804L86.992 108.728L87.208 105.78H83.956L83.78 108.728L80.3521 166.98Z" fill="white"/>
<path opacity="0.2" d="M83.7798 108.58H86.9918L87.2078 105.78H83.9558L83.7798 108.58Z" fill="black"/>
<path d="M87.4639 151.128L84.6879 150.86C84.6879 150.86 81.4279 141.968 78.1759 134.008C75.5519 127.608 72.9359 121.78 72.0439 121.744C71.6619 121.774 71.2854 121.853 70.9239 121.98C65.9599 123.432 47.8719 130.932 43.2679 126.248C38.1639 121.048 45.5439 108.552 45.5439 108.552C45.5439 108.552 57.8199 106.8 58.7439 109.572C58.9714 110.389 59.1451 111.22 59.2639 112.06C59.4039 112.908 59.4999 113.62 59.4999 113.62C59.8799 113.524 72.2039 110.344 77.0599 113.62C81.9999 116.956 87.4639 151.128 87.4639 151.128Z" fill="#E4897B"/>
<path d="M91.7599 155.82C91.3587 155.637 90.9279 155.527 90.4879 155.496C90.4879 155.496 88.9679 154.604 87.4639 151.128H85.7719C85.4854 151.132 85.207 151.223 84.9739 151.39C84.7408 151.556 84.5642 151.79 84.4679 152.06C84.4401 152.136 84.4239 152.215 84.4199 152.296C84.4407 152.698 84.4848 153.099 84.5519 153.496C84.7997 154.848 85.1296 156.184 85.5399 157.496L85.8279 157.424L85.3079 154.9C85.1319 154.04 86.0359 154.868 86.4519 155.736C86.8679 156.604 87.5119 157.472 89.3839 157.044C91.5639 156.528 92.4399 156.212 91.7599 155.82Z" fill="#2E353A"/>
<path d="M87.1559 150.22C87.1559 150.22 89.2719 154.644 90.4879 155.496C90.4879 155.496 88.8559 156.472 87.1559 154.296C84.9599 151.496 84.4199 152.296 84.4199 152.296C84.4656 151.813 84.5553 151.335 84.6879 150.868C85.0159 149.956 87.1559 150.22 87.1559 150.22Z" fill="#E4897B"/>
<path d="M68.468 166.36C68.1232 166.087 67.7314 165.88 67.312 165.748C67.312 165.748 66.048 164.52 65.412 160.788L63.768 160.388C63.4893 160.323 63.1974 160.345 62.9318 160.452C62.6663 160.558 62.4401 160.744 62.284 160.984C62.2398 161.051 62.2048 161.124 62.18 161.2C62.1 161.596 62.0452 161.997 62.016 162.4C61.9391 163.767 61.9457 165.138 62.036 166.504H62.332L62.424 163.924C62.46 163.048 63.136 164.068 63.34 165.008C63.544 165.948 63.956 166.948 65.876 166.976C68.112 167 69.04 166.904 68.468 166.36Z" fill="#2E353A"/>
<path d="M65.3278 159.828C65.3278 159.828 66.3318 164.628 67.3278 165.748C67.3278 165.748 65.5118 166.304 64.3758 163.8C62.9038 160.556 62.1958 161.188 62.1958 161.188C62.3546 160.73 62.5541 160.287 62.7918 159.864C63.3118 159.064 65.3278 159.828 65.3278 159.828Z" fill="#E4897B"/>
<path opacity="0.1" d="M65.3278 159.828C65.3278 159.828 66.3318 164.628 67.3278 165.748C67.3278 165.748 65.5118 166.304 64.3758 163.8C62.9038 160.556 62.1958 161.188 62.1958 161.188C62.3546 160.73 62.5541 160.287 62.7918 159.864C63.3118 159.064 65.3278 159.828 65.3278 159.828Z" fill="black"/>
<path opacity="0.2" d="M78.1758 134C75.5518 127.6 72.9358 121.772 72.0438 121.736C71.6618 121.766 71.2853 121.845 70.9238 121.972L70.9598 120.512C73.2327 120.701 75.3569 121.719 76.9278 123.372C78.6438 125.24 78.4678 130.696 78.1758 134Z" fill="black"/>
<path d="M52.084 127.496C52.084 127.496 65.996 126.036 67.448 127.292C68.968 128.608 65.296 131.264 62.776 159.864L65.412 160.788C65.412 160.788 75.868 129.916 75.768 125.816C75.668 121.716 70.968 120.516 70.968 120.516C70.968 120.516 61.796 125.816 52.084 127.496Z" fill="#E4897B"/>
<path opacity="0.1" d="M75.768 125.816C75.868 129.916 65.412 160.788 65.412 160.788L62.776 159.864C65.296 131.264 68.968 128.608 67.448 127.292C67.12 127.008 66.14 126.864 64.828 126.812C61.9939 126.765 59.1593 126.868 56.336 127.12C53.936 127.304 52.084 127.496 52.084 127.496C53.312 127.284 54.532 127.012 55.728 126.696C61.0326 125.25 66.146 123.176 70.96 120.52C70.96 120.52 75.668 121.716 75.768 125.816Z" fill="black"/>
<path opacity="0.2" d="M70.96 120.52C70.768 120.684 66.9 123.992 64.828 126.812C61.9939 126.765 59.1593 126.868 56.336 127.12L55.728 126.7C61.0329 125.252 66.1463 123.178 70.96 120.52Z" fill="black"/>
<path d="M68.4001 112.204L61.7201 130.684C61.7201 130.684 45.6281 130.284 42.4641 127.048C39.3001 123.812 40.4081 118.42 42.8641 114.624C45.3201 110.828 57.6641 110.116 57.6641 110.116L60.2921 113.432C60.2921 113.432 64.7281 112.204 68.4001 112.204Z" fill="#263238"/>
<path opacity="0.1" d="M68.4001 112.204L61.7201 130.684C61.7201 130.684 45.6281 130.284 42.4641 127.048C39.3001 123.812 40.4081 118.42 42.8641 114.624C45.3201 110.828 57.6641 110.116 57.6641 110.116L59.2001 112.08L60.2081 113.352L60.2721 113.432C60.2721 113.432 64.7281 112.204 68.4001 112.204Z" fill="white"/>
<path opacity="0.3" d="M60.2078 113.352L52.3198 115.116C52.3198 115.116 56.2318 112.956 59.1998 112.08L60.2078 113.352Z" fill="black"/>
<path d="M58.7441 109.572L60.2721 113.432L56.5561 114.232L54.5841 112.176L50.1841 116.468L40.1641 116.948L45.5241 108.548L45.0441 102L44.4881 94.684L44.0241 88.58C44.0241 88.58 49.0881 86.52 53.3201 86.74C57.5521 86.96 60.9201 87.5 60.9201 87.5C63.5481 93.816 58.7441 109.572 58.7441 109.572Z" fill="#5200D9"/>
<path opacity="0.2" d="M58.7441 109.572L60.2721 113.432L56.5561 114.232L54.5841 112.176L50.1841 116.468L40.1641 116.948L45.5241 108.548L45.0441 102L44.4881 94.684L44.0241 88.58C44.0241 88.58 49.0881 86.52 53.3201 86.74C57.5521 86.96 60.9201 87.5 60.9201 87.5C63.5481 93.816 58.7441 109.572 58.7441 109.572Z" fill="black"/>
<path d="M33.664 86.472C33.6854 86.5137 33.6975 86.5596 33.6994 86.6065C33.7014 86.6533 33.6931 86.7 33.6753 86.7434C33.6574 86.7868 33.6303 86.8257 33.5959 86.8576C33.5615 86.8895 33.5206 86.9135 33.476 86.928L30.024 88.128C29.9274 88.16 29.8226 88.1561 29.7286 88.1172C29.6346 88.0783 29.5577 88.0069 29.512 87.916L26.36 81.38C26.3372 81.3359 26.3237 81.2876 26.3202 81.2381C26.3168 81.1885 26.3235 81.1388 26.34 81.092C26.3565 81.0452 26.3824 81.0022 26.4161 80.9657C26.4498 80.9293 26.4906 80.9001 26.536 80.88L29.988 79.68C30.0924 79.6579 30.2012 79.6715 30.297 79.7186C30.3927 79.7658 30.4699 79.8437 30.516 79.94L33.664 86.472Z" fill="#263238"/>
<path opacity="0.5" d="M30.1162 80.02L33.3162 86.624C33.3405 86.6606 33.3558 86.7025 33.3607 86.7462C33.3656 86.7899 33.36 86.8341 33.3444 86.8752C33.3287 86.9163 33.3035 86.953 33.2707 86.9824C33.238 87.0118 33.1987 87.0329 33.1562 87.044L30.2322 88.068C30.0362 88.136 29.6362 88.152 29.5482 87.968L26.3482 81.34C26.2602 81.152 26.5402 80.88 26.7482 80.812L29.6722 79.788C29.7618 79.7653 29.8565 79.7765 29.9384 79.8193C30.0203 79.8621 30.0836 79.9335 30.1162 80.02Z" fill="white"/>
<path d="M32.6798 93.896L30.3478 89.228C30.3478 89.228 31.9998 85.6 31.4958 85.088C30.9918 84.576 30.4278 82.788 29.4958 82.644C28.5638 82.5 27.3398 86.832 27.3398 87.2C27.3398 87.568 28.2118 89.772 28.2118 89.772L30.2678 96.172L32.6798 93.896Z" fill="#E4897B"/>
<path d="M65.2798 84L63.5398 85.9L62.1918 84.16C62.1918 84.16 61.9558 84.752 61.5918 84.784C61.2278 84.816 58.9878 85.984 58.5838 85.532C58.4232 85.2889 58.3105 85.0174 58.2518 84.732C58.1006 84.1272 57.9844 83.5142 57.9038 82.896C57.9038 82.896 61.6798 80.72 62.1158 81.06C62.1638 81.096 62.2358 81.16 62.3278 81.24C63.1038 81.928 65.2798 84 65.2798 84Z" fill="#E4897B"/>
<path opacity="0.2" d="M62.3278 81.24C62.0838 82.44 61.2238 84.26 58.2518 84.732C58.1006 84.1272 57.9844 83.5142 57.9038 82.896C57.9038 82.896 61.6798 80.72 62.1158 81.06C62.1638 81.096 62.2358 81.16 62.3278 81.24Z" fill="black"/>
<path d="M72.6758 95.556C71.4758 98.244 66.9238 97.268 63.7958 96.208C62.7419 95.8511 61.7072 95.4398 60.6958 94.976L60.7718 92.532L60.9278 87.488L64.5038 89.78L67.0358 91.404L62.3998 84.8L64.5998 82.656C64.5998 82.656 74.5758 91.34 72.6758 95.556Z" fill="#5200D9"/>
<path opacity="0.2" d="M72.6758 95.556C71.4758 98.244 66.9238 97.268 63.7958 96.208C62.7419 95.8511 61.7072 95.4398 60.6958 94.976L60.7718 92.532L60.9278 87.488L64.5038 89.78L67.0358 91.404L62.3998 84.8L64.5998 82.656C64.5998 82.656 74.5758 91.34 72.6758 95.556Z" fill="black"/>
<path opacity="0.2" d="M63.7958 96.208C62.7419 95.851 61.7072 95.4398 60.6958 94.976L60.7718 92.532L61.5718 90.632C61.5718 90.632 63.3038 93.388 63.7958 96.208Z" fill="black"/>
<path opacity="0.2" d="M68.4001 93.896C68.4001 93.896 64.9001 92.728 64.5161 89.78L67.0481 91.404L68.4001 93.896Z" fill="black"/>
<path opacity="0.6" d="M50.1998 100.52H51.7758C51.9503 100.52 52.0918 100.379 52.0918 100.204V97.228C52.0918 97.0535 51.9503 96.912 51.7758 96.912H50.1998C50.0253 96.912 49.8838 97.0535 49.8838 97.228V100.204C49.8838 100.379 50.0253 100.52 50.1998 100.52Z" fill="white"/>
<path opacity="0.2" d="M50.168 99.596H51.96V97.144H50.168V99.596Z" fill="black"/>
<path d="M51.2202 96.04H50.8242V97.484H51.2202V96.04Z" fill="#263238"/>
<path opacity="0.2" d="M45.0438 102L44.4878 94.684L45.6878 93.588C45.6878 93.588 47.0038 97.944 45.0438 102Z" fill="black"/>
<path opacity="0.4" d="M49.416 88.568C49.416 88.568 54.1 99.628 54.448 103.684C54.448 103.684 57.532 94.044 57.164 89.284L49.416 88.568Z" fill="white"/>
<path d="M46.9639 89.068C46.9639 89.068 48.2119 84.716 52.9639 85.112C57.7159 85.508 59.5439 89.968 59.5439 89.968L57.3199 88.832L54.7999 96.18L50.2079 88.908L46.9639 89.068Z" fill="#5200D9"/>
<path opacity="0.6" d="M46.9639 89.068C46.9639 89.068 48.2119 84.716 52.9639 85.112C57.7159 85.508 59.5439 89.968 59.5439 89.968L57.3199 88.832L54.7999 96.18L50.2079 88.908L46.9639 89.068Z" fill="white"/>
<path d="M50.8962 72.716C50.8962 72.716 50.6722 70.716 48.0362 70.576C45.4002 70.436 43.1842 72.288 44.7642 75.468C46.3442 78.648 46.3962 82.208 44.2362 82.644C44.2362 82.644 48.4762 84.608 49.2482 77.932L50.8962 72.716Z" fill="#263238"/>
<path d="M57.9998 71.8C57.9998 71.8 55.5398 68.788 50.7998 72.2C46.0598 75.612 49.7758 82.8 53.4758 82.6C57.1758 82.4 57.9998 71.8 57.9998 71.8Z" fill="#263238"/>
<path d="M56.0481 86.092C56.0713 86.6083 56.1993 87.1146 56.4241 87.58L54.4801 93.18L49.8721 87.068C51.5161 86.856 52.4761 84.828 52.9681 83.32C53.1359 82.7959 53.2695 82.2614 53.3681 81.72V81.668L53.4721 81.728L57.1841 83.82C56.8096 84.0633 56.5069 84.4021 56.3072 84.8015C56.1074 85.201 56.018 85.6465 56.0481 86.092Z" fill="#E4897B"/>
<path opacity="0.2" d="M57.2001 83.82C56.8204 84.0598 56.5121 84.3972 56.3074 84.7968C56.1026 85.1965 56.0089 85.6438 56.0361 86.092C55.3482 85.8894 54.7145 85.5352 54.1815 85.0555C53.6485 84.5758 53.2298 83.9828 52.9561 83.32C53.1239 82.7959 53.2575 82.2614 53.3561 81.72H53.4721L57.2001 83.82Z" fill="black"/>
<path d="M53.812 71.676C53.812 71.676 56.612 69.276 59.844 70.876C63.076 72.476 63.044 77.304 60.872 78.952C58.7 80.6 53.812 71.676 53.812 71.676Z" fill="#263238"/>
<path d="M55.7881 72.68C59.1801 72.344 60.4521 74.052 61.0481 77.524C61.7921 81.86 61.1321 85.064 56.7961 84.548C50.9081 83.856 50.1521 73.24 55.7881 72.68Z" fill="#E4897B"/>
<path d="M58.8359 77.552C59.1563 78.0319 59.5337 78.4711 59.9599 78.86C59.875 79.0102 59.7499 79.1339 59.5988 79.2172C59.4476 79.3006 59.2763 79.3403 59.1039 79.332L58.8359 77.552Z" fill="#DE5753"/>
<path d="M56.732 77.48C56.764 77.756 56.64 78 56.456 78.024C56.272 78.048 56.092 77.84 56.056 77.56C56.02 77.28 56.144 77.04 56.328 77.016C56.512 76.992 56.696 77.2 56.732 77.48Z" fill="#263238"/>
<path d="M56.2559 77.04L56.8319 76.728C56.8319 76.728 56.5959 77.276 56.2559 77.04Z" fill="#263238"/>
<path d="M60.1802 76.996C60.2162 77.276 60.0922 77.52 59.9082 77.54C59.7242 77.56 59.5442 77.356 59.5082 77.08C59.4722 76.804 59.5962 76.556 59.7842 76.536C59.9722 76.516 60.1442 76.72 60.1802 76.996Z" fill="#263238"/>
<path d="M59.708 76.556L60.284 76.244C60.284 76.244 60.044 76.8 59.708 76.556Z" fill="#263238"/>
<path d="M56.4639 75.14C56.1926 75.1345 55.9236 75.1911 55.6775 75.3054C55.4314 75.4198 55.2147 75.589 55.0439 75.8" stroke="#263238" stroke-width="0.72468" stroke-linecap="round" stroke-linejoin="round"/>
<path d="M58.916 74.752C59.1421 74.6709 59.3835 74.6417 59.6224 74.6666C59.8613 74.6916 60.0916 74.77 60.296 74.896" stroke="#263238" stroke-width="0.72468" stroke-linecap="round" stroke-linejoin="round"/>
<path d="M52.644 78.764C52.644 78.764 53.956 75.82 53.5 73.692C53.5 73.692 59.952 70.28 60.96 77.072C60.96 77.072 61.016 70.944 55.172 71.388C49.328 71.832 50.196 80.364 53.46 82.608C53.46 82.608 51.836 80.608 52.644 78.764Z" fill="#263238"/>
<path d="M53.272 79.428C53.1981 79.0393 52.9741 78.6954 52.6484 78.4708C52.3227 78.2462 51.9216 78.159 51.532 78.228C50.492 78.448 50.204 80.656 52.872 80.916C53.256 80.952 53.432 80.564 53.272 79.428Z" fill="#E4897B"/>
<path d="M59.5481 80.66C59.4119 81.0515 59.3049 81.4526 59.2281 81.86H59.0081C58.0121 81.828 57.5601 81.484 57.3641 81.108C57.27 80.925 57.2219 80.7218 57.2241 80.516C57.2208 80.4 57.2342 80.2841 57.2641 80.172C57.8714 80.4651 58.534 80.626 59.2081 80.644C59.4161 80.66 59.5481 80.66 59.5481 80.66Z" fill="#263238"/>
<path d="M59.1998 80.644L59.0958 80.996C58.1558 80.96 57.4958 80.812 57.2158 80.516C57.2125 80.4 57.2259 80.2841 57.2558 80.172C57.8631 80.4651 58.5257 80.626 59.1998 80.644Z" fill="white"/>
<path d="M59.0078 81.86C58.0118 81.828 57.5598 81.484 57.3638 81.108C57.7413 81.1314 58.112 81.2193 58.4598 81.368C58.6895 81.4705 58.8812 81.6426 59.0078 81.86Z" fill="#DE5753"/>
<path d="M61.3441 75.884C61.3441 75.884 60.5961 75.612 59.2081 76.104C59.0027 76.0417 58.7868 76.022 58.5736 76.046C58.3604 76.0701 58.1543 76.1375 57.9681 76.244C57.0955 76.2477 56.2313 76.4146 55.4201 76.736L52.7681 77.744V78.032L55.4721 77.336C55.6961 78 56.3001 79.016 57.2121 78.828C58.4121 78.58 58.3521 77.324 58.2601 76.736C58.5161 76.44 59.0001 76.396 59.0961 76.624C59.1961 77.144 59.5281 78.344 60.8001 78.272C62.0721 78.2 61.3441 75.884 61.3441 75.884Z" fill="#5200D9"/>
<path opacity="0.2" d="M61.3441 75.884C61.3441 75.884 60.5961 75.612 59.2081 76.104C59.0027 76.0417 58.7868 76.022 58.5736 76.046C58.3604 76.0701 58.1543 76.1375 57.9681 76.244C57.0955 76.2477 56.2313 76.4146 55.4201 76.736L52.7681 77.744V78.032L55.4721 77.336C55.6961 78 56.3001 79.016 57.2121 78.828C58.4121 78.58 58.3521 77.324 58.2601 76.736C58.5161 76.44 59.0001 76.396 59.0961 76.624C59.1961 77.144 59.5281 78.344 60.8001 78.272C62.0721 78.2 61.3441 75.884 61.3441 75.884Z" fill="black"/>
<g opacity="0.3">
<path d="M60.888 76.052L60.356 78.024C60.356 78.024 61.108 78.28 61.308 77.676C61.4114 77.1375 61.3937 76.5827 61.256 76.052C61.1343 76.0302 61.0097 76.0302 60.888 76.052Z" fill="white"/>
<path d="M60.7162 76.036L60.1842 78.036C60.1842 78.036 59.8482 77.932 59.8442 77.804L60.2842 76.104C60.2842 76.104 60.5922 76.048 60.7162 76.036Z" fill="white"/>
<path d="M57.4964 76.54L56.9644 78.512C56.9644 78.512 57.7164 78.764 57.9204 78.16C58.0213 77.6225 58.0021 77.0693 57.8644 76.54C57.7427 76.5182 57.6181 76.5182 57.4964 76.54Z" fill="white"/>
<path d="M57.3241 76.52L56.7961 78.52C56.7961 78.52 56.4561 78.416 56.4521 78.288L56.8921 76.588C56.8921 76.588 57.2001 76.532 57.3241 76.52Z" fill="white"/>
</g>
<path d="M55.668 72.548C55.668 72.548 56.468 76.32 53.812 77.932" stroke="#263238" stroke-width="0.5" stroke-linecap="round" stroke-linejoin="round"/>
<path d="M55.7399 72.944C55.7399 72.944 54.9399 78.66 51.4039 78.944C47.8679 79.228 51.2199 72.848 52.6039 71.612C53.2439 71.044 55.4719 70.264 55.7399 72.944Z" fill="#263238"/>
<path d="M44.0241 88.568C42.5041 88.78 37.6521 98.644 36.4921 98.648C35.3321 98.652 31.6921 90.972 31.6921 90.972L28.6841 93.2C28.6841 93.2 32.2841 105.512 36.3561 104.936C40.7561 104.312 45.5561 97.124 45.5561 97.124C45.7361 95.5491 45.7361 93.9589 45.5561 92.384C45.3519 91.0094 44.8271 89.7022 44.0241 88.568Z" fill="#5200D9"/>
<path opacity="0.2" d="M44.0241 88.568C42.5041 88.78 37.6521 98.644 36.4921 98.648C35.3321 98.652 31.6921 90.972 31.6921 90.972L28.6841 93.2C28.6841 93.2 32.2841 105.512 36.3561 104.936C40.7561 104.312 45.5561 97.124 45.5561 97.124C45.7361 95.5491 45.7361 93.9589 45.5561 92.384C45.3519 91.0094 44.8271 89.7022 44.0241 88.568Z" fill="black"/>
<path d="M106.212 84.656H97.876V97.744H106.212V84.656Z" fill="white"/>
<path opacity="0.2" d="M106.212 84.656H97.876V97.744H106.212V84.656Z" fill="black"/>
<path d="M103.992 84.656H95.6558V97.744H103.992V84.656Z" fill="white"/>
<path opacity="0.1" d="M103.992 84.656H95.6558V97.744H103.992V84.656Z" fill="black"/>
<path d="M106.844 85.352V102.756H95.292V89.788L101.288 85.352H106.844Z" fill="#263238"/>
<path opacity="0.2" d="M106.844 85.352H103.336V102.756H106.844V85.352Z" fill="black"/>
<path opacity="0.4" d="M106.484 88.084H103.872V89.304H106.484V88.084Z" fill="white"/>
<path opacity="0.4" d="M106.484 90.084H103.872V94.032H106.484V90.084Z" fill="white"/>
<path opacity="0.4" d="M106.484 95.104H103.872V96.128H106.484V95.104Z" fill="white"/>
<path d="M100.212 84.256H91.876V97.344H100.212V84.256Z" fill="white"/>
<path opacity="0.2" d="M100.212 84.256H91.876V97.344H100.212V84.256Z" fill="black"/>
<path d="M97.9918 84.256H89.6558V97.344H97.9918V84.256Z" fill="white"/>
<path opacity="0.1" d="M97.9918 84.256H89.6558V97.344H97.9918V84.256Z" fill="black"/>
<path d="M100.844 85.352V102.756H89.292V89.788L95.288 85.352H100.844Z" fill="#5200D9"/>
<path opacity="0.2" d="M100.844 85.352H97.3359V102.756H100.844V85.352Z" fill="black"/>
<path opacity="0.4" d="M100.484 88.084H97.8721V89.304H100.484V88.084Z" fill="white"/>
<path opacity="0.4" d="M100.484 90.084H97.8721V94.032H100.484V90.084Z" fill="white"/>
<path opacity="0.4" d="M100.484 95.104H97.8721V96.128H100.484V95.104Z" fill="white"/>
<path d="M81.5719 166.98H84.0199L84.4239 105.684H81.1719L81.5719 166.98Z" fill="#263238"/>
<path opacity="0.5" d="M81.168 105.78L81.232 115.672L81.568 166.98H84.02L84.356 115.672L84.42 105.78H81.168Z" fill="white"/>
<path opacity="0.2" d="M81.168 105.78L81.232 115.78H84.356L84.42 105.78H81.168Z" fill="black"/>
<path d="M55.5562 166.98H58.0042L62.4082 105.684H59.1562L55.5562 166.98Z" fill="#263238"/>
<path opacity="0.5" d="M55.5518 166.98H58.0038L62.1918 108.728L62.4078 105.78H59.1558L58.9798 108.728L55.5518 166.98Z" fill="white"/>
<path opacity="0.2" d="M58.98 108.58H62.192L62.408 105.78H59.156L58.98 108.58Z" fill="black"/>
<path d="M108.388 166.98H110.84L107.236 105.684H103.984L108.388 166.98Z" fill="#263238"/>
<path opacity="0.5" d="M103.984 105.78L104.2 108.728L108.388 166.98H110.836L107.412 108.728L107.236 105.78H103.984Z" fill="white"/>
<path opacity="0.2" d="M107.236 105.78H103.984L104.2 108.58H107.412L107.236 105.78Z" fill="black"/>
<path d="M108.948 107.22L57.444 107.22C57.3306 107.22 57.2182 107.198 57.1134 107.154C57.0085 107.111 56.9133 107.047 56.8331 106.967C56.7528 106.887 56.6892 106.791 56.6458 106.687C56.6024 106.582 56.58 106.469 56.58 106.356V104.168H109.812V106.372C109.808 106.598 109.715 106.814 109.553 106.973C109.392 107.131 109.174 107.22 108.948 107.22Z" fill="#5200D9"/>
<path opacity="0.6" d="M108.948 107.22L57.444 107.22C57.3306 107.22 57.2182 107.198 57.1134 107.154C57.0085 107.111 56.9133 107.047 56.8331 106.967C56.7528 106.887 56.6892 106.791 56.6458 106.687C56.6024 106.582 56.58 106.469 56.58 106.356V104.168H109.812V106.372C109.808 106.598 109.715 106.814 109.553 106.973C109.392 107.131 109.174 107.22 108.948 107.22Z" fill="white"/>
<path opacity="0.2" d="M56.58 105.684H109.812V104.148H56.58V105.684Z" fill="black"/>
<path d="M55.0598 104.548H111.332C111.445 104.548 111.558 104.526 111.662 104.482C111.767 104.439 111.863 104.375 111.943 104.295C112.023 104.215 112.087 104.119 112.13 104.015C112.173 103.91 112.196 103.797 112.196 103.684C112.196 103.571 112.173 103.458 112.13 103.353C112.087 103.249 112.023 103.153 111.943 103.073C111.863 102.993 111.767 102.929 111.662 102.886C111.558 102.842 111.445 102.82 111.332 102.82H55.0598C54.9463 102.82 54.834 102.842 54.7292 102.886C54.6243 102.929 54.5291 102.993 54.4489 103.073C54.3686 103.153 54.305 103.249 54.2616 103.353C54.2181 103.458 54.1958 103.571 54.1958 103.684C54.1958 103.797 54.2181 103.91 54.2616 104.015C54.305 104.119 54.3686 104.215 54.4489 104.295C54.5291 104.375 54.6243 104.439 54.7292 104.482C54.834 104.526 54.9463 104.548 55.0598 104.548Z" fill="#5200D9"/>
<path opacity="0.6" d="M55.0598 104.548H111.332C111.445 104.548 111.558 104.526 111.662 104.482C111.767 104.439 111.863 104.375 111.943 104.295C112.023 104.215 112.087 104.119 112.13 104.015C112.173 103.91 112.196 103.797 112.196 103.684C112.196 103.571 112.173 103.458 112.13 103.353C112.087 103.249 112.023 103.153 111.943 103.073C111.863 102.993 111.767 102.929 111.662 102.886C111.558 102.842 111.445 102.82 111.332 102.82H55.0598C54.9463 102.82 54.834 102.842 54.7292 102.886C54.6243 102.929 54.5291 102.993 54.4489 103.073C54.3686 103.153 54.305 103.249 54.2616 103.353C54.2181 103.458 54.1958 103.571 54.1958 103.684C54.1958 103.797 54.2181 103.91 54.2616 104.015C54.305 104.119 54.3686 104.215 54.4489 104.295C54.5291 104.375 54.6243 104.439 54.7292 104.482C54.834 104.526 54.9463 104.548 55.0598 104.548Z" fill="white"/>
<path d="M94.5958 101.2V102.26C94.5958 102.576 94.0518 102.8 93.7358 102.8H69.0198C68.7038 102.8 68.1958 102.576 68.1958 102.26V101.2H94.5958Z" fill="#263238"/>
<path opacity="0.6" d="M94.5958 101.2V102.26C94.5958 102.576 94.0518 102.8 93.7358 102.8H69.0198C68.7038 102.8 68.1958 102.576 68.1958 102.26V101.2H94.5958Z" fill="white"/>
<path opacity="0.2" d="M94.5962 101.2V102.26C94.5962 102.576 94.0522 102.8 93.7362 102.8H77.4362C77.1162 102.8 76.5962 102.576 76.5962 102.26V101.2H94.5962Z" fill="black"/>
<path d="M98.56 88.184L95.6 101.576C95.5493 101.794 95.4291 101.99 95.2574 102.135C95.0857 102.279 94.8719 102.364 94.648 102.376H78.588C78.4852 102.366 78.3859 102.334 78.2971 102.281C78.2083 102.228 78.1324 102.156 78.0746 102.07C78.0169 101.985 77.9788 101.887 77.9632 101.785C77.9475 101.683 77.9546 101.579 77.984 101.48L80.924 88.232C80.9884 88.034 81.118 87.8637 81.2916 87.7489C81.4652 87.6342 81.6727 87.5816 81.88 87.6H97.952C98.4 87.6 98.656 87.752 98.56 88.184Z" fill="#263238"/>
<path opacity="0.6" d="M98.56 88.184L95.6 101.576C95.5493 101.794 95.4291 101.99 95.2574 102.135C95.0857 102.279 94.8719 102.364 94.648 102.376H78.588C78.4852 102.366 78.3859 102.334 78.2971 102.281C78.2083 102.228 78.1324 102.156 78.0746 102.07C78.0169 101.985 77.9788 101.887 77.9632 101.785C77.9475 101.683 77.9546 101.579 77.984 101.48L80.924 88.232C80.9884 88.034 81.118 87.8637 81.2916 87.7489C81.4652 87.6342 81.6727 87.5816 81.88 87.6H97.952C98.4 87.6 98.656 87.752 98.56 88.184Z" fill="white"/>
<path opacity="0.4" d="M98.5599 88.184L95.5999 101.576C95.5491 101.794 95.4289 101.99 95.2572 102.135C95.0856 102.279 94.8717 102.364 94.6479 102.376H79.1359C79.0327 102.367 78.9329 102.335 78.8437 102.282C78.7544 102.229 78.678 102.158 78.6198 102.072C78.5616 101.986 78.5232 101.889 78.5073 101.786C78.4914 101.684 78.4984 101.579 78.5279 101.48L81.4719 88.232C81.5318 88.0296 81.6595 87.8539 81.8335 87.7344C82.0076 87.615 82.2174 87.5591 82.4279 87.576H97.9519C98.3999 87.6 98.6559 87.752 98.5599 88.184Z" fill="white"/>
<path opacity="0.2" d="M89.1038 96.768C89.8518 96.768 90.6198 95.968 90.8158 94.976C91.0118 93.984 90.5598 93.18 89.8078 93.18C89.6708 93.1829 89.5354 93.21 89.4078 93.26C89.3385 93.6137 89.1868 93.9461 88.9652 94.2303C88.7435 94.5146 88.458 94.7426 88.1318 94.896C88.13 94.9226 88.13 94.9494 88.1318 94.976C87.8998 95.964 88.3518 96.768 89.1038 96.768Z" fill="black"/>
<path d="M40.132 129.708C39.9199 129.708 39.7164 129.624 39.5663 129.474C39.4163 129.324 39.332 129.12 39.332 128.908C39.5 119.78 42.484 113.832 43.652 111.844C43.7085 111.749 43.7839 111.667 43.8735 111.603C43.9631 111.539 44.065 111.494 44.1728 111.471C44.2805 111.448 44.3919 111.448 44.4998 111.47C44.6078 111.492 44.71 111.536 44.8 111.6L45.424 112.036L44.768 111.576L44.804 111.6C44.9691 111.714 45.0854 111.886 45.1299 112.081C45.1743 112.277 45.1437 112.482 45.044 112.656C43.988 114.48 41.104 120.236 40.936 128.928C40.9308 129.137 40.8437 129.336 40.6933 129.482C40.543 129.628 40.3415 129.709 40.132 129.708Z" fill="#263238"/>
<g opacity="0.2">
<path d="M40.132 129.708C39.9199 129.708 39.7164 129.624 39.5663 129.474C39.4163 129.324 39.332 129.12 39.332 128.908C39.5 119.78 42.484 113.832 43.652 111.844C43.7085 111.749 43.7839 111.667 43.8735 111.603C43.9631 111.539 44.065 111.494 44.1728 111.471C44.2805 111.448 44.3919 111.448 44.4998 111.47C44.6078 111.492 44.71 111.536 44.8 111.6L45.424 112.036L44.768 111.576L44.804 111.6C44.9691 111.714 45.0854 111.886 45.1299 112.081C45.1743 112.277 45.1437 112.482 45.044 112.656C43.988 114.48 41.104 120.236 40.936 128.928C40.9308 129.137 40.8437 129.336 40.6933 129.482C40.543 129.628 40.3415 129.709 40.132 129.708Z" fill="white"/>
</g>
<path d="M50.304 112.832H28.148C27.9749 112.832 27.8034 112.798 27.6435 112.731C27.4836 112.665 27.3383 112.568 27.2161 112.445C27.0938 112.322 26.997 112.177 26.9311 112.017C26.8652 111.857 26.8315 111.685 26.832 111.512C26.8315 111.339 26.8652 111.167 26.9311 111.007C26.997 110.847 27.0938 110.701 27.2161 110.579C27.3383 110.456 27.4836 110.359 27.6435 110.293C27.8034 110.226 27.9749 110.192 28.148 110.192H50.304C50.4772 110.192 50.6486 110.226 50.8086 110.293C50.9685 110.359 51.1138 110.456 51.236 110.579C51.3583 110.701 51.4551 110.847 51.521 111.007C51.5869 111.167 51.6206 111.339 51.62 111.512C51.6206 111.685 51.5869 111.857 51.521 112.017C51.4551 112.177 51.3583 112.322 51.236 112.445C51.1138 112.568 50.9685 112.665 50.8086 112.731C50.6486 112.798 50.4772 112.832 50.304 112.832Z" fill="#263238"/>
<path opacity="0.6" d="M50.304 112.832H28.148C27.9749 112.832 27.8034 112.798 27.6435 112.731C27.4836 112.665 27.3383 112.568 27.2161 112.445C27.0938 112.322 26.997 112.177 26.9311 112.017C26.8652 111.857 26.8315 111.685 26.832 111.512C26.8315 111.339 26.8652 111.167 26.9311 111.007C26.997 110.847 27.0938 110.701 27.2161 110.579C27.3383 110.456 27.4836 110.359 27.6435 110.293C27.8034 110.226 27.9749 110.192 28.148 110.192H50.304C50.4772 110.192 50.6486 110.226 50.8086 110.293C50.9685 110.359 51.1138 110.456 51.236 110.579C51.3583 110.701 51.4551 110.847 51.521 111.007C51.5869 111.167 51.6206 111.339 51.62 111.512C51.6206 111.685 51.5869 111.857 51.521 112.017C51.4551 112.177 51.3583 112.322 51.236 112.445C51.1138 112.568 50.9685 112.665 50.8086 112.731C50.6486 112.798 50.4772 112.832 50.304 112.832Z" fill="white"/>
</svg>
