<svg width="200" height="200" viewBox="0 0 200 200" fill="none" xmlns="http://www.w3.org/2000/svg">
<path d="M9.62793 86.22L16.3119 103.7H35.5119C35.5119 103.7 30.0239 101.128 27.7959 98.728C25.5679 96.328 15.4599 86.22 15.4599 86.22H9.62793Z" fill="#E0E0E0"/>
<path d="M12.1841 103.7H128.624C131.07 103.681 133.499 104.101 135.796 104.94C136.472 105.192 137.13 105.491 137.764 105.836C138.306 106.137 138.758 106.575 139.076 107.107C139.394 107.638 139.567 108.244 139.576 108.863C139.585 109.483 139.431 110.094 139.129 110.634C138.827 111.175 138.388 111.627 137.856 111.944C135.992 113.032 132.932 114.056 128.032 114.056C117.604 114.056 37.0561 112.536 37.0561 112.536C37.0561 112.536 13.3401 108.868 12.1841 103.7Z" fill="#EBEBEB"/>
<path d="M36.5601 106.4C36.5601 106.4 36.6681 107.272 37.9081 107.344H63.3201V106.4H36.5601Z" fill="#E0E0E0"/>
<path d="M101.18 106.416H68.8877V107.364H101.18V106.416Z" fill="#E0E0E0"/>
<path d="M125.748 106.416H106.852V107.364H125.748V106.416Z" fill="#E0E0E0"/>
<path d="M133.2 106.108V107.172H139C138.598 106.648 138.11 106.196 137.556 105.836L133.2 106.108Z" fill="#E0E0E0"/>
<path d="M127.012 114.056H126.04V117.328H127.012V114.056Z" fill="#E0E0E0"/>
<path d="M127.012 114.184C127.012 114.184 126.212 110.92 116.3 110.92H36.3999C34.9519 110.696 24.3239 109.788 24.7999 103.572H11.9999C11.9999 103.572 11.1999 104.772 17.5239 107.804C20.8719 109.404 30.6359 112.204 34.6879 112.552C36.2879 112.688 37.3719 112.66 38.4919 112.68L127.012 114.184Z" fill="#E0E0E0"/>
<path d="M75.1998 109.252C75.1998 109.252 60.7998 108.644 60.8918 113.712C60.8918 113.712 60.2158 118.148 75.1998 117.276V109.252Z" fill="#EBEBEB"/>
<path d="M74.5039 112.3C74.5039 112.3 78.8399 112.136 79.5599 113.264C77.913 113.733 76.2153 114.002 74.5039 114.064V112.3Z" fill="#EBEBEB"/>
<path d="M75.2002 117.276C75.1933 117.226 75.1933 117.174 75.2002 117.124C75.2002 117.008 75.2002 116.864 75.2002 116.692C75.2002 116.292 75.2001 115.736 75.1721 115.06C75.1721 113.636 75.1521 111.672 75.1361 109.384L75.2282 109.48C73.9602 109.42 72.5801 109.304 71.1361 109.272C70.3357 109.247 69.5344 109.268 68.7361 109.332C67.9681 109.408 67.2202 109.524 66.5202 109.652C65.2722 109.857 64.07 110.279 62.9682 110.9C62.0402 111.44 61.3322 112 61.0922 112.556C60.9751 112.843 60.9127 113.15 60.9082 113.46C60.89 113.38 60.8819 113.298 60.8842 113.216C60.8801 112.978 60.9265 112.742 61.0202 112.524C61.2482 111.928 61.9642 111.324 62.8922 110.772C64.0038 110.123 65.2233 109.68 66.4922 109.464C67.2002 109.328 67.9402 109.212 68.7242 109.128C69.5316 109.06 70.3423 109.039 71.1522 109.064C72.6042 109.096 73.9882 109.216 75.2522 109.288H75.3442V109.38C75.3442 111.668 75.3161 113.632 75.3041 115.056C75.3041 115.732 75.3042 116.28 75.2762 116.688C75.2762 116.86 75.2762 117.004 75.2762 117.12C75.2762 117.236 75.2002 117.276 75.2002 117.276Z" fill="#E0E0E0"/>
<path d="M72.8 117.34C72.6945 115.999 72.6598 114.653 72.696 113.308C72.6598 111.963 72.6945 110.617 72.8 109.276C72.903 110.617 72.9377 111.963 72.904 113.308C72.9377 114.653 72.903 115.999 72.8 117.34Z" fill="#E0E0E0"/>
<path d="M71.6761 117.388C71.573 116.032 71.5383 114.672 71.5721 113.312C71.5383 111.952 71.573 110.592 71.6761 109.236C71.7791 110.592 71.8138 111.952 71.7801 113.312C71.8138 114.672 71.7791 116.032 71.6761 117.388Z" fill="#E0E0E0"/>
<path d="M137.512 87.376C137.512 87.432 110.312 87.48 76.7121 87.48C43.1121 87.48 15.9121 87.432 15.9121 87.376C15.9121 87.32 43.1121 87.272 76.7121 87.272C110.312 87.272 137.512 87.32 137.512 87.376Z" fill="#E0E0E0"/>
<path d="M144.604 30.888C144.932 28.512 141.58 26.56 139.06 26.356C137.86 26.26 136.612 26.44 135.46 26.044C133.008 25.2 132.024 22 129.6 20.984C127.804 20.228 125.732 20.904 124 21.784C122.268 22.664 120.532 23.784 118.584 23.892C116.892 24 115.052 23.372 113.568 24.2C112.464 24.816 111.884 26.088 110.868 26.84C109.852 27.592 108.572 27.728 107.336 27.796C106.1 27.864 104.82 27.876 103.692 28.392C102.564 28.908 101.636 30.096 101.872 31.312L144.604 30.888Z" fill="#F5F5F5"/>
<path d="M68.5039 87.376L82.7279 82.768H88.7999L107.792 80.144L129.58 78.16L139.576 73.568L166.324 78.552L174.284 79.292L178.572 81.98L184.544 87.376H68.5039Z" fill="#E0E0E0"/>
<path d="M106.728 61.912C107.152 58.832 102.804 56.312 99.528 56.036C97.972 55.912 96.356 56.148 94.88 55.636C91.68 54.524 90.404 50.392 87.28 49.076C84.948 48.092 82.264 48.968 80 50.108C77.736 51.248 75.504 52.676 72.98 52.84C70.784 52.98 68.396 52.164 66.472 53.24C65.04 54.04 64.292 55.688 62.972 56.664C61.652 57.64 59.992 57.816 58.392 57.904C56.792 57.992 55.128 58.008 53.668 58.676C52.208 59.344 51.004 60.888 51.304 62.464L106.728 61.912Z" fill="#EBEBEB"/>
<path d="M191.94 78.16H175.492V87.376H191.94V78.16Z" fill="#EBEBEB"/>
<path d="M190.36 79.788H177.14V82.376H190.36V79.788Z" fill="#E0E0E0"/>
<path d="M178.352 54.508V58.108L181.364 60.684V78.16H187.072V60.668L189.796 58.012V54.508H178.352Z" fill="#EBEBEB"/>
<path d="M180.36 50.672H179.588V54.504H180.36V50.672Z" fill="#EBEBEB"/>
<path d="M182.016 52.508H181.244V56.34H182.016V52.508Z" fill="#EBEBEB"/>
<path d="M189.192 55.888H179.152V57.832H189.192V55.888Z" fill="#FAFAFA"/>
<path d="M187.012 181.116C187.012 181.172 146.612 181.22 96.8039 181.22C46.9959 181.22 6.58789 181.172 6.58789 181.116C6.58789 181.06 46.9879 181.012 96.8039 181.012C146.62 181.012 187.012 181.056 187.012 181.116Z" fill="#263238"/>
<path d="M47.6118 6.95999H44.3398V137.432H47.6118V6.95999Z" fill="#455A64"/>
<path d="M158.06 8.436H154.788V138.908H158.06V8.436Z" fill="#455A64"/>
<path d="M181.884 135.868H7.07568V138.996H181.884V135.868Z" fill="#455A64"/>
<path d="M112.724 42.72C112.756 42.764 103.008 50.24 90.9479 59.416C78.8879 68.592 69.0799 76 69.0479 75.948C69.0159 75.896 78.7599 68.428 90.8239 59.248C102.888 50.068 112.688 42.672 112.724 42.72Z" fill="#263238"/>
<path d="M116.98 33.912C117.016 33.956 110.58 39.112 102.58 45.404C94.5796 51.696 88.0996 56.776 88.0636 56.732C88.0276 56.688 94.4636 51.532 102.464 45.24C110.464 38.948 116.944 33.868 116.98 33.912Z" fill="#263238"/>
<path d="M35.7159 73.2C35.7519 73.244 28.5599 79.316 19.6479 86.76C10.7359 94.204 3.48389 100.2 3.44789 100.156C3.41189 100.112 10.6039 94.04 19.5159 86.592C28.4279 79.144 35.6799 73.148 35.7159 73.2Z" fill="#263238"/>
<path d="M39.6241 63.956C39.6601 64 33.3761 69.336 25.5881 75.872C17.8001 82.408 11.4561 87.676 11.4201 87.632C11.3841 87.588 17.6641 82.252 25.4561 75.712C33.2481 69.172 39.6001 63.912 39.6241 63.956Z" fill="#263238"/>
<path d="M190.512 95.772C190.548 95.816 183.356 101.888 174.444 109.332C165.532 116.776 158.28 122.776 158.244 122.732C158.208 122.688 165.4 116.62 174.312 109.172C183.224 101.724 190.476 95.728 190.512 95.772Z" fill="#263238"/>
<path d="M194.42 86.536C194.456 86.58 188.172 91.916 180.384 98.452C172.596 104.988 166.252 110.256 166.216 110.212C166.18 110.168 172.46 104.832 180.252 98.292C188.044 91.752 194.4 86.492 194.42 86.536Z" fill="#263238"/>
<path d="M36.352 103.704H15.832V139.124H36.352V103.704Z" fill="#263238"/>
<path d="M31.6001 108.104H20.4401C19.5609 108.104 18.8481 108.817 18.8481 109.696V112.056C18.8481 112.935 19.5609 113.648 20.4401 113.648H31.6001C32.4794 113.648 33.1921 112.935 33.1921 112.056V109.696C33.1921 108.817 32.4794 108.104 31.6001 108.104Z" fill="#455A64"/>
<path d="M36.4961 117.352C36.4961 117.412 31.9001 117.456 26.2361 117.456C20.5721 117.456 15.9761 117.412 15.9761 117.352C15.9761 117.292 20.5681 117.248 26.2361 117.248C31.9041 117.248 36.4961 117.296 36.4961 117.352Z" fill="#455A64"/>
<path d="M36.4961 134.504C36.4961 134.564 31.9001 134.612 26.2361 134.612C20.5721 134.612 15.9761 134.564 15.9761 134.504C15.9761 134.444 20.5681 134.4 26.2361 134.4C31.9041 134.4 36.4961 134.448 36.4961 134.504Z" fill="#455A64"/>
<path d="M102.028 68.516C102.407 68.1769 102.716 67.7657 102.936 67.3063C103.156 66.847 103.282 66.3486 103.308 65.84C103.327 65.3309 103.222 64.8246 103.003 64.3648C102.783 63.9049 102.456 63.5052 102.048 63.2C101.632 62.9047 101.141 62.7339 100.631 62.7076C100.122 62.6814 99.6156 62.8009 99.1717 63.052C98.4077 63.516 97.8757 64.404 96.9997 64.556C96.1237 64.708 95.2477 64.156 94.5557 64.612C94.1557 64.876 94.0077 65.38 93.6597 65.696C93.2117 66.096 92.5477 66.128 91.9837 66.356C91.5894 66.5225 91.2458 66.7897 90.9874 67.131C90.7291 67.4722 90.565 67.8754 90.5117 68.3C90.4117 69.208 90.8277 70.08 91.1797 70.92C91.5317 71.76 91.8197 72.724 91.4757 73.568" fill="#263238"/>
<path d="M92.6797 85.172L91.1997 69.296L91.6197 68.928C94.4597 66.452 95.7717 65.056 99.3197 66.328C100.119 66.6763 100.816 67.2241 101.342 67.9189C101.869 68.6138 102.208 69.4323 102.328 70.296C102.616 72.372 102.964 75.096 103.048 76.788C103.192 79.776 99.6877 80.44 99.6877 80.44L100.248 85.676L92.6797 85.172Z" fill="#FFBE9D"/>
<path d="M101.032 72.148C100.966 72.0943 100.917 72.0223 100.892 71.9409C100.867 71.8596 100.866 71.7726 100.89 71.6909C100.914 71.6093 100.962 71.5365 101.027 71.4818C101.092 71.4271 101.172 71.3929 101.257 71.3835C101.341 71.3741 101.427 71.3899 101.503 71.4289C101.578 71.468 101.641 71.5285 101.682 71.6029C101.724 71.6774 101.742 71.7624 101.735 71.8472C101.728 71.9321 101.697 72.0131 101.644 72.08C101.609 72.125 101.565 72.1626 101.514 72.1904C101.464 72.2183 101.409 72.2359 101.352 72.2422C101.295 72.2485 101.238 72.2434 101.183 72.2273C101.128 72.2111 101.076 72.1842 101.032 72.148Z" fill="#263238"/>
<path d="M102.224 71.364C102.18 71.416 101.872 71.208 101.464 71.232C101.056 71.256 100.768 71.488 100.716 71.436C100.664 71.384 100.736 71.32 100.86 71.212C101.027 71.0727 101.235 70.9926 101.452 70.984C101.667 70.9735 101.88 71.0324 102.06 71.152C102.196 71.248 102.244 71.336 102.224 71.364Z" fill="#263238"/>
<path d="M97.2001 72C97.2764 72.0403 97.3391 72.1024 97.3801 72.1783C97.4212 72.2543 97.4387 72.3407 97.4306 72.4267C97.4225 72.5126 97.389 72.5942 97.3345 72.6611C97.2799 72.728 97.2067 72.7772 97.1242 72.8025C97.0416 72.8278 96.9534 72.828 96.8708 72.8031C96.7881 72.7782 96.7147 72.7293 96.6598 72.6626C96.605 72.5959 96.5712 72.5145 96.5627 72.4286C96.5542 72.3427 96.5714 72.2562 96.6121 72.18C96.6664 72.0784 96.7587 72.0024 96.8689 71.9687C96.9791 71.935 97.0982 71.9462 97.2001 72Z" fill="#263238"/>
<path d="M97.9117 71.928C97.8677 71.984 97.5637 71.776 97.1517 71.8C96.7397 71.824 96.4557 72.052 96.4077 72.004C96.3597 71.956 96.4077 71.884 96.5477 71.78C96.7145 71.6408 96.9226 71.5606 97.1397 71.552C97.3566 71.5398 97.5715 71.5988 97.7517 71.72C97.8837 71.812 97.9357 71.904 97.9117 71.928Z" fill="#263238"/>
<path d="M99.6758 75.352C99.8839 75.2546 100.107 75.1937 100.336 75.172C100.44 75.152 100.524 75.124 100.528 75.064C100.526 74.9556 100.492 74.85 100.432 74.76C100.308 74.496 100.184 74.228 100.056 73.96C99.7044 73.2726 99.423 72.5517 99.2158 71.808C99.635 72.4561 99.9875 73.1449 100.268 73.864L100.628 74.688C100.706 74.822 100.737 74.9783 100.716 75.132C100.703 75.1744 100.681 75.2132 100.65 75.2452C100.619 75.2772 100.582 75.3014 100.54 75.316C100.482 75.3347 100.421 75.3454 100.36 75.348C100.134 75.3893 99.9023 75.3907 99.6758 75.352Z" fill="#263238"/>
<path d="M99.68 80.44C99.68 80.44 98.352 80.648 96.272 79.512C96.272 79.512 96.804 81.66 99.764 81.212L99.68 80.44Z" fill="#EB996E"/>
<path d="M100.36 70.484C100.416 70.688 100.728 70.772 101.064 70.772C101.215 70.7831 101.366 70.7614 101.508 70.7082C101.65 70.655 101.778 70.5717 101.884 70.464C102.02 70.268 101.744 69.988 101.216 69.996C100.688 70.004 100.3 70.288 100.36 70.484Z" fill="#263238"/>
<path d="M95.8037 71.076C95.9517 71.236 96.3757 71.176 96.7957 71.108C97.2957 70.996 97.7357 70.9 97.8597 70.708C97.9557 70.6 97.9437 70.464 97.7837 70.364C97.5211 70.2377 97.2228 70.2065 96.9397 70.276C96.6044 70.3344 96.2878 70.4715 96.0157 70.676C95.8077 70.848 95.7437 70.996 95.8037 71.076Z" fill="#263238"/>
<path d="M97.9641 75.432C97.9001 75.432 98.0201 75.94 98.5121 76.276C99.0041 76.612 99.5081 76.548 99.4921 76.484C99.4761 76.42 99.0681 76.364 98.6521 76.084C98.2361 75.804 98.0321 75.404 97.9641 75.432Z" fill="#263238"/>
<path d="M102.028 68.516C101.116 69.18 99.4878 69.092 98.4678 68.608C97.7478 68.268 97.0758 67.64 96.2878 67.756C95.5598 67.864 95.1798 68.416 94.9958 69.128C94.8814 69.5108 94.6223 69.8339 94.2735 70.0288C93.9248 70.2238 93.5138 70.2751 93.1278 70.172C93.2438 71.628 93.4558 72.708 93.0238 74.052C92.9478 74.292 92.6238 74.48 92.4278 74.644C92.3385 74.732 92.2226 74.7879 92.0981 74.8031C91.9737 74.8183 91.8477 74.7919 91.7398 74.728C91.6545 74.6401 91.5887 74.5351 91.5466 74.42C91.5046 74.3049 91.4873 74.1823 91.4958 74.06C91.4038 72.616 91.0958 71.072 91.0198 69.628C91.0077 69.1028 91.1391 68.5841 91.3998 68.128C91.7244 67.6052 92.1942 67.1882 92.7518 66.928C93.7691 66.2637 94.8639 65.7263 96.0118 65.328C97.1689 64.9335 98.4299 64.9733 99.5598 65.44C100.66 65.952 101.96 66.936 101.88 68.144" fill="#263238"/>
<path d="M92.4001 72.944C92.3481 72.92 90.2601 72.588 90.4881 74.636C90.6881 76.408 92.6041 75.964 92.6081 75.904C92.6121 75.844 92.4001 72.944 92.4001 72.944Z" fill="#FFBE9D"/>
<path d="M91.8998 75.096C91.8998 75.096 91.8718 75.096 91.8198 75.144C91.7466 75.1732 91.665 75.1732 91.5918 75.144C91.4769 75.0754 91.3826 74.9772 91.3186 74.8597C91.2545 74.7423 91.2232 74.6097 91.2278 74.476C91.2174 74.3271 91.2421 74.1777 91.2998 74.04C91.3518 73.908 91.4318 73.816 91.5238 73.8C91.5586 73.79 91.5957 73.7921 91.6291 73.8059C91.6625 73.8197 91.6902 73.8444 91.7078 73.876C91.7318 73.924 91.7078 73.96 91.7318 73.964C91.7558 73.968 91.7678 73.932 91.7318 73.86C91.7186 73.8179 91.6936 73.7804 91.6598 73.752C91.6096 73.7173 91.5481 73.703 91.4878 73.712C91.4165 73.7287 91.3505 73.7631 91.2959 73.8121C91.2414 73.861 91.2001 73.9229 91.1758 73.992C91.107 74.1465 91.0755 74.3151 91.0838 74.484C91.0803 74.6397 91.1224 74.7931 91.2048 74.9252C91.2872 75.0574 91.4064 75.1626 91.5478 75.228C91.5948 75.2398 91.6439 75.2412 91.6915 75.2322C91.7391 75.2233 91.7843 75.2041 91.8238 75.176C91.8998 75.136 91.9078 75.1 91.8998 75.096Z" fill="#EB996E"/>
<path d="M116.98 171.932L120.548 181.132L131.996 176.732C131.508 175.664 124.748 175.732 124.748 175.732L122.704 169.756L116.98 171.932Z" fill="#5200D9"/>
<g opacity="0.6">
<path d="M121.016 176.596C120.919 176.671 120.853 176.78 120.831 176.902C120.81 177.023 120.834 177.148 120.9 177.252C120.971 177.352 121.078 177.421 121.199 177.444C121.32 177.468 121.445 177.443 121.548 177.376C121.651 177.296 121.721 177.18 121.744 177.052C121.766 176.923 121.741 176.791 121.672 176.68C121.586 176.583 121.465 176.524 121.336 176.514C121.207 176.505 121.079 176.545 120.98 176.628" fill="white"/>
</g>
<g opacity="0.6">
<path d="M120.548 181.116L120.224 180.176L131.32 176.328C131.32 176.328 131.916 176.356 131.996 176.728L120.548 181.116Z" fill="white"/>
</g>
<path d="M124.912 175.6C124.912 175.656 124.66 175.788 124.452 176.076C124.244 176.364 124.192 176.652 124.132 176.648C124.072 176.644 124.032 176.292 124.288 175.952C124.544 175.612 124.904 175.552 124.912 175.6Z" fill="#263238"/>
<path d="M126.3 175.648C126.336 175.696 126.128 175.884 126.028 176.192C125.928 176.5 125.972 176.772 125.916 176.792C125.86 176.812 125.7 176.508 125.832 176.124C125.964 175.74 126.28 175.6 126.3 175.648Z" fill="#263238"/>
<path d="M127.532 176.824C127.488 176.852 127.3 176.604 127.328 176.244C127.356 175.884 127.568 175.66 127.612 175.696C127.656 175.732 127.552 175.96 127.536 176.256C127.52 176.552 127.6 176.8 127.532 176.824Z" fill="#263238"/>
<path d="M124.292 174.3C124.292 174.36 124.004 174.38 123.696 174.52C123.388 174.66 123.18 174.856 123.132 174.82C123.084 174.784 123.244 174.492 123.612 174.332C123.98 174.172 124.304 174.244 124.292 174.3Z" fill="#263238"/>
<path d="M123.5 173.044C123.5 173.068 123.304 173.188 122.928 173.26C122.707 173.303 122.481 173.318 122.256 173.304C122.122 173.3 121.988 173.284 121.856 173.256C121.778 173.245 121.703 173.222 121.632 173.188C121.58 173.162 121.539 173.12 121.513 173.068C121.488 173.016 121.481 172.957 121.492 172.9C121.505 172.851 121.53 172.805 121.564 172.767C121.598 172.729 121.64 172.699 121.688 172.68C121.761 172.651 121.838 172.634 121.916 172.628C122.049 172.615 122.183 172.615 122.316 172.628C122.542 172.643 122.764 172.691 122.976 172.772C123.336 172.916 123.504 173.092 123.492 173.112C123.48 173.132 123.276 173.012 122.928 172.912C122.726 172.855 122.518 172.824 122.308 172.82C122.185 172.818 122.062 172.826 121.94 172.844C121.804 172.844 121.704 172.896 121.692 172.964C121.68 173.032 121.692 172.996 121.728 173.024C121.78 173.047 121.836 173.063 121.892 173.072C122.015 173.099 122.139 173.119 122.264 173.132C122.476 173.15 122.688 173.15 122.9 173.132C123.097 173.087 123.298 173.057 123.5 173.044Z" fill="#263238"/>
<path d="M123.46 173.152C123.46 173.152 123.256 173.012 123.096 172.656C123.005 172.448 122.951 172.226 122.936 172C122.92 171.867 122.92 171.733 122.936 171.6C122.938 171.512 122.962 171.426 123.007 171.35C123.052 171.275 123.116 171.212 123.192 171.168C123.243 171.15 123.299 171.147 123.352 171.159C123.405 171.171 123.453 171.198 123.492 171.236C123.546 171.292 123.594 171.356 123.632 171.424C123.701 171.549 123.751 171.684 123.78 171.824C123.829 172.05 123.822 172.285 123.76 172.508C123.648 172.908 123.444 173.048 123.432 173.032C123.42 173.016 123.556 172.828 123.616 172.476C123.653 172.274 123.645 172.066 123.592 171.868C123.561 171.753 123.515 171.643 123.456 171.54C123.392 171.428 123.308 171.344 123.268 171.376C123.228 171.408 123.148 171.524 123.136 171.64C123.118 171.76 123.111 171.882 123.116 172.004C123.121 172.214 123.157 172.421 123.224 172.62C123.348 172.944 123.488 173.132 123.46 173.152Z" fill="#263238"/>
<path d="M78.1558 166.844C78.1558 166.488 93.2678 144.984 93.2678 144.984L101.616 148.184L82.5718 170.128L78.1558 166.844Z" fill="#FFBE9D"/>
<path d="M78.156 166.844L78.02 167.02L75.428 170.4L72.228 172.604L76.532 180.892H81.268C81.268 180.892 80.924 179.756 78.648 179.164L78.496 174.616L82.588 170.12" fill="#5200D9"/>
<g opacity="0.6">
<path d="M72.2119 172.608L76.5159 180.896L81.2519 180.9L80.7199 180.188L76.8679 179.972L72.8959 172.14L72.2119 172.608Z" fill="white"/>
</g>
<path d="M78.5998 177.088C78.5678 177.136 78.2918 176.98 77.9278 176.992C77.5638 177.004 77.2918 177.156 77.2558 177.108C77.2198 177.06 77.4798 176.788 77.9238 176.784C78.3678 176.78 78.6438 177.052 78.5998 177.088Z" fill="#263238"/>
<path d="M78.5279 175.96C78.4799 175.996 78.2679 175.716 77.8919 175.64C77.5159 175.564 77.2119 175.74 77.1799 175.692C77.1479 175.644 77.2199 175.588 77.3519 175.516C77.5308 175.425 77.7355 175.397 77.9324 175.437C78.1292 175.477 78.3068 175.582 78.4359 175.736C78.5279 175.852 78.5479 175.948 78.5279 175.96Z" fill="#263238"/>
<path d="M78.5599 174.512C78.5079 174.536 78.3439 174.264 78.0159 174.148C77.6879 174.032 77.3879 174.148 77.3639 174.088C77.3399 174.028 77.4119 174 77.5439 173.952C77.7185 173.889 77.9094 173.889 78.0839 173.952C78.2592 174.015 78.4084 174.135 78.5079 174.292C78.5759 174.4 78.5839 174.5 78.5599 174.512Z" fill="#263238"/>
<path d="M79.828 173.388C79.772 173.388 79.636 173.14 79.344 172.948C79.052 172.756 78.756 172.728 78.752 172.672C78.748 172.616 79.104 172.536 79.46 172.776C79.816 173.016 79.884 173.384 79.828 173.388Z" fill="#263238"/>
<path d="M80.444 172.4C80.42 172.4 80.264 172.224 80.044 171.904L79.644 171.336C79.5513 171.214 79.4771 171.08 79.424 170.936C79.3971 170.84 79.4071 170.737 79.452 170.648C79.4805 170.598 79.5228 170.557 79.574 170.531C79.6251 170.505 79.6828 170.494 79.74 170.5C79.9056 170.532 80.0585 170.611 80.18 170.728C80.2908 170.823 80.3877 170.934 80.468 171.056C80.6013 171.262 80.6861 171.496 80.716 171.74C80.7659 171.962 80.7271 172.194 80.608 172.388C80.6102 172.179 80.5981 171.971 80.572 171.764C80.5042 171.42 80.3207 171.109 80.052 170.884C79.9591 170.799 79.8463 170.738 79.724 170.708C79.707 170.704 79.6892 170.706 79.6733 170.713C79.6574 170.72 79.6443 170.733 79.636 170.748C79.6198 170.792 79.6198 170.84 79.636 170.884C79.6851 171 79.7468 171.11 79.82 171.212L80.184 171.808C80.3022 171.99 80.39 172.19 80.444 172.4Z" fill="#263238"/>
<path d="M80.6159 172.556C80.5919 172.556 80.6159 172.308 80.8679 172.024C81.0437 171.837 81.275 171.711 81.5277 171.665C81.7804 171.619 82.0413 171.655 82.2719 171.768C82.2953 171.79 82.3139 171.817 82.3263 171.846C82.3387 171.876 82.3447 171.908 82.3439 171.94C82.3428 171.994 82.323 172.047 82.2879 172.088C82.2391 172.148 82.181 172.199 82.1159 172.24C82.012 172.314 81.9007 172.377 81.7839 172.428C81.5868 172.52 81.3761 172.58 81.1599 172.604C80.7919 172.644 80.5679 172.572 80.5759 172.548C80.5839 172.524 80.7999 172.548 81.1359 172.456C81.332 172.415 81.5217 172.348 81.6999 172.256C81.8042 172.202 81.9045 172.141 81.9999 172.072C82.0459 172.043 82.0865 172.007 82.1199 171.964C82.1439 171.924 82.1199 171.936 82.1199 171.924C82.0763 171.899 82.029 171.882 81.9799 171.872C81.922 171.859 81.8631 171.849 81.8039 171.844C81.6913 171.838 81.5784 171.846 81.4679 171.868C81.2787 171.912 81.103 172.001 80.9559 172.128C80.7159 172.352 80.6479 172.572 80.6159 172.556Z" fill="#263238"/>
<g opacity="0.6">
<path d="M75.4321 173.028C75.7414 173.028 75.9921 172.777 75.9921 172.468C75.9921 172.159 75.7414 171.908 75.4321 171.908C75.1228 171.908 74.8721 172.159 74.8721 172.468C74.8721 172.777 75.1228 173.028 75.4321 173.028Z" fill="white"/>
</g>
<path d="M124.2 100.488H127.072C128.412 100.44 129.156 100.464 129.552 100.132C130.076 99.688 129.42 99.18 129.42 99.18C129.42 99.18 130.404 98.908 130.348 98.316C130.312 97.916 129.856 97.84 129.856 97.84C129.856 97.84 130.728 97.56 130.916 97.216C131.172 96.744 130.588 96.452 130.588 96.452C131.788 95.808 131.728 95.096 131.464 95.008C131.2 94.92 130.264 95.284 130.264 95.284C129.488 95.456 127.368 95.968 128.208 94.864C129.048 93.76 129.28 92.6 129.124 92.24C129.078 92.1649 129.01 92.1057 128.929 92.0702C128.848 92.0346 128.758 92.0244 128.672 92.0409C128.585 92.0573 128.505 92.0997 128.443 92.1624C128.381 92.2251 128.34 92.3052 128.324 92.392C128.176 92.8361 127.968 93.2575 127.704 93.644C127.503 93.9623 127.25 94.2449 126.956 94.48C126.612 94.748 126.312 94.964 126.048 95.144L123.104 96.576L124.2 100.488Z" fill="#FFBE9D"/>
<path d="M125.732 93.852L127.264 101.46L131.008 101.076L131.116 93.3L125.732 93.852Z" fill="#E0E0E0"/>
<path d="M125.632 92.86C125.431 93.1702 125.343 93.5405 125.384 93.908L131.468 93.284C131.48 93.096 131.445 92.908 131.366 92.7369C131.287 92.5658 131.167 92.4171 131.016 92.304L125.632 92.86Z" fill="#455A64"/>
<path d="M126.252 92.084L126.124 92.864L130.724 92.428L130.336 91.656L126.252 92.084Z" fill="#455A64"/>
<path d="M125.856 95.784C125.856 95.856 126.7 99.604 126.7 99.604L131.276 99.136L131.316 95.22L125.856 95.784Z" fill="#455A64"/>
<path d="M132.876 95.092C132.927 95.0518 132.96 94.9933 132.968 94.929C132.976 94.8647 132.959 94.7997 132.92 94.748C132.836 94.6476 132.718 94.5831 132.588 94.568C132.048 94.5328 131.513 94.6808 131.068 94.988C130.591 95.2163 130.151 95.5157 129.764 95.876C129.66 95.984 129.556 96.136 129.612 96.276C129.641 96.33 129.684 96.3756 129.735 96.4085C129.787 96.4414 129.847 96.4605 129.908 96.464C130.186 96.51 130.472 96.4501 130.708 96.296C130.322 96.4173 129.977 96.643 129.712 96.948C129.658 96.9986 129.616 97.061 129.589 97.1303C129.563 97.1997 129.553 97.2742 129.56 97.348C129.586 97.4311 129.64 97.5023 129.713 97.5492C129.786 97.596 129.874 97.6155 129.96 97.604C130.13 97.5802 130.292 97.5157 130.432 97.416C130.081 97.4899 129.763 97.6734 129.524 97.94C129.447 98.009 129.4 98.105 129.392 98.208C129.392 98.408 129.632 98.528 129.832 98.516C130.03 98.4791 130.231 98.4577 130.432 98.452C130.227 98.4629 130.027 98.5231 129.85 98.6275C129.674 98.732 129.524 98.8776 129.416 99.052C129.336 99.188 129.288 99.38 129.416 99.48C129.458 99.5082 129.505 99.5277 129.554 99.5373C129.604 99.5469 129.655 99.5465 129.704 99.536L130.136 99.508C130.371 99.5052 130.603 99.4633 130.824 99.384C130.934 99.3445 131.034 99.2787 131.113 99.1923C131.193 99.1059 131.25 99.0015 131.28 98.888C131.304 98.7736 131.282 98.6543 131.219 98.5556C131.157 98.457 131.058 98.3868 130.944 98.36C131.243 98.2607 131.498 98.0597 131.664 97.792C131.7 97.7243 131.722 97.6497 131.727 97.573C131.733 97.4963 131.722 97.4193 131.696 97.3471C131.669 97.2749 131.628 97.2091 131.574 97.1541C131.52 97.0991 131.455 97.0562 131.384 97.028C131.612 96.696 132.184 96.696 132.324 96.312C132.408 96.056 132.228 95.796 132.056 95.584C132.232 95.5551 132.4 95.4888 132.548 95.3894C132.697 95.29 132.822 95.16 132.916 95.008" fill="#FFBE9D"/>
<path d="M132.172 95.6C131.964 95.7615 131.737 95.8959 131.496 96C131.237 96.1322 130.97 96.2471 130.696 96.344C130.533 96.3994 130.367 96.4461 130.2 96.484C130.102 96.5024 130.001 96.5024 129.904 96.484C129.845 96.4751 129.789 96.4532 129.74 96.42C129.691 96.3868 129.65 96.3431 129.62 96.292C129.573 96.1919 129.561 96.0794 129.585 95.9718C129.609 95.8641 129.668 95.7673 129.752 95.696C129.885 95.5839 130.03 95.486 130.184 95.404L130.924 94.976C131.142 94.8293 131.377 94.7098 131.624 94.62C131.431 94.7997 131.218 94.9555 130.988 95.084L130.272 95.548C130.131 95.6283 129.997 95.7206 129.872 95.824C129.813 95.8701 129.771 95.9345 129.753 96.0069C129.735 96.0793 129.742 96.1557 129.772 96.224C129.832 96.34 130.004 96.352 130.172 96.32C130.331 96.2864 130.489 96.2436 130.644 96.192C130.916 96.1065 131.183 96.0064 131.444 95.892C131.676 95.7699 131.92 95.6721 132.172 95.6Z" fill="#EB996E"/>
<path d="M131.62 96.928C131.461 97.0412 131.286 97.1302 131.1 97.192L130.512 97.436L130.164 97.572C130.025 97.6347 129.869 97.6502 129.72 97.616C129.676 97.6024 129.635 97.5803 129.599 97.5507C129.563 97.5212 129.534 97.485 129.512 97.444C129.48 97.3616 129.48 97.2704 129.512 97.188C129.561 97.0557 129.647 96.9403 129.76 96.856C129.919 96.7109 130.094 96.5835 130.28 96.476C130.443 96.36 130.63 96.2846 130.828 96.256C130.676 96.3764 130.516 96.486 130.348 96.584C130.179 96.705 130.02 96.8387 129.872 96.984C129.787 97.0527 129.721 97.1423 129.68 97.244C129.672 97.2647 129.669 97.2868 129.67 97.309C129.671 97.3311 129.677 97.3528 129.687 97.3724C129.697 97.3921 129.712 97.4094 129.729 97.4231C129.746 97.4369 129.767 97.4467 129.788 97.452C129.98 97.508 130.256 97.348 130.472 97.288L131.064 97.08C131.241 97.0024 131.428 96.9512 131.62 96.928Z" fill="#EB996E"/>
<path d="M131.128 98.14C130.968 98.2957 130.771 98.4073 130.556 98.464C130.329 98.5448 130.092 98.5945 129.852 98.612C129.772 98.6216 129.69 98.6149 129.612 98.5922C129.535 98.5695 129.462 98.5314 129.4 98.48C129.329 98.418 129.282 98.333 129.268 98.24C129.261 98.1903 129.265 98.1398 129.279 98.0917C129.292 98.0435 129.316 97.9987 129.348 97.96C129.46 97.8388 129.596 97.7421 129.748 97.676C129.872 97.604 129.996 97.54 130.116 97.48C130.352 97.36 130.572 97.26 130.76 97.184C130.955 97.0864 131.164 97.019 131.38 96.984C131.204 97.1113 131.013 97.2174 130.812 97.3C130.632 97.388 130.412 97.5 130.192 97.624L129.836 97.828C129.714 97.8888 129.603 97.9699 129.508 98.068C129.491 98.0884 129.478 98.112 129.47 98.1374C129.462 98.1627 129.46 98.1894 129.462 98.2159C129.465 98.2423 129.473 98.268 129.485 98.2913C129.498 98.3147 129.515 98.3353 129.536 98.352C129.628 98.4232 129.744 98.4575 129.86 98.448C130.089 98.4387 130.316 98.4024 130.536 98.34C130.896 98.236 131.116 98.116 131.128 98.14Z" fill="#EB996E"/>
<path d="M129.6 99.6C129.6 99.6 129.56 99.628 129.492 99.6C129.444 99.5815 129.401 99.5518 129.367 99.5136C129.333 99.4754 129.309 99.4296 129.296 99.38C129.279 99.3061 129.28 99.2293 129.298 99.1557C129.316 99.0821 129.351 99.0138 129.4 98.956C129.507 98.8267 129.645 98.7251 129.8 98.66C130.154 98.4512 130.543 98.3076 130.948 98.236C130.619 98.4705 130.263 98.6652 129.888 98.816C129.753 98.8724 129.63 98.9554 129.528 99.06C129.491 99.099 129.463 99.1449 129.444 99.1951C129.426 99.2452 129.417 99.2986 129.42 99.352C129.432 99.536 129.6 99.568 129.6 99.6Z" fill="#EB996E"/>
<path d="M75.6238 119.904L75.4918 120.868L73.0638 122.068C72.7911 122.152 72.5559 122.327 72.3983 122.565C72.2408 122.803 72.1706 123.088 72.1998 123.372L72.3598 124.892C72.3866 125.17 72.4968 125.433 72.676 125.648C72.8552 125.862 73.095 126.017 73.3638 126.092L77.0398 127.132C77.1276 127.157 77.2194 127.164 77.3099 127.153C77.4004 127.142 77.4878 127.113 77.5671 127.068C77.6464 127.023 77.7159 126.963 77.7717 126.891C77.8274 126.819 77.8683 126.736 77.8918 126.648C77.9323 126.489 77.9142 126.32 77.8407 126.174C77.7673 126.027 77.6434 125.911 77.4918 125.848L74.6678 124.704C74.6309 124.46 74.6839 124.21 74.8171 124.002C74.9503 123.794 75.1545 123.641 75.3918 123.572L77.9998 122.8L78.3238 124.8C78.3487 124.977 78.4362 125.14 78.5705 125.258C78.7048 125.376 78.877 125.442 79.0558 125.444C79.1043 125.448 79.1531 125.442 79.199 125.425C79.2449 125.409 79.2868 125.383 79.3219 125.35C79.3571 125.316 79.3847 125.275 79.403 125.23C79.4212 125.185 79.4297 125.137 79.4278 125.088C79.4838 124.404 79.7318 120.62 79.7318 120.62L75.6238 119.904Z" fill="#FFBE9D"/>
<path d="M64.0638 178.58C64.1718 178.961 64.1643 179.365 64.0425 179.742C63.9206 180.118 63.6897 180.45 63.379 180.696C63.0683 180.941 62.6919 181.088 62.2973 181.12C61.9027 181.151 61.5077 181.064 61.1624 180.871C60.817 180.677 60.5368 180.386 60.3573 180.033C60.1777 179.68 60.1069 179.282 60.1537 178.889C60.2005 178.496 60.3629 178.126 60.6204 177.825C60.8778 177.524 61.2186 177.307 61.5997 177.2C62.1095 177.057 62.6551 177.122 63.1169 177.381C63.5788 177.64 63.9193 178.071 64.0638 178.58Z" fill="#263238"/>
<path d="M62.5597 179.08L63.4317 176.44L62.7517 176.12L61.9277 178.868L62.5597 179.08Z" fill="#455A64"/>
<path d="M69.6479 147.024L74.532 126.552L76.044 127.076L71.364 147.34L69.6479 147.024Z" fill="#263238"/>
<path d="M69.2514 142.27L71.0746 142.729C72.5787 143.107 73.8709 144.067 74.667 145.398C75.463 146.73 75.6976 148.322 75.3193 149.827L68.4642 177.078C68.3927 177.361 68.2114 177.605 67.9601 177.756C67.7088 177.906 67.4082 177.95 67.1242 177.879L56.0997 175.106C55.8157 175.034 55.5718 174.853 55.4215 174.602C55.2712 174.35 55.2269 174.05 55.2983 173.766L62.1534 146.515C62.3408 145.77 62.673 145.069 63.1311 144.453C63.5892 143.837 64.1642 143.316 64.8233 142.922C65.4824 142.528 66.2127 142.268 66.9725 142.156C67.7322 142.044 68.5066 142.083 69.2514 142.27Z" fill="#5200D9"/>
<path d="M73.2798 131.804L74.8558 132.216L76.7238 124.8L75.0278 124.308L73.2798 131.804Z" fill="#263238"/>
<path d="M68.4318 177.504C68.4318 177.504 68.4318 177.444 68.4678 177.328C68.5038 177.212 68.5358 177.032 68.5838 176.812C68.6958 176.356 68.8518 175.692 69.0558 174.84C69.4558 173.12 70.0718 170.648 70.8158 167.592C71.5598 164.536 72.4558 160.888 73.4478 156.848C73.9438 154.824 74.4638 152.704 75.0078 150.504C75.1438 149.952 75.2798 149.4 75.4078 148.84C75.5518 148.289 75.5518 147.711 75.4078 147.16C75.2615 146.598 74.9662 146.085 74.5529 145.677C74.1396 145.268 73.6237 144.979 73.0596 144.839C72.4956 144.699 71.9043 144.715 71.3481 144.883C70.792 145.051 70.2916 145.367 69.8998 145.796C69.5181 146.22 69.2522 146.735 69.1278 147.292C68.9878 147.852 68.8518 148.404 68.7278 148.956L67.1598 155.296C66.1558 159.336 65.2478 162.976 64.4878 166.032C63.7278 169.088 63.1078 171.552 62.6758 173.268L62.1758 175.232C62.1158 175.452 62.0718 175.632 62.0398 175.744C62.0078 175.856 61.9878 175.916 61.9878 175.916C61.9878 175.916 61.9878 175.856 62.0238 175.74C62.0598 175.624 62.0918 175.444 62.1398 175.224C62.2518 174.768 62.4078 174.104 62.6118 173.252C63.0118 171.532 63.6278 169.06 64.3718 166.004C65.1158 162.948 66.0118 159.304 67.0038 155.26C67.4998 153.236 68.0238 151.116 68.5638 148.916C68.6998 148.364 68.8331 147.808 68.9638 147.248C69.0924 146.666 69.3678 146.126 69.7638 145.68C70.1757 145.22 70.705 144.881 71.295 144.698C71.885 144.516 72.5134 144.498 73.1131 144.645C73.7127 144.793 74.2609 145.101 74.6989 145.536C75.137 145.971 75.4484 146.517 75.5998 147.116C75.7499 147.694 75.7499 148.302 75.5998 148.88C75.4598 149.44 75.3238 149.996 75.1998 150.544C74.6558 152.744 74.1318 154.864 73.6278 156.884C72.6278 160.924 71.7198 164.564 70.9638 167.62C70.2078 170.676 69.5798 173.14 69.1478 174.856L68.6478 176.82C68.5878 177.04 68.5438 177.22 68.5118 177.332C68.4798 177.444 68.4318 177.504 68.4318 177.504Z" fill="#263238"/>
<path d="M66.5441 157.784C66.5441 157.86 65.0121 157.484 63.1561 156.94C61.3001 156.396 59.8001 155.896 59.8121 155.82C59.8241 155.744 61.3441 156.12 63.2041 156.664C65.0641 157.208 66.5601 157.708 66.5441 157.784Z" fill="#263238"/>
<path d="M74.5037 126.4C74.2337 126.368 73.9719 126.287 73.7317 126.16C73.6049 126.105 73.4831 126.04 73.3677 125.964C73.2924 125.919 73.2271 125.859 73.1757 125.788C73.132 125.715 73.0945 125.639 73.0637 125.56C72.953 125.216 72.8806 124.86 72.8477 124.5C72.7957 124.132 72.7517 123.784 72.7037 123.448C72.6758 123.29 72.6677 123.128 72.6797 122.968C72.6846 122.884 72.7108 122.803 72.7557 122.732C72.7977 122.675 72.8476 122.624 72.9037 122.58C73.1061 122.392 73.3591 122.267 73.6317 122.22C73.6317 122.248 73.3597 122.372 73.0037 122.692C72.9588 122.729 72.9197 122.772 72.8877 122.82C72.8642 122.872 72.8519 122.927 72.8517 122.984C72.85 123.132 72.8648 123.279 72.8957 123.424C72.9437 123.756 72.9957 124.104 73.0517 124.472C73.085 124.817 73.1493 125.158 73.2437 125.492C73.267 125.562 73.2979 125.629 73.3357 125.692C73.3713 125.744 73.416 125.788 73.4677 125.824C73.5719 125.902 73.683 125.97 73.7997 126.028C74.0425 126.136 74.2777 126.26 74.5037 126.4Z" fill="#EB996E"/>
<path d="M89.5599 117.376C89.2879 114.976 89.1919 105.644 89.1919 105.644C88.8519 101.292 88.6879 96.548 88.4319 93.392C87.5559 82.704 95.1279 83.228 95.1279 83.228L97.8279 83.264C101.028 83.504 103.428 85.664 103.896 88.648L110.076 116.8L89.5599 117.376Z" fill="#5200D9"/>
<path d="M91.904 84.28L91.744 82.24C91.7343 82.1193 91.7503 81.9978 91.791 81.8838C91.8316 81.7697 91.8961 81.6655 91.98 81.5782C92.064 81.4908 92.1655 81.4223 92.2779 81.3771C92.3902 81.3319 92.5109 81.3111 92.632 81.316L99.892 81.6C100.113 81.6083 100.322 81.7015 100.475 81.8603C100.629 82.0191 100.715 82.2311 100.716 82.452V84.82L91.904 84.28Z" fill="#5200D9"/>
<path d="M84.2879 101.96L94.6119 92.664C94.6119 92.664 98.0159 86.436 91.7399 84.12C91.7399 84.12 91.8039 83.912 86.6799 88.328C83.5919 90.992 80.4839 93.696 78.5079 95.424C77.8386 96.0069 77.2934 96.7184 76.9044 97.5162C76.5155 98.314 76.2909 99.1817 76.2439 100.068L75.1719 119.824L82.0799 121.024L84.2879 101.96Z" fill="#5200D9"/>
<path d="M106 87.668L111.384 97.8L123.836 95.64L125.396 102.164L110.872 105.944C110.205 106.155 109.493 106.181 108.812 106.02C108.165 105.866 107.567 105.549 107.077 105.098C106.587 104.648 106.22 104.08 106.012 103.448L100.712 89.668C100.228 88.416 99.2199 85.836 100.212 84.924L99.5239 84.744C101.136 83.24 104.94 85.268 106 87.668Z" fill="#5200D9"/>
<path d="M110.424 102.076C110.284 101.886 110.191 101.665 110.152 101.432C110.026 100.878 110.026 100.302 110.152 99.748C110.276 99.193 110.522 98.6724 110.872 98.224C111.148 97.888 111.372 97.736 111.388 97.756C111.267 97.9496 111.133 98.1353 110.988 98.312C110.687 98.762 110.471 99.2637 110.352 99.792C110.241 100.318 110.226 100.86 110.308 101.392C110.362 101.617 110.4 101.846 110.424 102.076Z" fill="#263238"/>
<path d="M84.2881 102.048C84.0177 101.65 83.7197 101.272 83.3961 100.916C83.0261 100.611 82.6344 100.333 82.2241 100.084C82.7192 100.182 83.1762 100.418 83.5417 100.766C83.9073 101.114 84.1662 101.558 84.2881 102.048Z" fill="#263238"/>
<path d="M107.768 90.468C107.768 90.524 102.524 90.572 96.0639 90.572C89.6039 90.572 84.3599 90.524 84.3599 90.468C84.3599 90.412 89.5999 90.364 96.0639 90.364C102.528 90.364 107.768 90.4 107.768 90.468Z" fill="#FAFAFA"/>
<path d="M85.9399 88.964H106.852L103.12 86.896L99.7639 88.768L95.5319 86.712L91.7399 88.68L88.7799 86.528L85.9399 88.964Z" fill="#FAFAFA"/>
<path d="M110.088 95.548C110.088 95.604 103.016 95.652 94.2958 95.652C85.5758 95.652 78.5078 95.604 78.5078 95.548C78.5078 95.492 85.5758 95.444 94.2958 95.444C103.016 95.444 110.088 95.492 110.088 95.548Z" fill="#FAFAFA"/>
<path d="M84.6558 94.044H106.248L102.516 91.976L99.1598 93.852L94.9318 91.796L91.1358 93.76L87.8958 91.796L84.6558 94.044Z" fill="#FAFAFA"/>
<path d="M108.176 91.796L106.248 94.044H109.372L108.176 91.796Z" fill="#FAFAFA"/>
<path d="M84.7439 94.044L82.7559 91.724L80.0879 94.044H84.7439Z" fill="#FAFAFA"/>
<path d="M93.8837 93.792C93.7856 93.922 93.6714 94.0389 93.5437 94.14L92.5597 95.024C91.7197 95.76 90.5597 96.772 89.2597 97.88C87.9597 98.988 86.7797 99.976 85.9197 100.68L84.8917 101.512C84.7691 101.621 84.635 101.716 84.4917 101.796C84.5898 101.666 84.704 101.549 84.8317 101.448L85.8197 100.564C86.6557 99.828 87.8197 98.816 89.1157 97.712C90.4117 96.608 91.5917 95.612 92.4557 94.912L93.4837 94.076C93.6063 93.9671 93.7404 93.8718 93.8837 93.792Z" fill="#263238"/>
<path d="M101.304 84.116L89.0361 112.952L89.4041 116.356L103.12 84.82C102.922 84.5354 102.643 84.3163 102.32 84.1909C101.996 84.0655 101.643 84.0394 101.304 84.116Z" fill="#455A64"/>
<path d="M89.7878 112.952H88.2638C87.6794 112.953 87.1171 113.176 86.6914 113.577C86.2657 113.977 86.0084 114.525 85.9718 115.108L85.1998 127.436C85.1795 127.76 85.2281 128.085 85.3426 128.389C85.4571 128.693 85.6347 128.969 85.8638 129.199C86.0929 129.43 86.3682 129.609 86.6716 129.725C86.975 129.841 87.2996 129.891 87.6238 129.872C88.2089 129.838 88.759 129.582 89.1613 129.156C89.5636 128.73 89.7878 128.166 89.7878 127.58V112.952Z" fill="#455A64"/>
<path d="M90.612 113.6C90.632 113.6 90.44 113.976 90.152 114.58C90.004 114.88 89.832 115.236 89.628 115.632C89.5226 115.854 89.3696 116.051 89.18 116.208C89.0708 116.301 88.9362 116.359 88.7935 116.375C88.6509 116.391 88.5068 116.363 88.38 116.296C88.2623 116.219 88.1632 116.118 88.0898 115.998C88.0165 115.878 87.9708 115.744 87.956 115.604C87.939 115.357 87.9786 115.109 88.072 114.88C88.24 114.456 88.416 114.108 88.556 113.8C88.6926 113.464 88.8599 113.141 89.056 112.836C88.9686 113.188 88.8467 113.531 88.692 113.86C88.572 114.168 88.404 114.54 88.256 114.944C88.1763 115.146 88.1435 115.363 88.16 115.58C88.1723 115.688 88.208 115.792 88.2646 115.884C88.3213 115.977 88.3975 116.056 88.488 116.116C88.5801 116.165 88.685 116.185 88.7886 116.173C88.8923 116.161 88.9898 116.117 89.068 116.048C89.2368 115.91 89.3733 115.736 89.468 115.54L90.032 114.512C90.1804 114.182 90.3758 113.875 90.612 113.6Z" fill="#263238"/>
<path d="M88.6717 116.18C88.704 116.363 88.7161 116.55 88.7077 116.736C88.7077 117.136 88.7077 117.644 88.7077 118.256C88.7077 119.54 88.7077 121.312 88.6797 123.272C88.6797 124.248 88.6517 125.18 88.6357 126.032C88.6687 126.792 88.5851 127.553 88.3877 128.288C88.2341 128.789 87.9244 129.228 87.5037 129.54C87.3901 129.62 87.2664 129.685 87.1357 129.732C87.0901 129.752 87.0414 129.764 86.9917 129.768C87.1517 129.678 87.3067 129.579 87.4557 129.472C87.8411 129.154 88.1202 128.725 88.2557 128.244C88.4273 127.52 88.4933 126.775 88.4517 126.032C88.4517 125.176 88.4517 124.248 88.4797 123.268C88.5037 121.312 88.5357 119.54 88.5717 118.256C88.5917 117.644 88.6077 117.136 88.6197 116.736C88.6221 116.55 88.6394 116.364 88.6717 116.18Z" fill="#263238"/>
<path d="M89.3039 115.12C89.3047 115.196 89.283 115.27 89.2416 115.333C89.2001 115.396 89.1408 115.445 89.0712 115.474C89.0016 115.504 88.9249 115.511 88.8508 115.497C88.7767 115.482 88.7086 115.446 88.6552 115.393C88.6019 115.339 88.5656 115.271 88.5511 115.197C88.5365 115.123 88.5444 115.046 88.5736 114.977C88.6029 114.907 88.6522 114.848 88.7153 114.806C88.7784 114.765 88.8524 114.743 88.9279 114.744C89.0276 114.744 89.1233 114.784 89.1938 114.854C89.2643 114.925 89.3039 115.02 89.3039 115.12Z" fill="#263238"/>
<path d="M108.8 110.992C108.767 110.928 108.743 110.859 108.728 110.788C108.684 110.632 108.632 110.436 108.564 110.196C108.428 109.68 108.24 108.932 108.016 108.004C107.568 106.152 106.988 103.58 106.388 100.732C105.788 97.884 105.272 95.296 104.908 93.424C104.736 92.508 104.592 91.76 104.508 91.204C104.464 90.96 104.432 90.76 104.404 90.6C104.385 90.5296 104.377 90.4568 104.38 90.384C104.409 90.4506 104.431 90.5204 104.444 90.592L104.588 91.188C104.708 91.74 104.872 92.484 105.072 93.396C105.472 95.288 106.012 97.852 106.612 100.688C107.212 103.524 107.768 106.108 108.18 107.972L108.664 110.176L108.788 110.78C108.802 110.85 108.806 110.921 108.8 110.992Z" fill="#263238"/>
<path d="M100.728 84.152C100.728 84.212 98.7477 84.26 96.3277 84.26C93.9077 84.26 91.9077 84.212 91.9077 84.152C91.9077 84.092 93.8877 84.048 96.3277 84.048C98.7677 84.048 100.728 84.096 100.728 84.152Z" fill="#263238"/>
<path d="M93.3721 84.116C93.2334 83.212 93.2334 82.292 93.3721 81.388C93.5108 82.292 93.5108 83.212 93.3721 84.116Z" fill="#263238"/>
<path d="M95.3599 84.116C95.2212 83.2307 95.2212 82.3293 95.3599 81.444C95.4986 82.3293 95.4986 83.2307 95.3599 84.116Z" fill="#263238"/>
<path d="M97.1157 84.06C96.9771 83.2096 96.9771 82.3424 97.1157 81.492C97.2543 82.3424 97.2543 83.2096 97.1157 84.06Z" fill="#263238"/>
<path d="M99.1997 84.192C99.061 83.3242 99.061 82.4399 99.1997 81.572C99.3383 82.4399 99.3383 83.3242 99.1997 84.192Z" fill="#263238"/>
<path d="M98.8521 116.944L116.704 174.528L124.5 170.912L109.96 116.356L98.8521 116.944Z" fill="#263238"/>
<path d="M89.56 117.376L90.488 147.356L76 167.568L83.844 172.608L101.068 151.732C101.936 150.683 102.408 149.362 102.4 148L102.252 116.8L89.56 117.376Z" fill="#263238"/>
<path d="M94.3119 117.156C94.3119 117.156 94.3679 117.24 94.4199 117.412C94.4939 117.656 94.5422 117.906 94.5639 118.16C94.633 119.003 94.4712 119.85 94.0959 120.608C93.7338 121.373 93.1746 122.027 92.4759 122.504C92.2008 122.718 91.885 122.873 91.5479 122.96C91.5479 122.928 91.8919 122.768 92.3879 122.388C93.0337 121.893 93.5543 121.253 93.9079 120.52C94.2678 119.79 94.4423 118.982 94.4159 118.168C94.3999 117.544 94.2759 117.164 94.3119 117.156Z" fill="#455A64"/>
<path d="M110.508 120.624C110.261 120.582 110.026 120.487 109.82 120.344C108.765 119.729 107.994 118.723 107.676 117.544C107.6 117.304 107.574 117.051 107.6 116.8C107.823 117.595 108.179 118.347 108.652 119.024C109.174 119.66 109.802 120.201 110.508 120.624Z" fill="#455A64"/>
<path d="M97.8758 117.076C97.8801 117.127 97.8801 117.177 97.8758 117.228C97.8758 117.336 97.8958 117.484 97.9118 117.668C97.9358 118.068 97.9758 118.64 98.0198 119.372C98.1118 120.848 98.2358 122.972 98.3518 125.632C98.4678 128.292 98.5638 131.428 98.5438 134.932C98.5438 136.68 98.4878 138.532 98.4078 140.424C98.3278 142.316 98.2518 144.316 97.6998 146.284C97.1478 148.252 96.0158 149.944 94.8998 151.484C93.7838 153.024 92.6278 154.456 91.5518 155.84C89.4078 158.604 87.4478 161.072 85.7878 163.136C84.1278 165.2 82.7718 166.856 81.8278 167.996L80.7318 169.304L80.4438 169.64C80.4128 169.681 80.378 169.718 80.3398 169.752C80.3665 169.709 80.3959 169.667 80.4278 169.628L80.6998 169.276L81.7638 167.944C82.6958 166.78 84.0278 165.108 85.6718 163.044C87.3158 160.98 89.2718 158.492 91.3998 155.724L94.7358 151.364C95.8678 149.844 96.9878 148.188 97.5158 146.248C98.0438 144.308 98.1438 142.332 98.2238 140.432C98.3038 138.532 98.3558 136.696 98.3718 134.948C98.4038 131.452 98.3238 128.3 98.2238 125.656C98.1238 123.012 98.0238 120.884 97.9598 119.396C97.9278 118.664 97.9078 118.092 97.8878 117.692C97.8878 117.504 97.8878 117.36 97.8878 117.248C97.8783 117.191 97.8742 117.134 97.8758 117.076Z" fill="#455A64"/>
<path d="M120.824 172.152C120.768 172.152 117.292 159.752 113.06 144.396C108.828 129.04 105.46 116.596 105.5 116.58C105.54 116.564 109.032 128.98 113.264 144.34C117.496 159.7 120.88 172.136 120.824 172.152Z" fill="#455A64"/>
<path d="M183.552 120.152H161.332V123.204H183.552V120.152Z" fill="#263238"/>
<path d="M183.6 123.244H161.296V120.112H183.6V123.244ZM161.38 123.168H183.524V120.188H161.372L161.38 123.168Z" fill="#263238"/>
<path d="M163.392 122.188L166.592 137.968H178.428L181.52 123.204L163.392 122.188Z" fill="#263238"/>
<path d="M163.392 136.476L165.1 138.82H179.484L181.52 136.476H163.392Z" fill="#263238"/>
<path d="M171.6 122.648C171.556 122.648 171.5 115.34 171.476 106.324C171.452 97.308 171.476 89.996 171.508 89.996C171.54 89.996 171.608 97.304 171.636 106.324C171.664 115.344 171.652 122.648 171.6 122.648Z" fill="#263238"/>
<path d="M176.56 104.356C176.546 104.414 176.526 104.47 176.5 104.524L176.3 105L176.156 105.34C176.112 105.468 176.06 105.608 176.008 105.74C175.956 105.872 175.896 106.048 175.836 106.216C175.776 106.384 175.732 106.568 175.672 106.756C175.407 107.648 175.2 108.557 175.052 109.476C174.877 110.604 174.762 111.74 174.708 112.88C174.625 114.954 174.684 117.03 174.884 119.096C174.956 119.896 175.028 120.528 175.08 120.972C175.1 121.18 175.12 121.348 175.136 121.484C175.143 121.544 175.143 121.604 175.136 121.664C175.116 121.607 175.103 121.548 175.096 121.488C175.072 121.356 175.044 121.188 175.008 120.98C174.94 120.54 174.848 119.9 174.764 119.108C174.53 117.038 174.456 114.953 174.54 112.872C174.597 111.726 174.717 110.585 174.9 109.452C175.058 108.529 175.277 107.618 175.556 106.724C175.62 106.536 175.672 106.352 175.732 106.18C175.792 106.008 175.86 105.856 175.916 105.708L176.08 105.308C176.132 105.184 176.188 105.072 176.236 104.968L176.464 104.508C176.489 104.454 176.522 104.402 176.56 104.356Z" fill="#263238"/>
<path d="M176 98.444C175.981 98.5256 175.957 98.6058 175.928 98.684L175.696 99.364L175.528 99.852L175.348 100.444C175.22 100.868 175.068 101.348 174.948 101.888C174.88 102.16 174.804 102.44 174.728 102.732L174.52 103.66C174.364 104.296 174.252 104.984 174.12 105.708C173.876 107.16 173.66 108.764 173.512 110.456C173.364 112.148 173.308 113.772 173.288 115.256C173.268 116.74 173.288 118.056 173.364 119.168C173.384 119.724 173.416 120.228 173.448 120.672C173.48 121.116 173.5 121.492 173.528 121.804C173.556 122.116 173.568 122.34 173.584 122.52C173.588 122.604 173.588 122.688 173.584 122.772C173.562 122.691 173.548 122.608 173.544 122.524C173.52 122.344 173.492 122.124 173.46 121.808C173.428 121.492 173.384 121.12 173.352 120.676C173.32 120.232 173.268 119.732 173.244 119.176C173.168 118.06 173.136 116.732 173.136 115.256C173.136 113.78 173.204 112.156 173.344 110.456C173.484 108.756 173.716 107.148 173.968 105.692C174.116 104.972 174.232 104.28 174.396 103.64C174.468 103.32 174.544 103.012 174.612 102.716C174.68 102.42 174.772 102.14 174.844 101.872C174.988 101.332 175.144 100.852 175.284 100.428L175.476 99.84L175.66 99.356L175.92 98.684C175.939 98.6017 175.966 98.5214 176 98.444Z" fill="#263238"/>
<path d="M170.204 123.944C170.199 123.915 170.199 123.885 170.204 123.856L170.184 123.604C170.184 123.372 170.144 123.048 170.116 122.636C170.064 121.784 169.988 120.572 169.896 119.076C169.7 116.072 169.424 111.916 168.916 107.352C168.656 105.068 168.36 102.9 168.048 100.952C167.88 99.972 167.732 99.036 167.56 98.152C167.388 97.268 167.236 96.476 167.08 95.752C166.924 95.028 166.772 94.352 166.64 93.752C166.508 93.152 166.388 92.668 166.284 92.26C166.18 91.852 166.108 91.548 166.052 91.32C166.028 91.22 166.012 91.14 165.996 91.072C165.99 91.0443 165.99 91.0157 165.996 90.988C165.996 90.988 165.996 91.016 166.024 91.068L166.096 91.312C166.156 91.536 166.244 91.848 166.356 92.248C166.468 92.648 166.6 93.152 166.756 93.732C166.912 94.312 167.064 94.976 167.216 95.732C167.368 96.488 167.556 97.276 167.716 98.132C167.876 98.988 168.048 99.936 168.22 100.932C168.54 102.9 168.844 105.072 169.1 107.356C169.608 111.928 169.868 116.084 170.032 119.096C170.116 120.6 170.172 121.816 170.208 122.66C170.208 123.06 170.232 123.396 170.244 123.628C170.244 123.732 170.244 123.816 170.244 123.88C170.233 123.903 170.22 123.924 170.204 123.944Z" fill="#263238"/>
<path d="M171.428 93.512C171.332 92.476 170.284 91.692 169.244 91.684C168.723 91.7065 168.214 91.8476 167.756 92.0964C167.298 92.3453 166.903 92.6954 166.6 93.12C166.001 93.9728 165.568 94.9308 165.324 95.944C164.563 98.3746 164.291 100.932 164.524 103.468C164.772 106.023 165.876 108.419 167.656 110.268C167.783 110.431 167.947 110.562 168.135 110.648C168.323 110.734 168.529 110.774 168.736 110.764C168.952 110.696 169.147 110.575 169.304 110.412C171.081 108.792 172.491 106.811 173.439 104.601C174.387 102.391 174.851 100.004 174.8 97.6C174.832 96.6357 174.595 95.6814 174.116 94.844C173.584 94.044 172.348 93.196 171.444 93.52" fill="#5200D9"/>
<path d="M163.66 85.2L162.196 87.852C162.164 87.912 162.116 87.984 162.048 87.988C161.98 87.992 161.912 87.924 161.872 87.856L158 81.928L158.892 81.424L163.66 85.2Z" fill="#5200D9"/>
<g opacity="0.2">
<path d="M163.66 85.2L162.196 87.852C162.164 87.912 162.116 87.984 162.048 87.988C161.98 87.992 161.912 87.924 161.872 87.856L158 81.928L158.892 81.424L163.66 85.2Z" fill="black"/>
</g>
<path d="M171.516 90L158.316 82.204C158.18 82.124 158.032 82.032 157.992 81.88C157.952 81.728 158.088 81.48 158.228 81.348C159.136 80.4058 160.237 79.6705 161.456 79.1921C162.674 78.7138 163.981 78.5036 165.288 78.576C166.597 78.6678 167.864 79.077 168.979 79.7684C170.094 80.4598 171.024 81.4125 171.688 82.544C172.96 84.824 173.004 87.836 171.54 90" fill="#5200D9"/>
<path d="M160.212 79.712C160.212 79.712 160.268 79.712 160.384 79.688C160.5 79.664 160.664 79.664 160.884 79.664C161.498 79.6581 162.111 79.7076 162.716 79.812C163.617 79.9659 164.495 80.2347 165.328 80.612C166.349 81.0708 167.294 81.6847 168.128 82.432C169.634 83.8123 170.722 85.5877 171.268 87.556C171.432 88.1489 171.541 88.7554 171.596 89.368C171.62 89.584 171.616 89.768 171.62 89.864C171.627 89.9225 171.627 89.9816 171.62 90.04C171.581 89.8189 171.553 89.596 171.536 89.372C171.46 88.7683 171.336 88.1716 171.164 87.588C170.609 85.6481 169.523 83.9022 168.027 82.5483C166.531 81.1945 164.685 80.2867 162.7 79.928C162.102 79.8151 161.496 79.7509 160.888 79.736C160.452 79.716 160.212 79.724 160.212 79.712Z" fill="#263238"/>
<path d="M169.728 84.616C169.518 84.7426 169.294 84.8446 169.06 84.92C168.66 85.084 168.052 85.296 167.396 85.504C166.74 85.712 166.132 85.88 165.692 85.988C165.459 86.0643 165.217 86.11 164.972 86.124C165.195 86.0216 165.427 85.94 165.664 85.88L167.348 85.356L169.024 84.812C169.251 84.7215 169.487 84.6558 169.728 84.616Z" fill="#263238"/>
<path d="M167.648 79.028C167.831 80.0017 167.856 80.9983 167.724 81.98C167.659 81.4908 167.634 80.9973 167.648 80.504C167.61 80.0128 167.61 79.5193 167.648 79.028Z" fill="#263238"/>
<path d="M158.192 82.052C158.502 81.9126 158.823 81.8001 159.152 81.716C159.752 81.528 160.588 81.316 161.52 81.072C162.452 80.828 163.3 80.672 163.92 80.564C164.252 80.4907 164.589 80.4452 164.928 80.428C164.607 80.5364 164.278 80.6193 163.944 80.676C163.332 80.812 162.484 81 161.544 81.224C160.604 81.448 159.776 81.664 159.168 81.824C158.848 81.922 158.522 81.9982 158.192 82.052Z" fill="#263238"/>
<path d="M165.424 91.06C164.288 90.196 163.088 90.028 161.664 90.084C160.236 90.1797 158.839 90.5405 157.544 91.148C155.316 92.124 153.224 93.548 151.892 95.596C150.56 97.644 150.1 100.324 151.092 102.544C151.17 102.776 151.331 102.971 151.544 103.092C151.791 103.161 152.054 103.141 152.288 103.036C154.82 102.208 157.372 101.372 159.704 100.08C162.036 98.788 164.152 96.984 165.404 94.632C165.726 94.077 165.93 93.4615 166.004 92.824C166.038 92.5053 166.004 92.1829 165.903 91.8786C165.803 91.5743 165.638 91.2951 165.42 91.06" fill="#5200D9"/>
<path d="M165.448 90.8C165.391 90.8307 165.331 90.8548 165.268 90.872L164.736 91.056L164.336 91.184L163.884 91.36C163.564 91.488 163.192 91.62 162.8 91.808L162.18 92.092C161.964 92.192 161.748 92.312 161.52 92.428C161.064 92.656 160.596 92.944 160.104 93.228C159.048 93.8909 158.045 94.6345 157.104 95.452C156.174 96.2831 155.307 97.1829 154.512 98.144C154.16 98.6 153.816 99.024 153.532 99.448C153.388 99.66 153.24 99.848 153.132 100.06C153.024 100.272 152.884 100.46 152.772 100.64C152.532 101.004 152.372 101.356 152.188 101.66C152.104 101.812 152.024 101.948 151.956 102.06L151.78 102.428C151.676 102.632 151.596 102.8 151.532 102.928C151.506 102.988 151.474 103.046 151.436 103.1C151.449 103.036 151.47 102.974 151.5 102.916C151.56 102.784 151.632 102.612 151.724 102.4C151.776 102.288 151.828 102.164 151.888 102.028C151.948 101.892 152.028 101.752 152.108 101.596C152.272 101.292 152.44 100.932 152.676 100.564C152.788 100.376 152.904 100.164 153.028 99.972C153.152 99.78 153.3 99.572 153.428 99.356C153.708 98.924 154.052 98.492 154.404 98.032C155.979 96.0687 157.883 94.3943 160.032 93.084C160.532 92.792 161 92.508 161.464 92.284C161.696 92.172 161.912 92.052 162.132 91.952L162.76 91.68C163.16 91.492 163.532 91.372 163.86 91.248L164.316 91.084L164.716 90.968L165.256 90.816C165.319 90.8035 165.384 90.7982 165.448 90.8Z" fill="#263238"/>
<path d="M156.572 95.6C155.668 95.95 154.745 96.2478 153.808 96.492C152.888 96.7886 151.954 97.0356 151.008 97.232C151.912 96.8842 152.835 96.5864 153.772 96.34C154.692 96.0451 155.626 95.7981 156.572 95.6Z" fill="#263238"/>
<path d="M156.456 101.696C156.41 101.412 156.39 101.124 156.396 100.836C156.396 100.304 156.396 99.568 156.396 98.756C156.396 97.944 156.46 97.208 156.504 96.676C156.511 96.3875 156.548 96.1005 156.616 95.82C156.639 96.1076 156.639 96.3965 156.616 96.684C156.616 97.268 156.576 97.976 156.552 98.76C156.528 99.544 156.516 100.252 156.5 100.836C156.513 101.123 156.499 101.411 156.456 101.696Z" fill="#263238"/>
<path d="M161.684 99.036C161.64 99.036 161.5 97.544 161.372 95.696C161.244 93.848 161.176 92.348 161.22 92.344C161.264 92.34 161.404 93.836 161.532 95.684C161.66 97.532 161.728 99.032 161.684 99.036Z" fill="#263238"/>
<path d="M155.2 92.2C155.493 92.162 155.789 92.1527 156.084 92.172C156.632 92.172 157.384 92.172 158.216 92.22C159.048 92.268 159.816 92.28 160.348 92.312C160.634 92.3141 160.92 92.3435 161.2 92.4C160.907 92.4326 160.611 92.4406 160.316 92.424C159.768 92.424 159.012 92.404 158.18 92.38C157.348 92.356 156.58 92.316 156.048 92.284C155.764 92.2797 155.48 92.2516 155.2 92.2Z" fill="#263238"/>
<path d="M168.24 110.964C168.224 110.905 168.218 110.845 168.22 110.784C168.22 110.648 168.22 110.476 168.196 110.264C168.176 109.816 168.172 109.16 168.196 108.356C168.22 107.552 168.264 106.588 168.36 105.524C168.456 104.46 168.612 103.296 168.824 102.084C169.036 100.872 169.308 99.724 169.576 98.692C169.844 97.66 170.136 96.74 170.4 95.98C170.664 95.22 170.896 94.604 171.068 94.188C171.152 93.992 171.216 93.836 171.268 93.708C171.288 93.6517 171.315 93.5979 171.348 93.548C171.34 93.6073 171.324 93.6651 171.3 93.72C171.252 93.848 171.196 94.012 171.128 94.212C170.968 94.632 170.756 95.248 170.508 96.016C170.26 96.784 169.988 97.7 169.708 98.728C169.428 99.756 169.188 100.904 168.968 102.112C168.748 103.32 168.604 104.48 168.492 105.54C168.38 106.6 168.324 107.54 168.296 108.34C168.268 109.14 168.252 109.796 168.256 110.248C168.256 110.46 168.256 110.648 168.256 110.768C168.257 110.834 168.251 110.899 168.24 110.964Z" fill="#263238"/>
<path d="M168.936 101.952C168.782 102.163 168.605 102.357 168.408 102.528C168.068 102.872 167.58 103.328 167.028 103.812C166.476 104.296 165.956 104.72 165.576 105.012C165.377 105.182 165.162 105.331 164.932 105.456C165.107 105.262 165.298 105.084 165.504 104.924L166.924 103.692L168.332 102.444C168.517 102.26 168.719 102.095 168.936 101.952Z" fill="#263238"/>
<path d="M173.116 105.32C172.91 105.074 172.723 104.813 172.556 104.54L171.252 102.636L169.92 100.752C169.721 100.499 169.542 100.232 169.384 99.952C169.612 100.178 169.821 100.423 170.008 100.684C170.376 101.148 170.864 101.804 171.38 102.548C171.896 103.292 172.34 103.976 172.652 104.48C172.832 104.745 172.988 105.026 173.116 105.32Z" fill="#263238"/>
<path d="M170.928 94.724C170.952 94.764 169.56 95.696 167.824 96.816C166.088 97.936 164.66 98.816 164.624 98.768C164.588 98.72 165.988 97.796 167.728 96.68C169.468 95.564 170.904 94.688 170.928 94.724Z" fill="#263238"/>
<path d="M174.844 98.952C174.108 98.346 173.406 97.6983 172.744 97.012C172.039 96.3652 171.371 95.6788 170.744 94.956C171.48 95.5641 172.181 96.2131 172.844 96.9C173.55 97.5449 174.218 98.23 174.844 98.952Z" fill="#263238"/>
<path d="M175.828 98.868L177.028 98.768C177.872 98.6987 178.691 98.4476 179.428 98.032C179.791 97.821 180.166 97.6326 180.552 97.468C182.028 96.876 183.672 96.984 185.256 96.904C187.855 96.7718 190.401 96.1203 192.744 94.988C192.881 94.9264 192.994 94.8227 193.068 94.692C193.316 94.248 192.86 93.848 192.468 93.608C190.468 92.372 188.416 91.116 186.136 90.504C183.856 89.892 181.272 89.992 179.336 91.328C177.052 92.9 176.224 96.128 175.836 98.868" fill="#5200D9"/>
<path d="M193.096 94.548C193.026 94.5217 192.96 94.4896 192.896 94.452L192.328 94.156C191.84 93.9 191.128 93.516 190.24 93.092C189.203 92.5804 188.123 92.1627 187.012 91.844C185.652 91.4558 184.229 91.3403 182.824 91.504C181.417 91.6632 180.088 92.2336 179.004 93.144C178.154 93.932 177.474 94.8846 177.004 95.944C176.68 96.6544 176.391 97.3807 176.14 98.12C176.052 98.368 175.98 98.568 175.928 98.72C175.905 98.7912 175.877 98.8607 175.844 98.928C175.855 98.8546 175.872 98.7823 175.896 98.712L176.08 98.1C176.31 97.3507 176.585 96.6161 176.904 95.9C177.363 94.8186 178.045 93.8456 178.904 93.044C180.003 92.1049 181.359 91.517 182.796 91.356C184.221 91.1885 185.666 91.3096 187.044 91.712C188.162 92.039 189.248 92.4688 190.288 92.996C191.176 93.44 191.888 93.836 192.356 94.112L192.908 94.432C192.975 94.4621 193.039 94.5011 193.096 94.548Z" fill="#263238"/>
<path d="M190.232 96.084C190.208 96.12 188.632 95.112 186.748 93.832C184.864 92.552 183.332 91.484 183.356 91.432C183.38 91.38 184.956 92.404 186.84 93.684C188.724 94.964 190.256 96.048 190.232 96.084Z" fill="#263238"/>
<path d="M188.736 91.3C188.352 91.4455 187.946 91.5279 187.536 91.544C187.125 91.6091 186.705 91.6024 186.296 91.524C186.701 91.4436 187.111 91.3968 187.524 91.384C187.925 91.3199 188.33 91.2918 188.736 91.3Z" fill="#263238"/>
<path d="M181.744 90.044C181.45 90.7503 181.059 91.4125 180.584 92.012C180.706 91.6483 180.878 91.3036 181.096 90.988C181.267 90.6449 181.485 90.3272 181.744 90.044Z" fill="#263238"/>
<path d="M183.14 97.004C182.876 96.897 182.624 96.763 182.388 96.604C181.94 96.332 181.328 95.932 180.68 95.46C180.032 94.988 179.456 94.54 179.044 94.212C178.811 94.0474 178.594 93.8613 178.396 93.656C178.647 93.7915 178.887 93.948 179.112 94.124L180.772 95.324C181.42 95.792 182.016 96.208 182.448 96.504C182.693 96.6505 182.924 96.8178 183.14 97.004Z" fill="#263238"/>
<path d="M177.6 103.936C176.464 103.636 175.108 104.736 174.872 105.892C174.636 107.048 175.072 108.224 175.576 109.288C176.659 111.668 178.268 113.771 180.28 115.44C182.312 117.111 184.85 118.045 187.48 118.088C187 115.856 187.608 113.52 187.34 111.252C187.104 109.253 186.196 107.393 184.765 105.977C183.334 104.561 181.465 103.672 179.464 103.456C178.74 103.376 177.9 103.264 177.608 103.936" fill="#5200D9"/>
<path d="M187.456 118.088C187.4 118.069 187.346 118.044 187.296 118.012C187.145 117.93 187.002 117.835 186.868 117.728C186.391 117.312 186.008 116.799 185.744 116.224C185.564 115.872 185.344 115.492 185.164 115.068L184.552 113.716C184.332 113.218 184.081 112.734 183.8 112.268C183.492 111.774 183.146 111.304 182.764 110.864C181.988 109.948 181.164 109.156 180.428 108.4C179.773 107.739 179.176 107.023 178.644 106.26C178.288 105.742 177.995 105.184 177.772 104.596C177.7 104.388 177.648 104.224 177.62 104.108C177.603 104.052 177.591 103.994 177.584 103.936C177.584 103.936 177.664 104.168 177.828 104.576C178.073 105.147 178.377 105.69 178.736 106.196C179.275 106.946 179.876 107.65 180.532 108.3C181.26 109.048 182.1 109.836 182.884 110.76C183.272 111.206 183.622 111.684 183.932 112.188C184.215 112.66 184.466 113.151 184.684 113.656L185.284 115.012C185.472 115.436 185.684 115.812 185.844 116.176C186.095 116.743 186.457 117.255 186.908 117.68C187.24 117.968 187.464 118.072 187.456 118.088Z" fill="#263238"/>
<path d="M181.576 116.232C181.58 115.974 181.615 115.718 181.68 115.468C181.768 115 181.916 114.356 182.112 113.656C182.308 112.956 182.512 112.328 182.688 111.884C182.764 111.636 182.868 111.399 183 111.176C182.955 111.43 182.887 111.679 182.796 111.92C182.652 112.372 182.46 113 182.264 113.696C182.068 114.392 181.904 115.032 181.788 115.492C181.739 115.744 181.668 115.992 181.576 116.232Z" fill="#263238"/>
<path d="M187.24 110.752C186.969 110.713 186.701 110.652 186.44 110.568C185.948 110.44 185.272 110.264 184.52 110.092C183.768 109.92 183.08 109.792 182.584 109.692C182.313 109.659 182.045 109.6 181.784 109.516C182.059 109.509 182.334 109.532 182.604 109.584C183.108 109.648 183.804 109.764 184.56 109.936C185.316 110.108 185.992 110.3 186.476 110.456C186.741 110.526 186.997 110.625 187.24 110.752Z" fill="#263238"/>
<path d="M177.356 112.344C177.364 112.045 177.404 111.747 177.476 111.456C177.576 110.916 177.736 110.168 177.948 109.352C178.16 108.536 178.388 107.808 178.568 107.284C178.648 106.997 178.757 106.718 178.892 106.452C178.842 106.747 178.769 107.037 178.672 107.32C178.524 107.848 178.316 108.58 178.104 109.392C177.892 110.204 177.704 110.944 177.588 111.48C177.533 111.773 177.455 112.062 177.356 112.344Z" fill="#263238"/>
<path d="M184.632 105.972C184.632 106.016 183.208 105.9 181.46 105.716C179.712 105.532 178.3 105.344 178.304 105.316C179.365 105.346 180.424 105.432 181.476 105.572C183.224 105.744 184.636 105.928 184.632 105.972Z" fill="#263238"/>
<path d="M183.6 123.2C183.6 123.244 178.608 123.28 172.452 123.28C166.296 123.28 161.304 123.244 161.304 123.2C161.304 123.156 166.296 123.12 172.452 123.12C178.608 123.12 183.6 123.148 183.6 123.2Z" fill="#455A64"/>
<path d="M180.12 129.6C180.12 129.644 176.756 129.68 172.608 129.68C168.46 129.68 165.096 129.644 165.096 129.6C165.096 129.556 168.46 129.52 172.608 129.52C176.756 129.52 180.12 129.572 180.12 129.6Z" fill="#455A64"/>
<path d="M180.248 130.532C180.248 130.576 176.888 130.612 172.74 130.612C168.592 130.612 165.228 130.576 165.228 130.532C165.228 130.488 168.592 130.456 172.74 130.456C176.888 130.456 180.248 130.488 180.248 130.532Z" fill="#455A64"/>
<path d="M180.248 128.86C180.248 128.9 176.772 128.936 172.48 128.936C168.188 128.936 164.712 128.9 164.712 128.86C164.712 128.82 168.188 128.78 172.48 128.78C176.772 128.78 180.248 128.8 180.248 128.86Z" fill="#455A64"/>
<path d="M13.264 147.08C13.9684 147.137 14.654 147.336 15.2801 147.663C15.9062 147.991 16.4598 148.442 16.908 148.988C17.7986 150.089 18.4253 151.379 18.74 152.76C19.424 155.404 18.964 158.512 18.188 161.128C15.344 160.084 13.612 157.024 12.828 155.416C11.592 152.876 10.9 147.536 13.264 147.08Z" fill="#5200D9"/>
<path d="M22.2679 164.356C21.8452 163.688 21.6067 162.921 21.5765 162.131C21.5463 161.342 21.7255 160.558 22.0959 159.86C22.4768 159.17 22.9912 158.562 23.6093 158.072C24.2273 157.583 24.9366 157.221 25.6959 157.008C26.3919 156.8 27.2039 156.716 27.8039 157.128C28.0738 157.337 28.2832 157.615 28.4104 157.932C28.5377 158.249 28.5782 158.594 28.5279 158.932C28.4147 159.607 28.1264 160.24 27.6919 160.768C26.2879 162.636 24.5839 164.184 22.2559 164.368" fill="#5200D9"/>
<g opacity="0.3">
<path d="M22.2679 164.356C21.8452 163.688 21.6067 162.921 21.5765 162.131C21.5463 161.342 21.7255 160.558 22.0959 159.86C22.4768 159.17 22.9912 158.562 23.6093 158.072C24.2273 157.583 24.9366 157.221 25.6959 157.008C26.3919 156.8 27.2039 156.716 27.8039 157.128C28.0738 157.337 28.2832 157.615 28.4104 157.932C28.5377 158.249 28.5782 158.594 28.5279 158.932C28.4147 159.607 28.1264 160.24 27.6919 160.768C26.2879 162.636 24.5839 164.184 22.2559 164.368" fill="white"/>
</g>
<path d="M19.232 167.156C18.3448 165.745 17.1343 164.566 15.7007 163.716C14.2671 162.866 12.6516 162.369 10.988 162.268C10.144 162.224 9.13195 162.388 8.77195 163.152C8.41195 163.916 8.93595 164.808 9.51995 165.42C10.7697 166.673 12.3623 167.527 14.0971 167.876C15.8319 168.225 17.6312 168.052 19.268 167.38" fill="#5200D9"/>
<g opacity="0.3">
<path d="M19.232 167.156C18.3448 165.745 17.1343 164.566 15.7007 163.716C14.2671 162.866 12.6516 162.369 10.988 162.268C10.144 162.224 9.13195 162.388 8.77195 163.152C8.41195 163.916 8.93595 164.808 9.51995 165.42C10.7697 166.673 12.3623 167.527 14.0971 167.876C15.8319 168.225 17.6312 168.052 19.268 167.38" fill="white"/>
</g>
<path d="M22.2917 173.42C22.2379 173.237 22.1991 173.05 22.1757 172.86C22.1117 172.5 22.0277 171.972 21.9397 171.32C21.679 169.62 21.64 167.894 21.8237 166.184C22.0246 164.46 22.6819 162.821 23.7277 161.436C24.0505 161.025 24.4211 160.655 24.8317 160.332C24.9432 160.243 25.0594 160.16 25.1797 160.084C25.2179 160.052 25.2611 160.026 25.3077 160.008C24.7632 160.456 24.2684 160.962 23.8317 161.516C22.8296 162.897 22.1988 164.513 21.9997 166.208C21.8188 167.905 21.8403 169.617 22.0637 171.308C22.1357 171.936 22.1957 172.456 22.2397 172.852C22.2734 173.039 22.2908 173.23 22.2917 173.42Z" fill="#263238"/>
<path d="M14.1479 151.1C14.192 151.17 14.2295 151.243 14.26 151.32L14.5479 151.96C14.7919 152.512 15.14 153.324 15.56 154.324C16.4 156.324 17.5279 159.124 18.6999 162.216C19.8719 165.308 20.8719 168.152 21.5679 170.216C21.9119 171.248 22.1879 172.084 22.3679 172.664C22.4519 172.94 22.5199 173.16 22.5759 173.332C22.6017 173.409 22.6218 173.488 22.636 173.568C22.5946 173.498 22.5623 173.422 22.5399 173.344L22.2999 172.684C22.0919 172.092 21.7999 171.268 21.4399 170.26C20.7159 168.212 19.6999 165.388 18.5279 162.284C17.3559 159.18 16.2479 156.392 15.4399 154.376C15.0399 153.384 14.7119 152.572 14.4799 151.976C14.3719 151.708 14.288 151.492 14.224 151.324C14.1909 151.252 14.1655 151.177 14.1479 151.1Z" fill="#263238"/>
<path d="M12.3399 164.456C12.5218 164.451 12.7038 164.462 12.8839 164.488C13.0977 164.502 13.3103 164.532 13.5199 164.576C13.8008 164.62 14.0787 164.681 14.3519 164.76L14.8319 164.892C14.9959 164.94 15.1639 165.008 15.3359 165.068C15.7089 165.202 16.0747 165.356 16.4319 165.528C17.2426 165.936 18.0093 166.427 18.7199 166.992C19.4197 167.57 20.0566 168.22 20.6199 168.932C20.8604 169.246 21.0847 169.571 21.2919 169.908C21.3879 170.068 21.4919 170.216 21.5719 170.368L21.7959 170.808C21.9289 171.068 22.0465 171.335 22.1479 171.608C22.2341 171.804 22.3063 172.006 22.3639 172.212C22.4272 172.383 22.4754 172.56 22.5079 172.74C22.4679 172.74 22.2639 171.996 21.6839 170.888L21.4519 170.456C21.3679 170.308 21.2639 170.164 21.1679 170.008C20.9799 169.692 20.7319 169.384 20.4879 169.056C19.9251 168.36 19.294 167.722 18.6039 167.152C17.9055 166.593 17.1523 166.107 16.3559 165.7C16.0078 165.514 15.6499 165.347 15.2839 165.2C15.1119 165.136 14.9519 165.064 14.7879 165.016L14.3199 164.872C13.1159 164.54 12.3319 164.496 12.3399 164.456Z" fill="#263238"/>
<path d="M16.876 170.868H27.124V176.2C27.124 177.504 26.606 178.754 25.6841 179.676C24.7622 180.598 23.5118 181.116 22.208 181.116H21.808C21.1611 181.118 20.5201 180.993 19.9218 180.746C19.3235 180.5 18.7797 180.139 18.3215 179.682C17.8633 179.225 17.4998 178.682 17.2517 178.085C17.0037 177.488 16.876 176.847 16.876 176.2V170.868Z" fill="#5200D9"/>
<path opacity="0.3" d="M16.876 170.868H27.124V176.2C27.124 177.504 26.606 178.754 25.6841 179.676C24.7622 180.598 23.5118 181.116 22.208 181.116H21.808C21.1611 181.118 20.5201 180.993 19.9218 180.746C19.3235 180.5 18.7797 180.139 18.3215 179.682C17.8633 179.225 17.4998 178.682 17.2517 178.085C17.0037 177.488 16.876 176.847 16.876 176.2V170.868Z" fill="black"/>
<path d="M23.8002 170.892C23.7793 170.999 23.7401 171.102 23.6842 171.196C23.5537 171.462 23.4012 171.716 23.2282 171.956C22.6576 172.759 21.9013 173.413 21.0237 173.86C20.1462 174.308 19.1734 174.537 18.1882 174.528C17.8932 174.528 17.5988 174.503 17.3082 174.452C17.1987 174.443 17.0917 174.415 16.9922 174.368C16.9922 174.336 17.4522 174.428 18.1922 174.404C19.1494 174.369 20.088 174.129 20.9442 173.7C21.7955 173.259 22.5408 172.638 23.1282 171.88C23.5762 171.3 23.7722 170.88 23.8002 170.892Z" fill="#FAFAFA"/>
<path d="M27.0281 177.796C26.9145 177.788 26.8026 177.764 26.6961 177.724C26.4004 177.632 26.117 177.504 25.8521 177.344C24.9574 176.82 24.2792 175.994 23.9396 175.014C23.6001 174.034 23.6215 172.965 24.0001 172C24.1086 171.71 24.2523 171.435 24.4281 171.18C24.487 171.083 24.5597 170.996 24.6441 170.92C24.4446 171.283 24.2695 171.658 24.1201 172.044C23.784 172.986 23.7787 174.014 24.1052 174.959C24.4316 175.905 25.0704 176.71 25.9161 177.244C26.2742 177.452 26.6457 177.637 27.0281 177.796Z" fill="#FAFAFA"/>
<path d="M24.3997 180.836C24.3915 180.324 24.3189 179.814 24.1837 179.32C24.0165 178.794 23.7579 178.301 23.4197 177.864C23.0036 177.331 22.4889 176.883 21.9037 176.544C20.8213 175.944 19.5757 175.704 18.3477 175.86C17.8398 175.938 17.3374 176.049 16.8438 176.192C16.9674 176.113 17.1023 176.054 17.2437 176.016C17.6022 175.884 17.9736 175.79 18.3518 175.736C19.6078 175.54 20.8932 175.774 21.9997 176.4C22.6055 176.751 23.1357 177.219 23.5598 177.776C23.9051 178.23 24.1603 178.746 24.3117 179.296C24.4172 179.665 24.4658 180.048 24.4557 180.432C24.4534 180.568 24.4346 180.704 24.3997 180.836Z" fill="#FAFAFA"/>
<path d="M139.084 49.8C139.028 49.8 138.98 41.364 138.98 30.96C138.98 20.556 139.028 12.12 139.084 12.12C139.14 12.12 139.188 20.552 139.188 30.96C139.188 41.368 139.144 49.8 139.084 49.8Z" fill="#263238"/>
<path d="M167.108 49.8C167.052 49.8 167.004 41.364 167.004 30.96C167.004 20.556 167.052 12.12 167.108 12.12C167.164 12.12 167.212 20.552 167.212 30.96C167.212 41.368 167.164 49.8 167.108 49.8Z" fill="#263238"/>
<path d="M170.324 40.672H136.028C135.491 40.672 134.96 40.5663 134.464 40.3608C133.968 40.1554 133.517 39.8543 133.137 39.4747C132.758 39.0951 132.457 38.6444 132.251 38.1484C132.046 37.6524 131.94 37.1209 131.94 36.584V30.84C131.94 30.3032 132.046 29.7716 132.251 29.2756C132.457 28.7796 132.758 28.329 133.137 27.9494C133.517 27.5698 133.968 27.2686 134.464 27.0632C134.96 26.8578 135.491 26.752 136.028 26.752H170.54C171.624 26.752 172.664 27.1827 173.431 27.9494C174.197 28.716 174.628 29.7558 174.628 30.84V36.368C174.628 37.5095 174.174 38.6042 173.367 39.4114C172.56 40.2186 171.465 40.672 170.324 40.672Z" fill="#5200D9"/>
<path d="M137.148 36.444C137.319 36.4451 137.484 36.3784 137.606 36.2585C137.728 36.1385 137.798 35.9752 137.8 35.804L137.832 31.78L143.52 37.56C143.641 37.6802 143.805 37.7476 143.976 37.7476C144.147 37.7476 144.31 37.6802 144.432 37.56C144.492 37.5001 144.541 37.4288 144.573 37.3502C144.606 37.2715 144.623 37.1872 144.623 37.102C144.623 37.0168 144.606 36.9325 144.573 36.8538C144.541 36.7752 144.492 36.7039 144.432 36.644L138.756 30.872L142.78 30.904C142.951 30.9051 143.116 30.8384 143.238 30.7185C143.36 30.5985 143.43 30.4352 143.432 30.264C143.434 30.1788 143.42 30.0938 143.39 30.0142C143.359 29.9345 143.313 29.8617 143.255 29.7999C143.196 29.7381 143.125 29.6886 143.047 29.6543C142.969 29.62 142.885 29.6016 142.8 29.6L136.568 29.548L136.516 35.78C136.514 35.8651 136.528 35.9498 136.559 36.0292C136.59 36.1087 136.636 36.1813 136.694 36.2429C136.753 36.3046 136.823 36.3541 136.901 36.3886C136.979 36.4231 137.063 36.4419 137.148 36.444Z" fill="#FAFAFA"/>
<path d="M152 36.712V37.6H148.856V36.9L150.4 35.488C150.724 35.188 150.768 35.004 150.768 34.84C150.768 34.58 150.596 34.44 150.248 34.44C150.104 34.4381 149.961 34.4739 149.835 34.5441C149.709 34.6143 149.603 34.7163 149.528 34.84L148.684 34.368C148.862 34.0914 149.11 33.8674 149.403 33.719C149.696 33.5706 150.024 33.5033 150.352 33.524C151.28 33.524 151.92 34.004 151.92 34.752C151.92 35.152 151.812 35.5 151.236 36.032L150.476 36.736L152 36.712Z" fill="#FAFAFA"/>
<path d="M152.34 35.6C152.34 34.268 153.088 33.5 154.12 33.5C155.152 33.5 155.896 34.268 155.896 35.6C155.896 36.932 155.144 37.696 154.12 37.696C153.096 37.696 152.34 36.928 152.34 35.6ZM154.74 35.6C154.74 34.752 154.476 34.436 154.112 34.436C153.748 34.436 153.48 34.752 153.48 35.6C153.48 36.448 153.744 36.764 154.112 36.764C154.48 36.764 154.748 36.444 154.748 35.6H154.74Z" fill="#FAFAFA"/>
<path d="M156.4 35.552H158.08V36.4H156.4V35.552Z" fill="#FAFAFA"/>
<path d="M161.524 36.352C161.524 37.04 160.984 37.696 159.768 37.696C159.219 37.7027 158.679 37.5647 158.2 37.296L158.6 36.436C158.932 36.6541 159.319 36.7709 159.716 36.772C160.116 36.772 160.356 36.62 160.356 36.348C160.356 36.076 160.176 35.948 159.74 35.948H159.26V35.24L160 34.464H158.4V33.6H161.316V34.312L160.488 35.2C160.773 35.2297 161.036 35.364 161.228 35.5768C161.419 35.7896 161.525 36.0658 161.524 36.352Z" fill="#FAFAFA"/>
<path d="M165.008 36.32C165.008 37.04 164.464 37.696 163.248 37.696C162.702 37.7032 162.163 37.5652 161.688 37.296L162.088 36.436C162.421 36.6547 162.81 36.7715 163.208 36.772C163.608 36.772 163.852 36.616 163.852 36.344C163.852 36.072 163.684 35.944 163.052 35.944H162L162.204 33.588H164.772V34.468H163.148L163.096 35.056H163.368C164.54 35.052 165.008 35.6 165.008 36.32Z" fill="#FAFAFA"/>
<path d="M150 30.712H150.208V31.308C150.044 31.4403 149.838 31.5098 149.628 31.504C149.511 31.5292 149.39 31.5279 149.274 31.5003C149.158 31.4727 149.05 31.4195 148.957 31.3445C148.864 31.2695 148.789 31.1747 148.737 31.067C148.686 30.9593 148.659 30.8414 148.659 30.722C148.659 30.6026 148.686 30.4847 148.737 30.377C148.789 30.2693 148.864 30.1745 148.957 30.0995C149.05 30.0245 149.158 29.9713 149.274 29.9437C149.39 29.9161 149.511 29.9148 149.628 29.94C149.737 29.935 149.846 29.9535 149.948 29.9942C150.049 30.0349 150.141 30.0969 150.216 30.176L150.084 30.312C150.026 30.2535 149.957 30.2074 149.88 30.1764C149.804 30.1455 149.722 30.1304 149.64 30.132C149.484 30.132 149.334 30.1939 149.224 30.3042C149.114 30.4145 149.052 30.5641 149.052 30.72C149.052 30.8759 149.114 31.0255 149.224 31.1358C149.334 31.246 149.484 31.308 149.64 31.308C149.768 31.3067 149.893 31.2693 150 31.2V30.712Z" fill="#FAFAFA"/>
<path d="M151.6 31.104H150.8L150.632 31.504H150.4L151.096 29.972H151.312L152 31.488H151.772L151.6 31.104ZM151.524 30.928L151.2 30.18L150.872 30.928H151.524Z" fill="#FAFAFA"/>
<path d="M152.44 30.148H151.916V29.956H153.2V30.148H152.676V31.488H152.46L152.44 30.148Z" fill="#FAFAFA"/>
<path d="M154.528 31.296V31.488H153.42V29.956H154.5V30.148H153.636V30.616H154.4V30.8H153.632V31.292L154.528 31.296Z" fill="#FAFAFA"/>
<path d="M154.744 31.312L154.824 31.14C154.965 31.2579 155.144 31.3217 155.328 31.32C155.592 31.32 155.708 31.216 155.708 31.084C155.708 30.708 154.78 30.944 154.78 30.376C154.78 30.14 154.964 29.94 155.364 29.94C155.538 29.9362 155.709 29.9835 155.856 30.076L155.784 30.248C155.664 30.1719 155.526 30.1291 155.384 30.124C155.124 30.124 155.012 30.236 155.012 30.368C155.012 30.74 155.94 30.508 155.94 31.068C155.94 31.304 155.752 31.504 155.348 31.504C155.13 31.5143 154.916 31.4461 154.744 31.312Z" fill="#FAFAFA"/>
<path d="M171.452 58.988H134.9C134.115 58.988 133.362 58.6761 132.807 58.121C132.252 57.5659 131.94 56.813 131.94 56.028V48.028C131.94 47.6395 132.017 47.2548 132.165 46.8959C132.314 46.537 132.532 46.2109 132.807 45.9364C133.082 45.6618 133.408 45.4442 133.767 45.2959C134.127 45.1475 134.511 45.0715 134.9 45.072H171.668C172.056 45.0715 172.441 45.1475 172.8 45.2959C173.159 45.4442 173.486 45.6618 173.761 45.9364C174.036 46.2109 174.254 46.537 174.403 46.8959C174.551 47.2548 174.628 47.6395 174.628 48.028V55.816C174.621 56.6557 174.284 57.4588 173.689 58.0522C173.095 58.6456 172.292 58.9817 171.452 58.988Z" fill="#5200D9"/>
<path d="M140.912 47.556C140.794 47.6806 140.73 47.8472 140.734 48.019C140.739 48.1907 140.811 48.3537 140.936 48.472L143.844 51.248L135.74 51.44C135.569 51.4442 135.406 51.516 135.288 51.6396C135.169 51.7633 135.105 51.9288 135.108 52.1C135.11 52.1853 135.128 52.2694 135.162 52.3474C135.197 52.4255 135.246 52.496 135.308 52.5548C135.37 52.6136 135.443 52.6595 135.522 52.6899C135.602 52.7204 135.687 52.7346 135.772 52.732L143.876 52.544L141.096 55.456C141.038 55.5174 140.992 55.5897 140.961 55.6688C140.931 55.7479 140.916 55.8322 140.919 55.917C140.921 56.0017 140.94 56.0852 140.974 56.1625C141.009 56.2399 141.058 56.3098 141.12 56.368C141.242 56.4894 141.406 56.5576 141.578 56.5576C141.75 56.5576 141.915 56.4894 142.036 56.368L146.336 51.86L141.828 47.556C141.707 47.4346 141.542 47.3664 141.37 47.3664C141.198 47.3664 141.034 47.4346 140.912 47.556Z" fill="#FAFAFA"/>
<path d="M152 54.668C152 55.356 151.456 56.012 150.24 56.012C149.693 56.0205 149.153 55.8824 148.676 55.612L149.076 54.756C149.41 54.9714 149.799 55.0866 150.196 55.088C150.596 55.088 150.836 54.94 150.836 54.668C150.836 54.396 150.656 54.268 150.216 54.268H149.74V53.548L150.46 52.772H148.86V51.888H151.776V52.604L150.94 53.504C151.231 53.5291 151.502 53.6629 151.698 53.8787C151.894 54.0944 152.002 54.3762 152 54.668Z" fill="#FAFAFA"/>
<path d="M155.82 54.632C155.82 55.476 155.116 56.012 154.22 56.012C153.088 56.012 152.352 55.332 152.352 54.012C152.352 52.604 153.224 51.804 154.496 51.804C154.916 51.7888 155.331 51.8913 155.696 52.1L155.296 52.9C155.076 52.7545 154.816 52.6817 154.552 52.692C154.422 52.6821 154.292 52.699 154.169 52.7417C154.046 52.7844 153.933 52.852 153.838 52.9401C153.742 53.0283 153.665 53.1352 153.613 53.2543C153.56 53.3733 153.533 53.5019 153.532 53.632C153.789 53.4235 154.114 53.3167 154.444 53.332C154.621 53.321 154.799 53.3466 154.966 53.407C155.132 53.4675 155.285 53.5616 155.414 53.6835C155.543 53.8053 155.646 53.9524 155.716 54.1156C155.785 54.2788 155.821 54.4545 155.82 54.632ZM154.712 54.684C154.713 54.6134 154.699 54.5434 154.671 54.4786C154.643 54.4138 154.601 54.3556 154.549 54.308C154.497 54.2604 154.435 54.2244 154.368 54.2023C154.301 54.1803 154.23 54.1726 154.16 54.18C154.089 54.1733 154.017 54.1816 153.949 54.2043C153.882 54.227 153.819 54.2636 153.767 54.3119C153.714 54.3601 153.672 54.4188 153.643 54.4843C153.614 54.5498 153.6 54.6205 153.6 54.692C153.6 54.7637 153.614 54.8347 153.643 54.9003C153.672 54.9658 153.715 55.0246 153.768 55.0726C153.821 55.1205 153.884 55.1567 153.952 55.1787C154.021 55.2006 154.093 55.2079 154.164 55.2C154.235 55.2069 154.307 55.1985 154.374 55.1755C154.442 55.1524 154.503 55.1152 154.555 55.0664C154.607 55.0175 154.648 54.9581 154.675 54.8921C154.702 54.8262 154.715 54.7552 154.712 54.684Z" fill="#FAFAFA"/>
<path d="M156.216 53.868H157.9V54.708H156.216V53.868Z" fill="#FAFAFA"/>
<path d="M162.188 55.16H161.6V55.932H160.488V55.16H158.356V54.4L160.164 51.88H161.364L159.72 54.236H160.52V53.552H161.6V54.236H162.2L162.188 55.16Z" fill="#FAFAFA"/>
<path d="M165.48 51.896V52.612L164.056 55.932H162.8L164.16 52.8H163.1V53.424H162.124V51.896H165.48Z" fill="#FAFAFA"/>
<path d="M150 49.028H150.208V49.624C150.043 49.7545 149.838 49.8238 149.628 49.82C149.494 49.8209 149.363 49.7883 149.245 49.7251C149.127 49.6619 149.027 49.5701 148.953 49.4582C148.88 49.3463 148.836 49.2178 148.825 49.0845C148.815 48.9512 148.837 48.8173 148.892 48.6951C148.946 48.5729 149.03 48.4662 149.136 48.3849C149.242 48.3036 149.367 48.2502 149.5 48.2295C149.632 48.2089 149.767 48.2218 149.893 48.267C150.019 48.3121 150.131 48.3881 150.22 48.488L150.088 48.624C150.03 48.5667 149.96 48.5217 149.884 48.4915C149.808 48.4613 149.726 48.4465 149.644 48.448C149.488 48.448 149.339 48.5099 149.228 48.6202C149.118 48.7305 149.056 48.88 149.056 49.036C149.056 49.1919 149.118 49.3415 149.228 49.4518C149.339 49.562 149.488 49.624 149.644 49.624C149.771 49.627 149.897 49.5922 150.004 49.524L150 49.028Z" fill="#FAFAFA"/>
<path d="M151.6 49.42H150.8L150.632 49.82H150.4L151.096 48.292H151.312L152 49.8H151.772L151.6 49.42ZM151.524 49.244L151.192 48.496L150.864 49.244H151.524Z" fill="#FAFAFA"/>
<path d="M152.44 48.46H151.916V48.272H153.2V48.46H152.676V49.8H152.46L152.44 48.46Z" fill="#FAFAFA"/>
<path d="M154.528 49.6V49.788H153.42V48.26H154.5V48.448H153.636V48.92H154.4V49.104H153.632V49.6H154.528Z" fill="#FAFAFA"/>
<path d="M154.744 49.628L154.824 49.456C154.966 49.5724 155.145 49.6348 155.328 49.632C155.592 49.632 155.708 49.532 155.708 49.396C155.708 49.024 154.78 49.26 154.78 48.692C154.78 48.456 154.964 48.252 155.364 48.252C155.538 48.2482 155.709 48.2955 155.856 48.388L155.784 48.564C155.664 48.4879 155.526 48.4451 155.384 48.44C155.124 48.44 155.012 48.548 155.012 48.684C155.012 49.056 155.94 48.824 155.94 49.384C155.94 49.616 155.752 49.82 155.348 49.82C155.13 49.8303 154.916 49.7622 154.744 49.628Z" fill="#FAFAFA"/>
<path d="M23.5322 27.2C23.4762 27.2 23.4282 23.82 23.4282 19.656C23.4282 15.492 23.4762 12.112 23.5322 12.112C23.5882 12.112 23.6362 15.488 23.6362 19.656C23.6362 23.824 23.6002 27.2 23.5322 27.2Z" fill="#263238"/>
<path d="M74.3481 27.428C74.2921 27.428 74.2441 24 74.2441 19.776C74.2441 15.552 74.2921 12.12 74.3481 12.12C74.4041 12.12 74.4521 15.544 74.4521 19.776C74.4521 24.008 74.4001 27.428 74.3481 27.428Z" fill="#263238"/>
<path d="M83.5121 26.752H16.06C14.4496 26.752 13.144 28.0576 13.144 29.668V41.848C13.144 43.4585 14.4496 44.764 16.06 44.764H83.5121C85.1225 44.764 86.4281 43.4585 86.4281 41.848V29.668C86.4281 28.0576 85.1225 26.752 83.5121 26.752Z" fill="#5200D9"/>
<path d="M36.04 34.148H37.512C38.672 34.148 39.452 34.892 39.452 35.956C39.452 37.02 38.672 37.768 37.512 37.768H36.04V34.148ZM37.492 37.436C37.6926 37.4464 37.8932 37.416 38.0816 37.3464C38.27 37.2768 38.4423 37.1696 38.5879 37.0314C38.7336 36.8931 38.8496 36.7266 38.9288 36.5421C39.0081 36.3576 39.049 36.1588 39.049 35.958C39.049 35.7572 39.0081 35.5584 38.9288 35.3739C38.8496 35.1894 38.7336 35.0229 38.5879 34.8846C38.4423 34.7464 38.27 34.6392 38.0816 34.5696C37.8932 34.5001 37.6926 34.4696 37.492 34.48H36.42V37.436H37.492Z" fill="#FAFAFA"/>
<path d="M42.6 36.52H40.324C40.3405 36.7879 40.4627 37.0382 40.6637 37.216C40.8647 37.3938 41.1281 37.4844 41.396 37.468C41.5526 37.4727 41.7083 37.4429 41.8521 37.3807C41.9959 37.3184 42.1242 37.2254 42.228 37.108L42.436 37.348C42.2406 37.5535 41.9888 37.6965 41.7122 37.759C41.4356 37.8216 41.1467 37.8009 40.8819 37.6995C40.6171 37.5981 40.3883 37.4206 40.2242 37.1893C40.0601 36.9581 39.9682 36.6834 39.96 36.4C39.9501 36.2206 39.9772 36.041 40.0398 35.8726C40.1023 35.7041 40.1989 35.5503 40.3235 35.4208C40.4481 35.2914 40.5981 35.1889 40.764 35.12C40.93 35.051 41.1083 35.017 41.288 35.02C41.4673 35.0162 41.6455 35.0499 41.8111 35.1188C41.9768 35.1876 42.1262 35.2903 42.25 35.4201C42.3738 35.5499 42.4692 35.7041 42.5302 35.8728C42.5911 36.0415 42.6163 36.221 42.604 36.4C42.604 36.436 42.6 36.48 42.6 36.52ZM40.324 36.248H42.252C42.252 35.9923 42.1504 35.7471 41.9697 35.5663C41.7889 35.3856 41.5437 35.284 41.288 35.284C41.0323 35.284 40.7871 35.3856 40.6063 35.5663C40.4256 35.7471 40.324 35.9923 40.324 36.248Z" fill="#FAFAFA"/>
<path d="M46.112 36.4C46.1209 36.5817 46.0921 36.7633 46.0275 36.9334C45.9628 37.1035 45.8637 37.2584 45.7364 37.3883C45.6091 37.5183 45.4562 37.6205 45.2875 37.6886C45.1188 37.7567 44.9378 37.7892 44.756 37.784C44.5526 37.7895 44.3512 37.7431 44.1707 37.6494C43.9902 37.5556 43.8364 37.4175 43.724 37.248V38.76H43.356V35.04H43.708V35.6C43.8195 35.4245 43.9747 35.2809 44.1584 35.1834C44.3422 35.086 44.5481 35.0379 44.756 35.044C44.9355 35.0385 45.1143 35.0697 45.2814 35.1359C45.4484 35.2021 45.6001 35.3018 45.7271 35.4288C45.8542 35.5559 45.9539 35.7076 46.02 35.8746C46.0862 36.0416 46.1175 36.2204 46.112 36.4ZM45.744 36.4C45.7353 36.201 45.6684 36.0089 45.5515 35.8476C45.4345 35.6864 45.2728 35.563 45.0863 35.4929C44.8998 35.4229 44.6969 35.4092 44.5027 35.4535C44.3085 35.4979 44.1316 35.5983 43.994 35.7424C43.8565 35.8865 43.7643 36.0678 43.729 36.2639C43.6937 36.4599 43.7168 36.662 43.7954 36.8451C43.874 37.0281 44.0047 37.184 44.1713 37.2933C44.3378 37.4026 44.5328 37.4606 44.732 37.46C44.8695 37.4619 45.0059 37.4354 45.1328 37.3822C45.2596 37.329 45.3741 37.2501 45.4691 37.1506C45.564 37.0512 45.6375 36.9331 45.6848 36.804C45.7321 36.6748 45.7522 36.5373 45.744 36.4Z" fill="#FAFAFA"/>
<path d="M48.896 36.08V37.768H48.544V37.344C48.4417 37.4969 48.2999 37.6192 48.1337 37.6981C47.9675 37.7769 47.7831 37.8094 47.6 37.792C46.984 37.792 46.604 37.472 46.604 36.992C46.604 36.512 46.876 36.224 47.656 36.224H48.52V36.056C48.52 35.592 48.256 35.34 47.748 35.34C47.4181 35.3352 47.0974 35.4487 46.844 35.66L46.68 35.384C46.9946 35.1382 47.3849 35.0095 47.784 35.02C48.5 35.028 48.896 35.376 48.896 36.08ZM48.532 36.948V36.504H47.676C47.152 36.504 46.98 36.712 46.98 36.992C46.98 37.272 47.232 37.504 47.668 37.504C47.8523 37.5147 48.0353 37.4667 48.1906 37.3668C48.3459 37.2668 48.4654 37.1202 48.532 36.948Z" fill="#FAFAFA"/>
<path d="M51.264 35.028V35.384H51.176C51.0454 35.3777 50.915 35.4005 50.7943 35.4509C50.6737 35.5012 50.5657 35.5778 50.4784 35.6751C50.391 35.7724 50.3265 35.888 50.2894 36.0134C50.2523 36.1388 50.2436 36.2708 50.264 36.4V37.788H49.896V35.068H50.248V35.6C50.3386 35.4123 50.4846 35.2568 50.6662 35.1545C50.8479 35.0523 51.0565 35.0081 51.264 35.028Z" fill="#FAFAFA"/>
<path d="M53.4801 37.6C53.3177 37.7316 53.113 37.7998 52.9041 37.792C52.796 37.8049 52.6863 37.793 52.5834 37.7574C52.4805 37.7217 52.387 37.6632 52.31 37.5862C52.2329 37.5091 52.1744 37.4157 52.1387 37.3127C52.1031 37.2098 52.0912 37.1002 52.1041 36.992V35.356H51.6201V35.048H52.1041V34.452H52.4721V35.048H53.3001V35.356H52.4721V36.98C52.4628 37.0452 52.4683 37.1117 52.4884 37.1745C52.5084 37.2373 52.5424 37.2947 52.5879 37.3424C52.6333 37.3902 52.6889 37.427 52.7506 37.4501C52.8124 37.4733 52.8785 37.4821 52.9441 37.476C53.0903 37.4815 53.2332 37.4314 53.3441 37.336L53.4801 37.6Z" fill="#FAFAFA"/>
<path d="M56.5963 35.048V37.768H56.2443V37.272C56.1436 37.4386 55.9997 37.5749 55.8279 37.6664C55.6561 37.7579 55.4627 37.8013 55.2683 37.792C55.112 37.8074 54.9542 37.7876 54.8065 37.734C54.6589 37.6804 54.5251 37.5945 54.415 37.4825C54.3049 37.3705 54.2213 37.2352 54.1703 37.0867C54.1193 36.9381 54.1022 36.78 54.1203 36.624V35.048H54.4883V36.588C54.4713 36.7002 54.4797 36.8148 54.5128 36.9234C54.546 37.0319 54.603 37.1317 54.6797 37.2153C54.7564 37.299 54.8509 37.3644 54.9562 37.4067C55.0615 37.449 55.175 37.4673 55.2883 37.46C55.417 37.4668 55.5456 37.4453 55.6651 37.3971C55.7846 37.3489 55.8922 37.2752 55.9802 37.181C56.0682 37.0869 56.1346 36.9747 56.1747 36.8522C56.2148 36.7297 56.2276 36.6 56.2123 36.472V35.048H56.5963Z" fill="#FAFAFA"/>
<path d="M58.9962 35.028V35.384H58.9082C58.778 35.3783 58.648 35.4016 58.5279 35.4522C58.4077 35.5028 58.3003 35.5795 58.2134 35.6768C58.1265 35.774 58.0623 35.8893 58.0254 36.0144C57.9886 36.1395 57.98 36.2712 58.0002 36.4V37.788H57.6362V35.068H57.9842V35.6C58.0755 35.4137 58.221 35.2593 58.4016 35.1572C58.5822 35.0551 58.7895 35.0101 58.9962 35.028Z" fill="#FAFAFA"/>
<path d="M61.9999 36.52H59.7239C59.732 36.653 59.7664 36.7831 59.8249 36.9028C59.8834 37.0225 59.965 37.1294 60.065 37.2175C60.165 37.3056 60.2814 37.373 60.4075 37.416C60.5336 37.459 60.667 37.4767 60.7999 37.468C60.9565 37.4727 61.1122 37.4429 61.256 37.3807C61.3998 37.3185 61.5281 37.2254 61.6319 37.108L61.8399 37.348C61.6448 37.5549 61.3926 37.6991 61.1153 37.7625C60.8381 37.8258 60.5483 37.8054 60.2827 37.7039C60.017 37.6023 59.7875 37.4242 59.6233 37.1921C59.459 36.96 59.3673 36.6843 59.3599 36.4C59.35 36.2206 59.3771 36.041 59.4397 35.8726C59.5022 35.7041 59.5988 35.5503 59.7234 35.4209C59.848 35.2914 59.998 35.189 60.1639 35.12C60.3299 35.051 60.5082 35.017 60.6879 35.02C60.8669 35.0168 61.0446 35.0509 61.2098 35.12C61.3749 35.1891 61.5239 35.2918 61.6473 35.4216C61.7706 35.5513 61.8657 35.7053 61.9264 35.8737C61.9871 36.0422 62.0121 36.2214 61.9999 36.4C61.9999 36.436 61.9999 36.48 61.9999 36.52ZM59.7239 36.248H61.6519C61.6519 35.9923 61.5503 35.7471 61.3696 35.5664C61.1888 35.3856 60.9436 35.284 60.6879 35.284C60.4322 35.284 60.187 35.3856 60.0063 35.5664C59.8255 35.7471 59.7239 35.9923 59.7239 36.248Z" fill="#FAFAFA"/>
<path d="M62.376 37.456L62.544 37.168C62.8258 37.3673 63.1628 37.4736 63.508 37.472C64.028 37.472 64.24 37.296 64.24 37.028C64.24 36.32 62.476 36.876 62.476 35.8C62.476 35.356 62.876 35.028 63.552 35.028C63.8891 35.0219 64.2213 35.1091 64.512 35.28L64.352 35.576C64.1164 35.416 63.8367 35.3335 63.552 35.34C63.06 35.34 62.844 35.532 62.844 35.792C62.844 36.524 64.608 35.972 64.608 37.016C64.608 37.488 64.208 37.792 63.484 37.792C63.088 37.8033 62.699 37.6854 62.376 37.456Z" fill="#FAFAFA"/>
<path d="M73.9681 34.092C73.896 34.1666 73.8557 34.2663 73.8557 34.37C73.8557 34.4737 73.896 34.5734 73.9681 34.648L75.6801 36.376L70.7721 36.352C70.666 36.352 70.5642 36.3941 70.4892 36.4691C70.4142 36.5442 70.3721 36.6459 70.3721 36.752C70.3721 36.8581 70.4142 36.9598 70.4892 37.0348C70.5642 37.1098 70.666 37.152 70.7721 37.152L75.6801 37.176L73.9481 38.888C73.876 38.9626 73.8357 39.0623 73.8357 39.166C73.8357 39.2697 73.876 39.3694 73.9481 39.444C74.0227 39.5161 74.1223 39.5564 74.2261 39.5564C74.3298 39.5564 74.4295 39.5161 74.5041 39.444L77.1841 36.792L74.5321 34.112C74.4598 34.0348 74.3599 33.9893 74.2542 33.9856C74.1485 33.9818 74.0456 34.0201 73.9681 34.092Z" fill="#FAFAFA"/>
<path d="M28.8321 38.952H18.7041V39.688H28.8321V38.952Z" fill="#FAFAFA"/>
<path d="M29.936 32.628C29.8814 32.55 29.8121 32.4834 29.732 32.432C29.2159 32.244 28.6785 32.1204 28.132 32.064C27.3177 32.102 26.531 32.3712 25.864 32.84L24.96 33.38L21.76 32.836C21.7109 32.8183 21.6572 32.8183 21.608 32.836L21.104 33.064C21.077 33.0771 21.0542 33.0976 21.0382 33.123C21.0223 33.1485 21.0138 33.1779 21.0138 33.208C21.0138 33.238 21.0223 33.2675 21.0382 33.293C21.0542 33.3184 21.077 33.3389 21.104 33.352L23.2 34.4C23.2 34.4 23.2 34.4 23.2 34.428L21.016 35.724H20.984C20.5734 35.9631 20.0874 36.0374 19.624 35.932L18.496 35.676C18.4398 35.6601 18.3803 35.6601 18.324 35.676C18.2773 35.6922 18.2357 35.7204 18.2032 35.7577C18.1707 35.7949 18.1485 35.8401 18.1388 35.8885C18.1291 35.937 18.1322 35.9872 18.1479 36.0341C18.1635 36.081 18.1912 36.123 18.228 36.156L19.492 37.316C19.5888 37.4054 19.7091 37.4653 19.8388 37.4887C19.9685 37.5121 20.1021 37.498 20.224 37.448L20.852 37.2L24.424 35.696L29.472 33.572C29.972 33.372 30.164 32.96 29.936 32.628Z" fill="#FAFAFA"/>
<path d="M25.3759 35.756L23.8759 36.4L23.5959 37.64C23.5915 37.6568 23.5911 37.6745 23.5948 37.6915C23.5984 37.7085 23.606 37.7244 23.6168 37.738C23.6277 37.7516 23.6416 37.7625 23.6574 37.7697C23.6732 37.777 23.6905 37.7805 23.7079 37.78H23.8519C23.9513 37.7799 24.0491 37.755 24.1364 37.7075C24.2238 37.66 24.2978 37.5914 24.3519 37.508L25.3759 35.756Z" fill="#FAFAFA"/>
</svg>
