<svg width="114" height="114" viewBox="0 0 114 114" fill="none" xmlns="http://www.w3.org/2000/svg">
<path d="M110.438 65.9062H96.1875C95.7151 65.9062 95.262 66.0939 94.928 66.428C94.5939 66.762 94.4062 67.2151 94.4062 67.6875V71.25H91.5812L87.1281 66.7969L92.1031 61.8218C92.437 61.4878 92.6246 61.0348 92.6246 60.5625C92.6246 60.0902 92.437 59.6372 92.1031 59.3032L84.9781 52.1782C84.6441 51.8442 84.1911 51.6566 83.7188 51.6566C83.2464 51.6566 82.7934 51.8442 82.4594 52.1782L74.0751 60.5625H64.125C63.6526 60.5626 63.1996 60.7503 62.8657 61.0844L61.6063 62.3438H32.0625V65.9062H58.0438L54.4813 69.4688H32.0625V73.0312H50.9188L50.3969 73.5532C50.0628 73.8871 49.8751 74.3401 49.875 74.8125V84.7626L45.0532 89.5844C44.8048 89.8332 44.6356 90.1499 44.5669 90.4946L42.7856 99.4009C42.728 99.6889 42.7426 99.9867 42.8279 100.268C42.9133 100.549 43.0668 100.804 43.2749 101.012C43.483 101.219 43.7391 101.372 44.0204 101.456C44.3018 101.541 44.5997 101.554 44.8875 101.496L53.7938 99.7144C54.1385 99.6456 54.4552 99.4765 54.704 99.2281L61.7773 92.1547C62.5217 92.4632 63.3192 92.623 64.125 92.625H74.0751L78.8969 97.4468C79.2309 97.7809 79.6839 97.9687 80.1562 97.9688V108.656H5.34375V5.34375H80.1562V48.0938H83.7188V3.5625C83.7188 3.09008 83.5311 2.63702 83.197 2.30297C82.863 1.96892 82.4099 1.78125 81.9375 1.78125H3.5625C3.09008 1.78125 2.63702 1.96892 2.30297 2.30297C1.96892 2.63702 1.78125 3.09008 1.78125 3.5625V110.438C1.78125 110.91 1.96892 111.363 2.30297 111.697C2.63702 112.031 3.09008 112.219 3.5625 112.219H81.9375C82.4099 112.219 82.863 112.031 83.197 111.697C83.5311 111.363 83.7188 110.91 83.7188 110.438V97.9688H94.4062V99.75C94.4062 100.222 94.5939 100.675 94.928 101.01C95.262 101.344 95.7151 101.531 96.1875 101.531H110.438C110.91 101.531 111.363 101.344 111.697 101.01C112.031 100.675 112.219 100.222 112.219 99.75V67.6875C112.219 67.2151 112.031 66.762 111.697 66.428C111.363 66.0939 110.91 65.9062 110.438 65.9062ZM83.7188 55.9562L88.3251 60.5625L68.7313 80.1562H64.125C62.9914 80.1575 61.8796 80.4678 60.9092 81.0538C59.9389 81.6398 59.1466 82.4792 58.6177 83.4819C58.0888 84.4845 57.8433 85.6124 57.9076 86.7441C57.9719 87.8759 58.3435 88.9687 58.9825 89.905L53.4375 95.4501L48.8312 90.8438L83.7188 55.9562ZM53.4375 75.5499L64.8624 64.125H70.5126L53.4375 81.2001V75.5499ZM47.4062 94.4561L49.8251 96.8751L46.797 97.4807L47.4062 94.4561ZM80.8937 94.4062L76.0718 89.5844C75.7379 89.2503 75.2849 89.0626 74.8125 89.0625H64.125C63.4164 89.0625 62.7368 88.781 62.2357 88.2799C61.7346 87.7789 61.4531 87.0993 61.4531 86.3906C61.4531 85.682 61.7346 85.0024 62.2357 84.5013C62.7368 84.0003 63.4164 83.7188 64.125 83.7188H80.1562V80.1562H73.7687L84.6094 69.3156L89.5844 74.2906C89.9184 74.6247 90.3714 74.8124 90.8438 74.8125H94.4062V94.4062H80.8937ZM108.656 97.9688H97.9688V69.4688H108.656V97.9688Z" fill="#5200D9"/>
<path d="M24.9375 80.1563H10.6875C10.2151 80.1563 9.76202 80.344 9.42797 80.678C9.09392 81.0121 8.90625 81.4651 8.90625 81.9376V96.1876C8.90625 96.66 9.09392 97.1131 9.42797 97.4471C9.76202 97.7812 10.2151 97.9688 10.6875 97.9688H24.9375C25.4099 97.9688 25.863 97.7812 26.197 97.4471C26.5311 97.1131 26.7188 96.66 26.7188 96.1876V84.4563L31.5406 79.6344L29.0219 77.1157L25.7569 80.3808C25.5067 80.239 25.225 80.1618 24.9375 80.1563ZM23.1562 94.4063H12.4688V83.7188H22.4188L17.8125 88.3251L15.5093 86.022L12.9907 88.5407L16.5532 92.1032C16.8872 92.4371 17.3402 92.6247 17.8125 92.6247C18.2848 92.6247 18.7378 92.4371 19.0718 92.1032L23.1562 88.0188V94.4063ZM29.0219 12.9907L25.7569 16.2558C25.5067 16.114 25.225 16.0368 24.9375 16.0313H10.6875C10.2151 16.0313 9.76202 16.219 9.42797 16.553C9.09392 16.8871 8.90625 17.3401 8.90625 17.8126V32.0626C8.90625 32.535 9.09392 32.9881 9.42797 33.3221C9.76202 33.6562 10.2151 33.8438 10.6875 33.8438H24.9375C25.4099 33.8438 25.863 33.6562 26.197 33.3221C26.5311 32.9881 26.7188 32.535 26.7188 32.0626V20.3313L31.5406 15.5094L29.0219 12.9907ZM23.1562 30.2813H12.4688V19.5938H22.4188L17.8125 24.2001L15.5093 21.897L12.9907 24.4157L16.5532 27.9782C16.8872 28.3121 17.3402 28.4997 17.8125 28.4997C18.2848 28.4997 18.7378 28.3121 19.0718 27.9782L23.1562 23.8938V30.2813ZM29.0219 34.3657L25.7569 37.6308C25.5067 37.489 25.225 37.4118 24.9375 37.4063H10.6875C10.2151 37.4063 9.76202 37.594 9.42797 37.928C9.09392 38.2621 8.90625 38.7151 8.90625 39.1876V53.4376C8.90625 53.91 9.09392 54.3631 9.42797 54.6971C9.76202 55.0312 10.2151 55.2188 10.6875 55.2188H24.9375C25.4099 55.2188 25.863 55.0312 26.197 54.6971C26.5311 54.3631 26.7188 53.91 26.7188 53.4376V41.7063L31.5406 36.8844L29.0219 34.3657ZM23.1562 51.6563H12.4688V40.9688H22.4188L17.8125 45.5751L15.5093 43.272L12.9907 45.7907L16.5532 49.3532C16.8872 49.6871 17.3402 49.8747 17.8125 49.8747C18.2848 49.8747 18.7378 49.6871 19.0718 49.3532L23.1562 45.2687V51.6563ZM29.0219 55.7407L25.7569 59.0058C25.5067 58.864 25.225 58.7868 24.9375 58.7813H10.6875C10.2151 58.7813 9.76202 58.969 9.42797 59.303C9.09392 59.6371 8.90625 60.0901 8.90625 60.5626V74.8126C8.90625 75.285 9.09392 75.7381 9.42797 76.0721C9.76202 76.4062 10.2151 76.5938 10.6875 76.5938H24.9375C25.4099 76.5938 25.863 76.4062 26.197 76.0721C26.5311 75.7381 26.7188 75.285 26.7188 74.8126V63.0813L31.5406 58.2594L29.0219 55.7407ZM23.1562 73.0313H12.4688V62.3438H22.4188L17.8125 66.9501L15.5093 64.647L12.9907 67.1657L16.5532 70.7282C16.8872 71.0621 17.3402 71.2497 17.8125 71.2497C18.2848 71.2497 18.7378 71.0621 19.0718 70.7282L23.1562 66.6438V73.0313ZM32.0625 19.5938H76.5938V23.1563H32.0625V19.5938ZM32.0625 26.7188H69.4688V30.2813H32.0625V26.7188ZM73.0312 26.7188H76.5938V30.2813H73.0312V26.7188ZM32.0625 40.9688H76.5938V44.5313H32.0625V40.9688ZM32.0625 48.0938H69.4688V51.6563H32.0625V48.0938ZM73.0312 48.0938H76.5938V51.6563H73.0312V48.0938ZM32.0625 83.7188H40.9688V87.2813H32.0625V83.7188ZM32.0625 90.8438H40.9688V94.4063H32.0625V90.8438Z" fill="#5200D9"/>
</svg>
